<svg id="Layer_1" data-name="Layer 1" xmlns="http://www.w3.org/2000/svg" viewBox="0 0 80.46 37.69"><title>01</title><path d="M54.09,30.5c0,.22,0,.45,0,.68a.12.12,0,0,1-.08.1.43.43,0,0,1-.16,0H50.78a3.19,3.19,0,0,1,0,.42q0,.6,0,1.2a1.22,1.22,0,0,1-.07.38c0,.17,0,.24.17.24h2.9a.45.45,0,0,0,.39-.17c.05-.06.12-.1.21-.19,0,.25,0,.44.06.64s-.05.21-.21.21h-4a1.62,1.62,0,0,1-.34-.1V31.32l.23.22a.17.17,0,0,0,.28,0l.24-.21L50,31.21l0-.16h4V31H50.36a1.53,1.53,0,0,1-.36-.07s0-.07-.07-.14h4v-.05H50.61l-.65,0v-.16h3.8Z" transform="translate(-0.55 -1.54)"/><path d="M50,30.41V28a1,1,0,0,1,.15.13.44.44,0,0,0,.39.16q1.64,0,3.27,0a.51.51,0,0,0,.49-.21l.17-.15c0,.24,0,.44.06.64s-.06.21-.21.21H51.1c-.22,0-.26,0-.26.25,0,.42,0,.83,0,1.24,0,.2,0,.24-.22.23S50.18,30.43,50,30.41Z" transform="translate(-0.55 -1.54)"/><path d="M58.71,28.53c-.13-.09-.26-.16-.38-.26a.26.26,0,0,0-.38,0,.91.91,0,0,1-.21.15c-.05,0-.12,0-.17,0l-.19.06c.06-.2.13-.39.2-.59a.18.18,0,0,0-.09-.25c-.18-.13-.35-.27-.52-.41l0,0,.33.1c.16.05.31.11.47.15a.81.81,0,0,0,.22,0,1.12,1.12,0,0,0-.08-.26s-.06,0-.1-.07l.22-.7c.09.25.18.47.25.69a.44.44,0,0,1,0,.16c0,.13,0,.16.13.13l.64-.19h0a.71.71,0,0,1-.05.22.58.58,0,0,1-.14.13c-.4.3-.38.23-.22.7l.06.23Z" transform="translate(-0.55 -1.54)"/><path d="M44.84,27.2l.77.25c.08,0,.19.12.25,0a.19.19,0,0,0-.12-.26l-.06-.05.22-.7.25.7s0,.1,0,.14,0,.11,0,.12a.2.2,0,0,0,.13,0l.63-.18H47a.87.87,0,0,1-.14.29,2.34,2.34,0,0,1-.31.24.21.21,0,0,0-.07.26l.15.49,0,0c-.13-.09-.27-.17-.39-.27a.27.27,0,0,0-.37,0,1.13,1.13,0,0,1-.21.15c-.05,0-.12,0-.18,0a.67.67,0,0,0-.18.07c.06-.2.13-.39.19-.58a.19.19,0,0,0-.08-.26l-.52-.4Z" transform="translate(-0.55 -1.54)"/><path d="M46.14,34.46l.8-.24,0,0-.12.09,0,0a.48.48,0,0,1-.1.17.89.89,0,0,1-.22.16.27.27,0,0,0-.12.36c0,.15.1.31.14.46l0,0c-.14-.09-.28-.18-.42-.29a.22.22,0,0,0-.32,0,.75.75,0,0,1-.18.13c-.08,0-.14.16-.25.06s-.11,0-.17.07c.07-.2.13-.4.2-.59a.19.19,0,0,0-.08-.26,3.42,3.42,0,0,1-.51-.43.73.73,0,0,1,.2,0l.63.21c.09,0,.18,0,.22,0s-.07-.11-.12-.16-.07,0-.11-.07l.25-.76C46,33.8,46.23,34.08,46.14,34.46Z" transform="translate(-0.55 -1.54)"/><path d="M59.1,34.22c0,.1-.13.13-.08.25s-.1.11-.17.15c-.32.24-.32.24-.19.61a1.07,1.07,0,0,1,.06.32,3,3,0,0,1-.41-.29.24.24,0,0,0-.34,0l-.21.16c-.06,0-.12.12-.21,0s-.11,0-.18.07l.21-.56a.23.23,0,0,0-.11-.3c-.17-.12-.33-.26-.51-.4,0,0,.08,0,.1,0l.74.25c.09,0,.18.06.23,0s-.05-.13-.12-.17l-.1-.07.24-.76c.1.34.33.61.24,1Z" transform="translate(-0.55 -1.54)"/><path d="M51.73,23.7,52,23c.11.33.32.61.25,1L53,23.7v0l-.11.11,0,0c0,.06,0,.13-.1.17-.49.35-.42.26-.25.8a.77.77,0,0,1,0,.15l0,0-.33-.24a.28.28,0,0,0-.41,0,.8.8,0,0,1-.21.15s-.11,0-.17,0L51.3,25c.07-.2.14-.4.2-.61a.24.24,0,0,0-.06-.2c-.17-.15-.36-.29-.53-.46a3.37,3.37,0,0,1,.34.09c.17.05.33.13.49.17a.43.43,0,0,0,.22,0,1.67,1.67,0,0,0-.12-.16S51.77,23.73,51.73,23.7Z" transform="translate(-0.55 -1.54)"/><path d="M58.47,31.93,58.3,32c.08-.23.14-.41.22-.59a.23.23,0,0,0-.1-.3l-.5-.38,0,0,.72.23s0,0,.06,0,.17.08.23,0,0-.18-.11-.22l-.09-.05L59,30c.13.34.33.62.22,1l.84-.24c0,.1-.16.12-.1.25s-.06.08-.11.11c-.45.31-.34.3-.23.68a1.8,1.8,0,0,1,0,.19s0,0,0,.09l-.32-.22c-.24-.18-.25-.18-.5,0a.48.48,0,0,1-.17.12.58.58,0,0,1-.18,0Z" transform="translate(-0.55 -1.54)"/><path d="M49.5,24.65a1,1,0,0,1-.06.22.32.32,0,0,1-.11.12c-.44.33-.39.24-.23.76a.5.5,0,0,1,0,.22c-.14-.1-.28-.19-.41-.3a.23.23,0,0,0-.31,0,1.88,1.88,0,0,1-.23.16c-.06,0-.11.13-.2,0s-.11,0-.17.06c.07-.21.13-.41.2-.61a.16.16,0,0,0-.06-.2l-.54-.41,0-.05.73.24c.1,0,.21.13.28,0s-.08-.18-.16-.24,0,0,0,0l.22-.74c.1.35.34.62.22,1Z" transform="translate(-0.55 -1.54)"/><path d="M47.8,38.07l.2-.59a.17.17,0,0,0-.08-.23,2.85,2.85,0,0,1-.5-.43c.11,0,.23,0,.34.09l.45.16c.08,0,.17.07.22,0s0-.16-.11-.2l-.08,0,.22-.76c.1.35.34.62.22,1l.83-.24c0,.08,0,.16-.07.23a.38.38,0,0,1-.11.11c-.44.34-.39.24-.23.76a.5.5,0,0,1,0,.22l-.41-.29a.21.21,0,0,0-.31,0l-.23.16c-.06,0-.11.13-.2,0S47.86,38.05,47.8,38.07Z" transform="translate(-0.55 -1.54)"/><path d="M52,37c.11.36.33.64.25,1l.85-.24c-.08.1-.2.13-.14.26s-.06.08-.1.11c-.46.31-.36.26-.23.69a1,1,0,0,1,0,.26c-.13-.08-.26-.16-.38-.25a.26.26,0,0,0-.4,0l-.21.15a.25.25,0,0,1-.11,0h-.22a4.35,4.35,0,0,1,.17-.51c.07-.16,0-.24-.11-.33a3.07,3.07,0,0,1-.48-.41l.79.26c.09,0,.19.1.24,0a.19.19,0,0,0-.1-.27l-.07-.05Z" transform="translate(-0.55 -1.54)"/><path d="M45.61,32l-.39-.28a.25.25,0,0,0-.34,0l-.22.17c-.06,0-.11.1-.2,0s-.12,0-.17.06c.06-.2.14-.42.21-.63a.15.15,0,0,0-.06-.19,2.38,2.38,0,0,1-.49-.42h.11l.65.21c.08,0,.18.08.22,0a.16.16,0,0,0-.1-.24.24.24,0,0,1-.09-.06L45,30c.09.33.36.6.24,1l.83-.24a1.58,1.58,0,0,1-.17.32c-.08.09-.22.15-.3.24a.36.36,0,0,0,0,.25,4,4,0,0,0,.16.49Z" transform="translate(-0.55 -1.54)"/><path d="M56.14,26l-.41-.29a.23.23,0,0,0-.31,0,1.13,1.13,0,0,1-.18.12c-.08.05-.14.18-.28.08s-.1.05-.16.08c.07-.21.13-.41.21-.6a.18.18,0,0,0-.09-.26,3.14,3.14,0,0,1-.48-.42l.23,0,.59.2c.06,0,.13,0,.2,0s0-.18-.07-.2-.13-.14-.08-.26.11-.35.18-.55c.1.34.32.62.22,1l.88-.25c-.08.1-.21.14-.14.27a.46.46,0,0,1-.12.1c-.45.32-.35.25-.23.69,0,.08,0,.17.07.26Z" transform="translate(-0.55 -1.54)"/><path d="M55.49,36c.1.34.31.63.22,1l.88-.25c-.09.11-.21.14-.14.27s-.07.08-.12.11c-.45.31-.35.25-.23.68a.82.82,0,0,1,0,.28l-.41-.29a.22.22,0,0,0-.31,0l-.23.17c-.06,0-.11.12-.21,0s-.12,0-.17.06c.06-.19.12-.39.2-.58a.19.19,0,0,0-.09-.27,2.68,2.68,0,0,1-.48-.42,1.55,1.55,0,0,1,.23.06c.2.06.39.14.59.19s.13,0,.2,0,0-.19-.07-.21-.13-.14-.08-.25Z" transform="translate(-0.55 -1.54)"/><path d="M27.85,4.55h-.39c-.07,0-.09,0-.09-.08a4.34,4.34,0,0,0,0-.51c0-.08,0-.08.1-.08h2c.08-.3.15-.59.25-.87a2.38,2.38,0,0,1,.62-1,1.18,1.18,0,0,1,.54-.32,1,1,0,0,1,.88.25,2.41,2.41,0,0,1,.59.85,4,4,0,0,1,.31,1.06v.06h2c.09,0,.12,0,.11.12v.47c0,.07,0,.1-.09.09h-.34s0,0,0,.08c0,.36,0,.72,0,1.08,0,.06,0,.08.08.1a3.18,3.18,0,0,1,1.45,1.24,2.82,2.82,0,0,1,.37,1.09c.13.81.27,1.61.41,2.41s.29,1.68.43,2.53a3.44,3.44,0,0,1,0,.46v2.39a.47.47,0,0,1,0,.16,2.35,2.35,0,0,1-1,.9L36,17c-.16,0-.19.14-.18.29,0,.31,0,.61,0,.92v.11H26.44c-.12,0-.12,0-.12-.12V17.2a.13.13,0,0,0-.06-.12l-.78-.56a1.37,1.37,0,0,1-.4-.55,2.59,2.59,0,0,1-.19-1.58c.13-.8.25-1.6.38-2.4s.29-1.83.43-2.74c.07-.45.13-.91.23-1.36a2.51,2.51,0,0,1,.93-1.52,5.11,5.11,0,0,1,.46-.28l.48-.28a.13.13,0,0,0,.06-.09V4.6A.13.13,0,0,0,27.85,4.55Zm.49,11.29V14.63c0-.17,0-.15.15-.15h1.69c0-.06,0-.1,0-.14s.15-.37.22-.55a.36.36,0,0,1,.07-.1,1,1,0,0,1,1.24,0l.07.09c.1.23.21.46.32.7h1.62c.15,0,.15,0,.15.14v1.11a.45.45,0,0,0,0,.11H35l.07,0,.63-.27a.23.23,0,0,0,.11-.08.84.84,0,0,0,.14-.63c-.16-1-.33-2-.49-3s-.29-1.74-.43-2.61a5.57,5.57,0,0,0-.34-1.45s0-.07-.11-.07h-.92v.62c0,.12,0,.12-.13.12H28.74c-.07,0-.1,0-.09-.08V7.73h-1a.08.08,0,0,0-.07,0,3,3,0,0,0-.3.85,2.51,2.51,0,0,1,0,.27c-.16.95-.32,1.89-.49,2.83s-.3,1.8-.46,2.7a2,2,0,0,0,0,.65,1,1,0,0,0,.8.77h1.28Z" transform="translate(-0.55 -1.54)"/><path d="M29.6,11.83c-.12-.13-.24-.25-.35-.38a1.15,1.15,0,0,1-.3-.59.44.44,0,0,1,.32-.5,1.26,1.26,0,0,1,.72,0,5,5,0,0,1,1.1.45.16.16,0,0,0,.15,0,4.92,4.92,0,0,1,1.35-.42,1.06,1.06,0,0,1,.53.06.48.48,0,0,1,.26.54,1.43,1.43,0,0,1-.42.63l-.29.26.34.36a1.16,1.16,0,0,1,.31.6.46.46,0,0,1-.34.52,1.31,1.31,0,0,1-.68,0,4.33,4.33,0,0,1-1-.38.51.51,0,0,0-.15-.07.26.26,0,0,0-.12,0c-.33.12-.66.25-1,.35a1.44,1.44,0,0,1-.74.07.49.49,0,0,1-.4-.3.5.5,0,0,1,0-.27,1.33,1.33,0,0,1,.45-.69Zm.45,0,1,.65a.12.12,0,0,0,.14,0l.72-.41.3-.2a7.15,7.15,0,0,0-1-.68h-.09A7.38,7.38,0,0,0,30.05,11.85Zm.79-.83-.53-.23a2.13,2.13,0,0,0-.79-.19c-.28,0-.37.14-.24.4a2.62,2.62,0,0,0,.55.64Zm-1,1c-.16.17-.34.34-.5.52a.72.72,0,0,0-.12.25.16.16,0,0,0,.11.23,1.08,1.08,0,0,0,.31,0,3.86,3.86,0,0,0,1.15-.32l0,0Zm2.67-.28.48-.49a.82.82,0,0,0,.14-.26.18.18,0,0,0-.15-.26.74.74,0,0,0-.26,0,4,4,0,0,0-1.12.31l-.06,0Zm-1,1a4,4,0,0,0,1.08.4,1.53,1.53,0,0,0,.37,0A.18.18,0,0,0,33,12.9a.46.46,0,0,0-.09-.23c-.15-.19-.32-.36-.47-.54s-.08,0-.11,0a4.13,4.13,0,0,1-.38.25Z" transform="translate(-0.55 -1.54)"/><path d="M46.16,11.94A4,4,0,0,1,45,8.66a2.68,2.68,0,0,0,.82,1.23,4.55,4.55,0,0,1,.25-3.53A5.26,5.26,0,0,1,47.5,4.61a5.28,5.28,0,0,0-.31,5.25,5.3,5.3,0,0,0,4.31,3v1.69l-.12,0a1.1,1.1,0,0,1-.14-.09.17.17,0,0,0-.23,0l-.23.2a.15.15,0,0,0,0,.09.56.56,0,0,0,0,.29c0,.08.13.14.21.2s.1.11.19.09l.08,0a.71.71,0,0,0,.14-.1.33.33,0,0,1,.3-.07v1.74h-.14a4.6,4.6,0,0,1-1.65-.26,6.89,6.89,0,0,1-2.34-1.26l0,0h0l1.64-.25v0A7.58,7.58,0,0,1,46,13.56l1.09-.08v0l-.07,0a4.88,4.88,0,0,1-1.22-.73,2.44,2.44,0,0,1-.58-.66,1.45,1.45,0,0,1-.23-.86s0-.07,0-.13a1.42,1.42,0,0,0,.69.68l.45.23Z" transform="translate(-0.55 -1.54)"/><path d="M54.89,15a15.78,15.78,0,0,0,1.58.25l-.06.05A6.82,6.82,0,0,1,53,16.87c-.19,0-.38,0-.57,0h-.07V15.13c.1,0,.19,0,.28,0a1.11,1.11,0,0,0,.16.11.17.17,0,0,0,.22,0l.24-.2a.21.21,0,0,0,0-.1.7.7,0,0,0,0-.29c0-.08-.14-.13-.21-.19s-.1-.11-.18-.1l-.1,0-.14.1-.13.05v-1.7a5.29,5.29,0,0,0,4.3-3,5.28,5.28,0,0,0-.27-5.24A5.26,5.26,0,0,1,58.16,7a4.58,4.58,0,0,1,0,2.86A2.53,2.53,0,0,0,59,8.66,4.06,4.06,0,0,1,57.85,12,2,2,0,0,0,59,11.07s0,0,0,.06v.06a1.51,1.51,0,0,1-.21.83,2.7,2.7,0,0,1-.66.73,5.19,5.19,0,0,1-1.16.68l-.06,0v0l1.09.08A7.65,7.65,0,0,1,54.89,15Z" transform="translate(-0.55 -1.54)"/><path d="M51.82,15h-.41s0,0-.08,0l-.22.16a1.86,1.86,0,0,1-.23-.26.23.23,0,0,1,0-.18,2.61,2.61,0,0,1,.23-.25l.19.13a.27.27,0,0,0,.22.07h.13V2.45a.37.37,0,0,1,0-.18c.1-.21.21-.42.31-.64l0,.05.31.63a.43.43,0,0,1,0,.11V14.7c.23.09.37-.07.54-.18a2.85,2.85,0,0,1,.23.26.23.23,0,0,1,0,.18,2.46,2.46,0,0,1-.22.25L52.67,15l-.07,0h-.4v2.42a.07.07,0,0,0,0,.08.42.42,0,0,1,.28.46.47.47,0,0,1-.39.38.55.55,0,0,1-.49-.12.41.41,0,0,1,.1-.7.13.13,0,0,0,.08-.13V15Z" transform="translate(-0.55 -1.54)"/><path d="M54.1,9.83l-.33-.59a.09.09,0,0,0-.11-.05,2.22,2.22,0,0,1-.63,0c-.05,0-.07,0-.1.05s-.19.36-.29.54a.09.09,0,0,1,0,0s-.08,0-.08-.07V7.83a1.34,1.34,0,0,0,1.16.23,1.28,1.28,0,0,0,.74-.49,1.34,1.34,0,0,0,0-1.68,1.32,1.32,0,0,0-.9-.5,1.37,1.37,0,0,0-1,.27V4.5a.08.08,0,0,1,.07-.1,2,2,0,0,1,.23-.06.1.1,0,0,0,.09-.09c0-.2.06-.41.09-.61l0,0h.66c0,.17.05.33.08.49s0,.17,0,.22.14,0,.21.07l.46.19a.09.09,0,0,0,.11,0l.49-.44.54.43-.34.58s0,.08,0,.12a2.59,2.59,0,0,1,.34.58c0,.06,0,.07.1.07h.61s.06,0,.07.06c0,.21.07.41.11.62-.19.07-.38.14-.57.19s-.14.08-.15.19a5,5,0,0,1-.11.56s0,.07,0,.09l.54.43-.06.11L56,8.56a.06.06,0,0,1-.09,0l-.59-.22s-.06,0-.09,0a2.26,2.26,0,0,1-.53.44s0,0,0,.09.08.41.13.62a.06.06,0,0,1,0,.07Z" transform="translate(-0.55 -1.54)"/><path d="M48.44,6.11l.15.26s0,.06.1.06h.25A.09.09,0,0,0,49,6.37l.12-.22a.07.07,0,0,1,.06,0l.28.1c0,.1,0,.2-.05.3s0,.07,0,.09l.22.18s0,0,.09,0l.28-.11.17.29L50,7.18a.1.1,0,0,0,0,.1,2.38,2.38,0,0,1,.05.26s0,.06.06.08a1.61,1.61,0,0,1,.29.09,2.5,2.5,0,0,1-.05.29s0,0,0,0A1.22,1.22,0,0,1,50,8s0,0-.07.05a2.15,2.15,0,0,1-.14.26.07.07,0,0,0,0,.09l.16.27-.26.22-.23-.2s-.06,0-.1,0l-.25.1s0,0-.06.07,0,.2,0,.31h-.3s0,0,0,0l-.06-.26s0-.05,0-.06l-.27-.09a.1.1,0,0,0-.07,0A2.13,2.13,0,0,0,48,9l-.27-.21.15-.27a.1.1,0,0,0,0-.09,1.4,1.4,0,0,1-.16-.26s0-.06-.09-.06h-.3l-.06-.3s0,0,0,0l.24-.08s0,0,0-.07a1.26,1.26,0,0,1,0-.28s0-.06,0-.08L47.38,7l.17-.3.28.1a.07.07,0,0,0,.1,0l.22-.19s0,0,0-.09,0-.19-.06-.3Zm.38.85a.67.67,0,1,0,.67.67A.67.67,0,0,0,48.82,7Z" transform="translate(-0.55 -1.54)"/><path d="M50.17,8.91l.15.27a.07.07,0,0,0,.08.05h.28a.08.08,0,0,0,.06,0,2.49,2.49,0,0,0,.15-.28l.33.11-.06.31s0,.06,0,.09.14.12.22.17l.09.06v1.94a.13.13,0,0,1-.09.14c-.07-.07-.16-.13-.24-.2a.05.05,0,0,0-.08,0l-.25.09a.07.07,0,0,0-.06.07c0,.08,0,.17,0,.26s0,.05,0,.05h-.3a2.56,2.56,0,0,1,0-.27c0-.06,0-.09-.09-.1L50,11.53a.07.07,0,0,0-.09,0l-.22.21-.27-.2.15-.28s0,0,0-.08a2.61,2.61,0,0,1-.17-.28.08.08,0,0,0-.08,0h-.31L49,10.54l.29-.1a.09.09,0,0,0,.06-.07,2.7,2.7,0,0,1,0-.28s0-.06,0-.07a2.23,2.23,0,0,0-.24-.19l.16-.3.29.1s.06,0,.09,0a2.11,2.11,0,0,1,.23-.19s0-.05,0-.08,0-.17,0-.26,0-.06,0-.07Zm1,1.52a.67.67,0,0,0-.67-.67.67.67,0,0,0,0,1.34A.69.69,0,0,0,51.22,10.43Z" transform="translate(-0.55 -1.54)"/><path d="M52.51,2.56V2.35A5.22,5.22,0,0,1,57.18,7a5.18,5.18,0,0,1-4.67,5.69v-.2A4.93,4.93,0,0,0,56,10.55a4.77,4.77,0,0,0,1-3.08,4.88,4.88,0,0,0-1.31-3.31A5,5,0,0,0,52.51,2.56Z" transform="translate(-0.55 -1.54)"/><path d="M51.51,2.36v.2A5,5,0,0,0,47,7.64a4.77,4.77,0,0,0,.62,2.3,4.8,4.8,0,0,0,1.62,1.76,5,5,0,0,0,2.25.8v.2a5.19,5.19,0,0,1,0-10.34Z" transform="translate(-0.55 -1.54)"/><path d="M50.42,8l.18-.15.37-.3a.13.13,0,0,0,0-.08,2.41,2.41,0,0,1-.12-.65s0,0-.05-.06l-.59-.2-.07,0,.11-.68H51c.05,0,.06,0,.09-.06s.2-.37.3-.55,0-.06,0-.09-.21-.34-.32-.5l0-.07.5-.45V8.35l-.73.27Z" transform="translate(-0.55 -1.54)"/><path d="M73.23,1.54h.24a8,8,0,0,1,1.6.25,7.76,7.76,0,0,1,2.29,1,5,5,0,0,1,.85.66l0,0-.93.75L77,4a8.26,8.26,0,0,0-2.27-1.11,6.7,6.7,0,0,0-2.13-.27,6.49,6.49,0,0,0-2.17.47,8.05,8.05,0,0,0-1.82,1.05l0,0-.86-.7L68,3.28A7.55,7.55,0,0,1,70.25,2a7.36,7.36,0,0,1,1.59-.38c.27,0,.55-.05.83-.08h.56Z" transform="translate(-0.55 -1.54)"/><path d="M81,10v.23a9.15,9.15,0,0,1-1.59,4.6,6.94,6.94,0,0,1-.89,1.06l0,.05-.76-.69,0,0a10,10,0,0,0,1.19-1.63,7.58,7.58,0,0,0,.86-2.4,7.68,7.68,0,0,0,.08-1.79c0-.32-.07-.63-.1-.94v0l1.07-.25a2.56,2.56,0,0,1,.05.27,8.26,8.26,0,0,1,.1,1V10Z" transform="translate(-0.55 -1.54)"/><path d="M74.37,17.8h.33s0,0,0,0,0,.05,0,.05-.21.09-.31.15-.33.17-.49.26a1.08,1.08,0,0,1-.66.15l-.23,0h-.07a1.17,1.17,0,0,1-.88-.09,8.29,8.29,0,0,0-.84-.43s0,0,0,0a0,0,0,0,1,0,0l.24,0h.32a.14.14,0,0,0,.09,0,1.36,1.36,0,0,0,.44-.62.71.71,0,0,0,0-.29c0-.37-.09-.73-.13-1.09s-.08-.75-.13-1.12S72,14,72,13.71l-.09-1c0-.37-.05-.74-.08-1.1,0-.15,0-.29,0-.43a3.22,3.22,0,0,1,.08-.82c0-.15.05-.29.08-.44a.77.77,0,0,0,0-.15,16.23,16.23,0,0,0-.32-1.69c0-.19-.11-.37-.16-.56a1,1,0,0,0-.27-.4,4.49,4.49,0,0,0-.65-.5l-1.4-.94-.55-.39c-.09-.07-.16-.15-.24-.2S68,5,67.88,4.87a2.26,2.26,0,0,1-.26-.16,1,1,0,0,1-.17-.18.09.09,0,0,1,0-.07.08.08,0,0,1,.07,0l.16,0L69,5.16a3,3,0,0,0,.32.12,3.07,3.07,0,0,1,.59.25,7.76,7.76,0,0,1,1.17.71.53.53,0,0,0,.24.11h.23a.66.66,0,0,1,.28,0,6.54,6.54,0,0,1,.71.45l.37.29s0,0,.08,0c.23-.18.46-.36.7-.52s.28-.16.42-.24a.4.4,0,0,1,.24-.05.78.78,0,0,0,.58-.18,6.24,6.24,0,0,1,1.54-.85,14.79,14.79,0,0,0,1.46-.66l.33-.17.17,0a0,0,0,0,1,.06,0s0,0,0,0a.63.63,0,0,1-.29.27L77.75,5a2.88,2.88,0,0,0-.35.26,2,2,0,0,1-.37.28l-1.29.86a7.62,7.62,0,0,0-.91.67l-.15.15a1,1,0,0,0-.23.44,10.1,10.1,0,0,0-.28,1.21c-.06.34-.12.67-.17,1a.55.55,0,0,0,0,.18c0,.23.09.46.12.69a2.06,2.06,0,0,1,0,.43c0,.52-.06,1-.1,1.57s-.1,1.13-.16,1.7-.13,1.16-.2,1.74c0,.26-.06.52-.1.78a.41.41,0,0,0,0,.22,1.83,1.83,0,0,0,.38.54.2.2,0,0,0,.15.06Z" transform="translate(-0.55 -1.54)"/><path d="M65.16,8.22l1,.26c0,.11,0,.22,0,.33a8.83,8.83,0,0,0-.07,1.54,7.44,7.44,0,0,0,.29,1.76,8,8,0,0,0,1.22,2.39c.2.27.43.52.64.78l0,0-.86.67-.09-.09A7.11,7.11,0,0,1,65.91,14a8.87,8.87,0,0,1-.77-2.35A8.69,8.69,0,0,1,65,9.77a9.66,9.66,0,0,1,.15-1.52Z" transform="translate(-0.55 -1.54)"/><path d="M69.35,17.38c-.3-.15-.61-.32-.9-.5a3.24,3.24,0,0,1-.6-.45l-.1-.1s0-.06,0-.08l.09,0a3.81,3.81,0,0,1,.59,0l.79.13.05,0a5.67,5.67,0,0,0,.57-.87,19.45,19.45,0,0,0,.84-1.79c.21-.5.43-1,.65-1.49l.18-.35h0v0c0,.29,0,.58,0,.87a4.2,4.2,0,0,0,.15,1.12.14.14,0,0,1,0,.15L70.3,15.83c-.22.3-.42.6-.63.91a.88.88,0,0,0-.11.24A1,1,0,0,1,69.35,17.38Z" transform="translate(-0.55 -1.54)"/><path d="M74.38,11.83a.11.11,0,0,0,0,.05c.2.38.37.77.54,1.17.27.61.53,1.22.81,1.83a7.33,7.33,0,0,0,.71,1.25c0,.08.11.14.16.21s0,0,.06,0l.77-.13.48,0,.13,0c.05,0,.06,0,0,.08l-.25.24a7,7,0,0,1-1,.65l-.25.13a1.24,1.24,0,0,1-.21-.41,1,1,0,0,0-.13-.25c-.24-.35-.49-.71-.74-1.05L74.26,14a.11.11,0,0,1,0-.13,3.63,3.63,0,0,0,.14-.8c0-.4,0-.81,0-1.21Z" transform="translate(-0.55 -1.54)"/><path d="M76.47,7.89l-1.15,0H75a.12.12,0,0,1-.12-.13.88.88,0,0,1,0-.28.26.26,0,0,1,.23-.21,3.42,3.42,0,0,1,.45,0c.44,0,.88,0,1.31,0a4.89,4.89,0,0,1,.85.08c.2,0,.41,0,.61,0l.94.06.56,0a.58.58,0,0,1,.18,0l.06,0-.06,0a1.11,1.11,0,0,1-.25,0l-.5,0c-.19,0-.38,0-.58.06s-.47,0-.7.06l-1.54.08Z" transform="translate(-0.55 -1.54)"/><path d="M69.35,7.9l-1.8-.1c-.27,0-.54-.06-.81-.08l-.53,0a1,1,0,0,1-.34-.05h0l0,0s0,0,0,0l.2,0,1.36-.07c.32,0,.65,0,1-.1a6.64,6.64,0,0,1,.77,0c.41,0,.81,0,1.21,0l.33,0a.33.33,0,0,1,.33.33v.16a.13.13,0,0,1-.14.15h-.29l-1,0Z" transform="translate(-0.55 -1.54)"/><path d="M72.25,5.6a2.21,2.21,0,0,1,.16-.78.84.84,0,0,1,.18-.24.52.52,0,0,1,.78.08,1.25,1.25,0,0,1,.22.55c0,.12,0,.25,0,.37a1,1,0,0,1-.25.74,1.55,1.55,0,0,1-.27.24.27.27,0,0,1-.3,0,1,1,0,0,1-.56-.92Z" transform="translate(-0.55 -1.54)"/><path d="M66.69,4.65l.72.78c-.09.13-.17.26-.25.39a7,7,0,0,0-.5.93,0,0,0,0,1,0,0l-1.07.12h0A6.63,6.63,0,0,1,66.69,4.65Z" transform="translate(-0.55 -1.54)"/><path d="M78.63,5.4l.67-.78a7.51,7.51,0,0,1,1.2,2.25l-.43,0-.61-.07s-.08,0-.1-.07a7.73,7.73,0,0,0-.71-1.25Z" transform="translate(-0.55 -1.54)"/><path d="M3.46,34.36c-.15.09-.29.16-.42.25a4.36,4.36,0,0,0-.92,1,4.72,4.72,0,0,0-.54.92,1.39,1.39,0,0,0-.14.48.83.83,0,0,0,0,.22c0,.16.06.32.08.48a.72.72,0,0,0,.29.48.5.5,0,0,1,.23.29,1.14,1.14,0,0,1,0,.45A.13.13,0,0,1,2,39a.14.14,0,0,1-.08-.06.5.5,0,0,1-.07-.08.08.08,0,0,0-.08,0s0,0,0,.06a.5.5,0,0,0,0,.12.84.84,0,0,0,.05.17s0,.06,0,.06A.86.86,0,0,1,1,38.87a1.15,1.15,0,0,1-.13-.48c0-.1,0-.2-.06-.3s0-.07-.09,0-.11,0-.13,0a1.51,1.51,0,0,1,0-.3,4,4,0,0,1,.26-1.13A4.05,4.05,0,0,0,1,35.47c0-.35,0-.69.05-1a.15.15,0,0,1,.11-.15L1.74,34c.08,0,.16-.09.17-.19a.38.38,0,0,0,0-.15c0-.18,0-.37-.06-.56,0-.43,0-.85-.06-1.28a5.62,5.62,0,0,0-.14-1,3.21,3.21,0,0,1,0-.93c0-.12,0-.24,0-.35A.74.74,0,0,1,2,29.09l.36-.21.08-.05-.11-.14a4.62,4.62,0,0,1-.62-.85,1.71,1.71,0,0,1-.18-.66,1,1,0,0,1,.45-.9,1.82,1.82,0,0,1,.9-.33,3.36,3.36,0,0,1,1,.08,18.27,18.27,0,0,1,1.89.52A6.7,6.7,0,0,0,7,26.84a1.11,1.11,0,0,0,.81-.15.86.86,0,0,0,.32-.36.61.61,0,0,0,0-.44c0-.07-.06-.13-.08-.19a.66.66,0,0,1,0-.15l.09,0a1.27,1.27,0,0,1,.41.36.6.6,0,0,1,0,.75L8.26,27c0,.06,0,.08,0,.1a.89.89,0,0,0,1.07-.35l0-.05a.44.44,0,0,1,0,.28,1.4,1.4,0,0,1-.24.43.63.63,0,0,1-.47.19,2.81,2.81,0,0,1-.29,0v0l.05.05a2.36,2.36,0,0,1,.36.26.55.55,0,0,1,.18.46.4.4,0,0,1-.1.22l0-.06a.57.57,0,0,0-.33-.38,5.38,5.38,0,0,0-.51-.2H7.89A.67.67,0,0,0,8,28a.83.83,0,0,1,.17.59.43.43,0,0,1,0,.13S8,28.71,8,28.67a1.13,1.13,0,0,0-.5-.49.72.72,0,0,0-.2-.09c-.08,0-.12,0-.12.1s0,.14,0,.21a.86.86,0,0,1,0,.16q0,.11-.12,0a.15.15,0,0,1,0-.06,1.73,1.73,0,0,0-.63-.63l-.11-.07h0s0,.07,0,.1a.93.93,0,0,1-.23.41l-.13.1-.07,0a.29.29,0,0,1,0-.09c0-.1,0-.2,0-.3a.91.91,0,0,0-.16-.58,0,0,0,0,1,0,0h0a.78.78,0,0,0,0,.14,1.13,1.13,0,0,1-.23.45,2,2,0,0,1-.22.19H5a.43.43,0,0,1,0-.05l.18-.49a.45.45,0,0,0,0-.28,1.24,1.24,0,0,0-.65-.7,2.47,2.47,0,0,0-.93-.25,3,3,0,0,0-.9.05.92.92,0,0,0-.47.24.68.68,0,0,0,.09,1,4.53,4.53,0,0,0,1.19.63,3.44,3.44,0,0,0,.56.09A13.84,13.84,0,0,1,6,28.71a2.69,2.69,0,0,1,.62.22,2.42,2.42,0,0,0,.9.28c.3,0,.6.07.9.07a5,5,0,0,0,1.63-.22.56.56,0,0,0,.37-.32c.15-.33.31-.66.47-1a6.36,6.36,0,0,1,1-1.55,5.71,5.71,0,0,1,1-.88,8.34,8.34,0,0,1,1-.59c.12,0,.27-.08.39-.14a1.19,1.19,0,0,0,.29-.21c.13-.11.24-.24.38-.35a1.43,1.43,0,0,1,.75-.25h.8l.95,0a1.23,1.23,0,0,0,.54-.09.88.88,0,0,0,.45-.48l.15-.4,0-.06c0,.25,0,.49,0,.74a.93.93,0,0,1-.12.43,1,1,0,0,1-.61.47,3.84,3.84,0,0,1-.81.15c-.26,0-.51.06-.76.09,0,0-.07.05-.11.07s.07.06.11.07a3.54,3.54,0,0,0,.47.07l1,.08h.57a.59.59,0,0,0,.38-.2l.31-.3s0,0,.05-.05a.93.93,0,0,1-.61,1.08,2.28,2.28,0,0,1-.77.14l-.57.05c-.09,0-.1,0,0,.1l.69,1,.7,1a1.61,1.61,0,0,1,.15.36.22.22,0,0,1-.09.27l-.12.09a3.58,3.58,0,0,1-.85.3,1.4,1.4,0,0,1-.54,0c-.16,0-.33-.06-.5-.07a.68.68,0,0,0-.29.05,3.2,3.2,0,0,0-.51.29.58.58,0,0,0-.26.51,2.7,2.7,0,0,0,0,.49c.07.5.15,1,.22,1.49a3.86,3.86,0,0,1,0,.76,6.38,6.38,0,0,1-.15.76c0,.19-.09.38-.13.58a.41.41,0,0,0,.2.48l.44.23.84.44a1.09,1.09,0,0,1,.38.36,5,5,0,0,0,.72.73A7.66,7.66,0,0,1,19.12,37a4.27,4.27,0,0,1,.3.44c.06.1,0,.15-.08.19a.72.72,0,0,1-.48,0,1.28,1.28,0,0,1-.65-.41.55.55,0,0,1-.11-.3c0-.12-.05-.17-.17-.17a.32.32,0,0,1-.32-.21,1.86,1.86,0,0,0-.52-.66.83.83,0,0,0-.4-.24,2.89,2.89,0,0,0-.5-.08c-.27,0-.55,0-.82-.06l-.32,0a.33.33,0,0,0-.31.1,1,1,0,0,1-.43.24c-.12,0-.12.05-.06.15a2.58,2.58,0,0,1,.25.42,3.71,3.71,0,0,0,.53.82,4.28,4.28,0,0,0,.81.78,1.64,1.64,0,0,0,.35.18.78.78,0,0,1,.54.57,1.74,1.74,0,0,1,.05.22c0,.09,0,.11-.09.1l-.19-.05h-.11a.28.28,0,0,0,.05.08l.15.18s0,.06,0,.06a1.06,1.06,0,0,1-.82-.24.51.51,0,0,1-.19-.35c0-.06,0-.14-.08-.16s-.11.05-.15.1l-.07.09a.66.66,0,0,1-.07-.15,2.39,2.39,0,0,0-1-1.19,1.57,1.57,0,0,0-.23-.09.35.35,0,0,1-.25-.22l-.09-.2a.53.53,0,0,0-.27-.26,8.4,8.4,0,0,1-1.13-.64L12,35.75a.29.29,0,0,0-.27,0,2.63,2.63,0,0,1-1,.24,7,7,0,0,1-1,0l-1.07-.09-.8-.08s-.07,0-.07.07v.34a.59.59,0,0,1,0,.14c0,.08-.08.1-.16,0a.74.74,0,0,1-.13-.12,6,6,0,0,1-.53-.82,4.32,4.32,0,0,0-.58-.88,1.37,1.37,0,0,0-.39-.33h0c-.12-.06-.16,0-.18.09a2.81,2.81,0,0,0,0,.41,6.46,6.46,0,0,0,.11.75,1.52,1.52,0,0,0,.37.71c.24.29.5.57.75.86.11.13.2.28.31.42a.73.73,0,0,0,.16.14,2,2,0,0,1,.7.81l0,.1h0a4.15,4.15,0,0,1-.93,0,.56.56,0,0,1-.35-.23,1.9,1.9,0,0,1-.35-.64.85.85,0,0,1,0-.17.37.37,0,0,0,0-.09c-.13.08-.18.22-.29.32l0-.14a3.48,3.48,0,0,0-.82-1.38,3.07,3.07,0,0,0-.38-.34.74.74,0,0,1-.28-.4v0c0-.16-.08-.17-.23-.12a1.58,1.58,0,0,1-.36.09.47.47,0,0,1-.53-.5v-.42S3.46,34.41,3.46,34.36Z" transform="translate(-0.55 -1.54)"/><path d="M38,38.68l-.41-.45q-3-3.25-6.05-6.52l-.16-.15a.16.16,0,0,0-.12,0,.2.2,0,0,0-.06.12,1.62,1.62,0,0,0,0,.22c0,.51,0,1,0,1.54a.34.34,0,0,1,0,.1s0,.12-.07.13-.1,0-.14-.05a.61.61,0,0,1-.16-.16L26.27,27l-2.08-3a.91.91,0,0,1-.07-.14.08.08,0,0,1,.1-.11.86.86,0,0,1,.22.15l1.38,1.47,4.47,4.77a.88.88,0,0,0,.27.19.22.22,0,0,0,.33-.15,2,2,0,0,0,.06-.42c0-.37.05-.74.08-1.11a.88.88,0,0,1,0-.16c0-.09.1-.12.17-.06a1.35,1.35,0,0,1,.25.28c.62,1,1.23,1.93,1.85,2.88,1.38,2.12,2.77,4.23,4.16,6.35l.48.72Z" transform="translate(-0.55 -1.54)"/><path d="M27.92,32.44l-.3,0s-.08,0-.08-.06c0-.19,0-.39,0-.59a2.73,2.73,0,0,0,.25.23.23.23,0,0,0,.14,0,2.11,2.11,0,0,0,.25,0c.08,0,.11,0,.11-.11a2.94,2.94,0,0,1,0-.51c0,.1.09.19.12.29s.08.12.16.09a.1.1,0,0,1,.13,0c.12.2.25.4.38.59a.1.1,0,0,1,0,.14c-.11.12-.2.26-.31.38a.09.09,0,0,0,0,.13.88.88,0,0,1,.22.79.85.85,0,0,1-1,.7.11.11,0,0,0-.11.08L26.54,37c-.33.56-.65,1.11-1,1.66a2.3,2.3,0,0,1-.33.37A.17.17,0,0,1,25,39l-1-.71,0,0a.48.48,0,0,1,0-.71c.14-.17.29-.32.44-.48.92-1,1.83-1.91,2.74-2.87a.22.22,0,0,0,.06-.14,2.37,2.37,0,0,1,.21-1,1.28,1.28,0,0,1,.5-.58l.05,0Zm.67.86h0l0,.06a1.07,1.07,0,0,0-.14.16.08.08,0,0,0,0,.08.94.94,0,0,0,.12.22.17.17,0,0,0,.24.07.19.19,0,0,0,.08-.26C28.74,33.52,28.66,33.41,28.59,33.3Zm0,.83-.41-.33a1.2,1.2,0,0,0-.15.45s0,.06.05.06A.57.57,0,0,0,28.6,34.13Z" transform="translate(-0.55 -1.54)"/><path d="M37.86,23l.28.29-.27.26L33,28.11a.17.17,0,0,0-.07.16v.32l.08-.06,2.22-2.07s0-.06,0-.12,0-.11.08-.07a1.1,1.1,0,0,1,.22.21c0,.06,0,.1-.08.09a.17.17,0,0,0-.11,0l-2.23,2.08-.46.43-.56-.77Z" transform="translate(-0.55 -1.54)"/><path d="M30.29,25.23c.07-.27.14-.52.21-.77a.14.14,0,0,0-.06-.18l-.69-.52h.9a.15.15,0,0,0,.17-.12l.22-.58.05-.1c.09.24.19.46.28.69a.14.14,0,0,0,.16.11h.83l0,0-.06,0-.63.48a.12.12,0,0,0-.06.15c.07.22.12.45.18.68a.81.81,0,0,1,0,.11l-.27-.17-.44-.28a.09.09,0,0,0-.13,0l-.58.37Z" transform="translate(-0.55 -1.54)"/><path d="M38.3,29.73a.58.58,0,0,0,.05.11c.07.19.15.36.22.55a.16.16,0,0,0,.2.14c.23,0,.45,0,.67,0h.1v0a.23.23,0,0,1-.07.07l-.59.45a.13.13,0,0,0,0,.14c.08.26.14.52.21.8L39,32l-.61-.39a.12.12,0,0,0-.16,0l-.6.39-.09.06c0-.19.09-.35.13-.52s0-.19.08-.28a.1.1,0,0,0,0-.13l-.61-.47L37,30.54h.91a.13.13,0,0,0,.15-.1c.07-.2.15-.39.22-.59Z" transform="translate(-0.55 -1.54)"/><path d="M25,30.54l-.08.07-.6.46a.12.12,0,0,0-.06.15c.07.25.14.51.21.79l-.09,0-.6-.4a.12.12,0,0,0-.16,0l-.59.38L23,32c0-.09,0-.16.05-.22l.15-.58a.12.12,0,0,0,0-.14l-.62-.46a.28.28,0,0,1-.06-.08h.9a.11.11,0,0,0,.13-.09c.07-.2.15-.4.23-.6l0-.11c0,.05,0,.09.06.12.07.19.16.38.22.57a.16.16,0,0,0,.18.11H25Z" transform="translate(-0.55 -1.54)"/><path d="M16.73,13.08c-.05.12.09.12.09.2h0l0-.18.06.07.07-.07.08.24.15-.08h0a.13.13,0,0,1,0,.06s0,0,0,.07h0l.07-.06,0,.05.06-.07s0,.12.1.09v.07h.11a.08.08,0,0,1,.11,0s0,0,0,0,.13.08.19.12a.21.21,0,0,0,.11,0c.05,0,.08,0,.09,0s0,0,0,0l.12.09a.39.39,0,0,0,.11.06l.12.08.15.08s.06,0,.05.09,0,.08-.08.08h-.81l-1.15,0-.41,0-1.17,0-1.19,0-.46,0-.91,0a5.44,5.44,0,0,0-.57,0l-1,.07-.78.05-.67.05H8.75l-1-.07-.94,0-.3,0H6.13l-.62.05-.46,0-.36,0c-.11,0-.21,0-.32,0l-1,0H3.2l0,0s0-.05,0-.05a3.06,3.06,0,0,1,.43-.13L3.87,14a1.31,1.31,0,0,0,.21-.08c.1,0,.1,0,.14-.1l0,0c.1,0,.1,0,.13-.1h0c0,.07.09.07.13,0s0,0,0-.07l0-.06.06.09,0-.15h0l0,.09.07-.07,0,.06.06,0s0,.06,0,.06a.14.14,0,0,0,.08,0s0,0,.06,0,.11,0,.17,0l.13,0,.1-.07s0-.06,0-.1.11,0,.15,0h0s0,0,.06,0,.1,0,.14-.05l0,0s.09,0,.12,0,0,0,.08,0,0,0,.06,0l.06-.07,0,.08.26,0a.41.41,0,0,0,.46,0,.54.54,0,0,1,.16-.1.59.59,0,0,1,.25-.07.36.36,0,0,0,.37-.24,1.88,1.88,0,0,1,.35-.45,1.24,1.24,0,0,0,.25-.39,3.73,3.73,0,0,0,.14-.44c0-.11.06-.21.09-.32a.5.5,0,0,0,0-.12s0,0,0,0h-.1l-.18,0h0s-.06,0-.09,0a.33.33,0,0,0-.15,0,1.43,1.43,0,0,0-.21.12l0,0,0,0,0,.09,0,0h0v.05l-.09,0,0-.1,0,.12,0,0v.1h0v-.06h0v.09l0-.07h0l0,.09h0l0,.08h0v0H7.2l0,.14,0,0c0,.11-.08,0-.1.1v-.06l-.12-.09a.44.44,0,0,0-.45.08.36.36,0,0,1-.3.06H6.09A.13.13,0,0,1,6,11.71s0-.05,0-.07l0,0,0-.05a.08.08,0,0,0,0,0l0,0a.08.08,0,0,1,0,0s0-.07,0-.11a.86.86,0,0,0,.07-.1s0,0,0-.06h0l-.3.17v.06h0c-.08-.1-.2-.07-.3-.11s-.14,0-.16-.11l0,0s-.06,0-.07-.07l.06-.06A1.42,1.42,0,0,0,5.59,11l.19-.23a.29.29,0,0,0,.09-.25s0,0,0-.05a.07.07,0,0,1,0-.11c.07-.13.14-.26.22-.38s.09-.1.13-.15a.19.19,0,0,0,0-.08.44.44,0,0,1,.1-.35s.08,0,.12,0,.07,0,.09.06a.17.17,0,0,0,.21,0,.14.14,0,0,0,.07-.08.45.45,0,0,1,.15-.19.17.17,0,0,1,.23.05c0,.06.08.06.13,0s.15-.14.23-.19.22-.11.32-.17.06-.06.09-.09l-.29-.29H7.59l0,0h0l0,0H7.52l-.08-.07h0V8.28H7.39l0-.06-.09,0h0l.05,0h0l-.08,0,.05-.07h0l-.08.06v0H7.14l0,0v0l-.08,0,.06-.06L7,8.11l0,0s-.09,0-.09-.05l-.1,0a.5.5,0,0,0-.24-.29.4.4,0,0,1-.14-.22.36.36,0,0,0,0-.1.13.13,0,0,1,.13-.16l.07,0v.06h0l.07,0,.14.05s.09,0,.12,0l.16-.2a.07.07,0,0,0,0-.1L7.09,7l-.25-.19,0,0h0c.06-.11,0-.23,0-.34s0-.12,0-.16,0,0,0,0,0,0,0-.07,0-.06.08,0a1.1,1.1,0,0,0,.4.17l.29.11a.41.41,0,0,0,.22,0,0,0,0,0,0,0,0c0-.07.06-.08.12-.07l.44.07.17.07h.07a.46.46,0,0,1,.38,0,.08.08,0,0,1,.05.1.3.3,0,0,1,0,.1.17.17,0,0,0,0,.22s.07,0,.11,0a1.52,1.52,0,0,1,.2.06.16.16,0,0,1,0,.24s0,.09,0,.12.18.09.26.15L10,7.7l.19.17,0,0,.17.17a1.41,1.41,0,0,0,.29.18l0,0s0,0,0,0a1.48,1.48,0,0,0,.27.1,2.43,2.43,0,0,0,.38,0,.57.57,0,0,0,.13,0,5.62,5.62,0,0,0,.82-.14,4.34,4.34,0,0,1,.52-.07h.46c.13,0,.26,0,.39.06l.46.17.15,0,.09.05a3,3,0,0,1,.5.27l.17.17,0,0,.14.15.34.39c0,.05.08.12.12.18l.12.22a.2.2,0,0,1,0,.25,1.52,1.52,0,0,0,.11.38c.06.14,0,.29.11.42a1.57,1.57,0,0,1,0,.37c0,.13,0,.25.05.38a3.15,3.15,0,0,0,.09.42,1.19,1.19,0,0,0,.09.15c0,.08.1.16.14.25a1.08,1.08,0,0,1,.08.19,3.31,3.31,0,0,1,0,.33Zm-9.84.37,0,0v0l.13,0v0H6.89l0,0h0l-.07.05h0Zm-.5-2.87,0,0c.06,0,.08-.06.06-.12l-.1.1v-.17c-.08,0-.12.08-.1.12A.09.09,0,0,0,6.39,10.58Zm8.14-.12v.27h0a.47.47,0,0,0,0-.26s0-.07,0-.11,0-.07,0-.11h0l0,.09,0-.24h0l0,0,0,0c0,.08,0,.16.1.21s0-.05,0-.07l0-.13h0a.08.08,0,0,0,0-.12s0-.07,0-.11h0c.09.12.05.27.09.41a.18.18,0,0,0,0-.19h0l-.06-.31h0l.05.06,0-.13a.9.9,0,0,1,.15.19,2.18,2.18,0,0,1,.09.23.35.35,0,0,0,0-.2c0-.09-.06-.18-.1-.28s.13.18.12.26,0-.08,0-.12,0-.14-.05-.22h0l.14.31-.12-.37h0l.09.27h0l-.12-.38h0l0,0v0l.16.3a1,1,0,0,0-.25-.5v.05h0l0-.17,0,0L14.9,9h0l0,.09h0l-.08-.2h0l0,.11h0l-.06-.07h0l0,.12h0l-.08-.17h0l.07.18h0a.28.28,0,0,0-.18-.2L14.6,9l-.25-.13h0l.1.07a.21.21,0,0,1,.12.21L14.47,9h0l.12.24h0a.78.78,0,0,0-.28-.34.16.16,0,0,0,.06.08.31.31,0,0,1,.13.19v0l-.11-.15h0l.1.18h0l-.1-.11h0l.12.14a.35.35,0,0,1,.09.17l-.08-.05-.06-.06h0l0,.07h0l.06.22s0,0,0,0-.11-.27-.23-.36a1.51,1.51,0,0,1,.09.18,1.06,1.06,0,0,1,.06.19h0l-.06-.09h0v.06l-.2-.42.1.09,0-.13.13,0h0l-.08-.12.05,0h0c0-.08,0-.1-.07-.12l0,.06a.15.15,0,0,1-.08-.16l0,0-.12-.19h0l0,.07h0L14,8.8h0l0,.14h0L14,8.8v.12h0l-.06-.15h0L13.9,9h0c0-.05-.05-.1-.08-.14a.57.57,0,0,0-.08-.13h0l.17.37,0,0L13.79,9h0l.07.11,0,0-.15-.21c0,.1.12.17.15.3l-.08-.05h0l.08.13h0l-.06-.06h0l.13.21-.07,0h0s0,0,0,0l.06.18s0,0,0,0,0-.1-.08-.13,0-.08,0-.13h0c0,.06,0,.15.05.18s0,.09,0,.14v.05l0,0c0,.15.08.28.11.42v.09h0l.05-.12,0,0h0s0,.07,0,.09,0,.12,0,.18a.11.11,0,0,1,0-.08s0-.06,0-.07l-.05.09-.07-.16h0c0,.08.1.14.05.24l0-.14h0s0,.06,0,.09,0,.08,0,.12,0-.12-.09-.15a0,0,0,0,0,0,0,1.3,1.3,0,0,1,.08.17s0,0,0,.05h0l0,0,0-.1h0l0,.15h0l-.05-.14h0l0,.19h0l-.08-.1h0l.06.14h0l-.05-.07h0l0,.1h0l-.06-.12a.58.58,0,0,0,0-.14.48.48,0,0,1-.1-.35s0,0,0-.07h0v.18h0l0-.12h0l0,.19-.05,0v.13h0l0-.18h0l.05.31h0l-.07-.22h0l.06.29h0l-.07-.23h0l0,.28h0L13,10.61h0A.53.53,0,0,1,13,11v-.22c0,.2,0,.2-.08.18l.09.26,0-.12h0l0,.19h0a.76.76,0,0,0,0-.15s0-.07.06-.07l0-.17h0l.14.32h0l-.09-.35h0l.15.35c-.11,0-.06.1-.07.15l-.06-.07h0l0,.1h0l-.1-.2h0l.06.13.07.12h0l-.06-.07,0,.1,0,0,0-.06h0l0,.09-.08,0,0-.11h0l.05.18h0l0-.07,0,.14h0l0-.06h0v.14c-.08,0-.07-.12-.07-.19l0-.22a3.2,3.2,0,0,0,0,.54,1,1,0,0,1-.07-.39h0l0,.37h0l0-.16,0,.2s-.1.08-.1.16l.05-.08-.05.3.07,0,0,.11h0l0,0c.06.12,0,.23,0,.34l.05-.16h0l0,.21h0l0-.23h0v.1l0-.09h0l-.05.47h0V13h0l0,0h0l0-.23h0l0,.07h0a.23.23,0,0,1,0-.18s0,.05,0,.08a.28.28,0,0,0,0,.09h0c0-.23-.06-.45-.06-.67h0l0,.22h0v-.16h0l0,.06h0a.06.06,0,0,1,0,0,.14.14,0,0,1,0-.06s0,0,0,0a1.21,1.21,0,0,1,0,.18h0l0-.18s0,0,0,0a.17.17,0,0,1,0-.17l.09.12h0l-.09-.24h0a.52.52,0,0,1,.09.43l0-.11v.3h0l0-.13h0l0,.15h0v-.08s0-.1,0-.14a.1.1,0,0,0,0-.09.52.52,0,0,1,0-.21.21.21,0,0,0,0-.19s0,0,0-.06h0s0,.05,0,.07a1.92,1.92,0,0,1,0,.22v.17a.61.61,0,0,1,0,.3.12.12,0,0,0,0,.08c.06-.19,0-.38,0-.56l0,0h0l-.06-.3h0l.06.06c0-.05,0-.14.08-.15v0h0v.15h0v-.32l0,.08h0l0-.17h0l0,.18h0l-.06-.25a.53.53,0,0,1,.12.37v-.48h0l.08.26h0v-.37h0l.06.11c.11-.06,0-.16.05-.25.1.14,0,.29.06.43h0V11h0v.22h0a.76.76,0,0,0,0-.15.94.94,0,0,1,0-.29h0l0,.42h0v-.09c0-.14,0-.27,0-.41a.29.29,0,0,1,0-.09h0s0,0,0,.06a.17.17,0,0,0,0,.07h0v-.12h0v.21h0l0-.22h0l0,.1.06-.18h0l0-.1h0v.12h0l0-.18h0ZM9.33,10h0l.22.38s0,.06,0,.09h0l-.22-.4h0a.78.78,0,0,0,.12.22c.07.09,0,.18.05.26h0L9.4,10.5h0l0,.17h0l-.07-.18a.53.53,0,0,1,0,.22l0-.08v.12h0l-.2-.25a1.39,1.39,0,0,1,.12.28h0l-.07-.08h0l.06.17C9,10.91,9,11,9,11.1S8.94,11,9,11l-.06-.12a.83.83,0,0,1,.07.27l-.1-.06.06.23h0l0-.06v.13h0l0,0,0,.17h0l-.08-.15h0c0,.07.08.14,0,.22h0l-.05-.15c0,.06,0,.12,0,.17a.75.75,0,0,1,0,.16h0l-.06-.15c0,.07,0,.13,0,.21l-.05-.05,0,.18-.07,0-.08.65h0l-.07-.19h0l0,.1h0l-.07-.08,0,.17h0l0,.07h0l0-.14c0,.16,0,.16-.08.16s0,0,0,.05a.11.11,0,0,1,0,.06s0,0-.07,0l0,0h0l.11.18,0-.14h0v.08l.07-.09.06.16v-.13l.07,0,.05.1s0,.07,0,.11h0v-.14a.25.25,0,0,1,0,.22h0v-.27h0l0,.05v-.09l0,0v-.1h0v.11h0l.14-.25h0v.07l0-.07,0,.07,0-.13,0,0a.4.4,0,0,1,0-.11c.06,0,0-.09,0-.13h0v0l-.11.08v.07H8.7l0,.09h0l0-.1-.09.15c-.08-.06-.08-.1,0-.17v0c-.06,0,0,0,0-.06h0v-.23h0l0,.23V12.1h0l0,.25a.13.13,0,0,0,0-.06c0-.08,0-.15,0-.22s0-.08.05-.09l0,.07v-.16h0l0,.08,0-.08.07,0a.2.2,0,0,1,0-.07.16.16,0,0,1,0-.07H9l.1.12,0-.1.08-.06-.06-.13h0l.09.1s0-.11,0-.15l.07,0,0-.22h0l.18.44c-.13,0-.07.06-.12.1l-.07-.27s0,.09,0,.13a.16.16,0,0,1,0,.12s-.05,0-.08.07l-.05-.07h0l0,.13,0,.05c0,.06,0,.08-.07.06v.13s0-.1.09-.06v-.12h0l0,.11h0v-.11h0l0,.06,0-.14h0l0,0v0h0l.06.12c0-.06,0-.11,0-.16l0,.15h0v-.22l.08,0v-.07c.08,0,.08,0,.1.05l0-.18h0l0,.06v-.15l.07.05v-.16h0l.05.07s0-.08,0-.12a.26.26,0,0,1,0-.1l.07.07s0,0,0-.08,0-.06,0-.06,0-.09,0-.13l-.06.12-.07,0c0,.06-.1.09-.07.17l0,0-.09.22,0-.07,0,.17h0a.5.5,0,0,1,0-.13l-.06-.12h0a.42.42,0,0,1,.06.29,1.09,1.09,0,0,1-.14-.23,2.21,2.21,0,0,1-.05-.25h0s0,.06,0,.08l0,.07h0v-.24h0l.1.22h0l-.11-.29h0l.06.07v-.09c.08,0,0,.1.06.13l.08,0L9.57,11h0l.07,0h.05a.09.09,0,0,1,0-.05.13.13,0,0,1,0-.06l0,0,.08.12-.08-.24h0l0,0h0l-.1-.2,0,0,.12.18-.1-.24h0l.09.11h0l0-.1h0l.09.06c-.05-.08-.12-.13-.09-.22H10v-.12h0l.1.1c0-.1-.13-.11-.17-.19v0l.16.1L10,10.17l0,0-.08-.06s.1,0,.08-.05h0a.31.31,0,0,1,0-.19l.17.19V9.91h0l.08.12,0-.18h0c0,.12.1.18.16.27a.37.37,0,0,0,0-.11s0-.06,0-.08-.09-.12-.09-.22l0,0v0h0l.06.18a.33.33,0,0,0,0-.1l-.06-.12a.06.06,0,0,1,0,0h.05a.18.18,0,0,1,.09.14s0,.1.09.11l-.07-.14h0l0,0h0l-.16-.19.11,0a.46.46,0,0,1,.16.26l-.07.05a.61.61,0,0,0,0,.12h0l0-.09,0,0,.06.06c0-.11,0-.14.07-.17l0-.08h0a1.32,1.32,0,0,1,.18.33h0l-.14-.32h0l0,.05c0-.09-.14-.06-.11-.16s.05-.05.07-.05.06,0,.08.05l0,0h0a1.42,1.42,0,0,1,.08.18.18.18,0,0,0,.11.16.22.22,0,0,1,.06.07c-.17,0-.17,0-.21-.14a.78.78,0,0,0-.05-.14l0,0,.09.21,0,.08v.21l0,0v.11h0l-.05-.12a.22.22,0,0,1-.05.25l0-.23h0v.11s0,0,0,.06a.36.36,0,0,0,0,.09s0,.05,0,.07l-.07,0,0-.23h0v.1l-.07,0c0-.05,0-.11,0-.14s0-.08,0-.12l0,.26h0l-.1-.25h0a1,1,0,0,1,.09.38l-.12-.2h0l0,.24h0l-.11-.23.06.21c0,.05,0,.09,0,.1l.06.23h0l0-.06h0l.06.09a.11.11,0,0,1,0,.08c0,.07,0,.06,0,.13s.08.09,0,.17,0,.08,0,.13h0l0-.07h0v.16h0l0-.18h0v.26h0a.17.17,0,0,1,.08-.21l0,.18h0l0-.07,0-.08h0v.19h0a.38.38,0,0,1,0-.23c0,.07,0,.15,0,.21a.33.33,0,0,1,0-.22h0l0,.17h0l0-.15h0s0,.05,0,.07,0,.05,0,.07a.15.15,0,0,1,0,.07h0l.08-.21h0l0,.2h0l.08-.19h0a.41.41,0,0,0,0,.11c0,.06,0,.06,0,.07l0-.17h0c0,.07,0,.15,0,.23.07-.08,0-.19.06-.27s0,.15.07.21l.09-.2h0v.17l.07-.2h0l0,.12.08-.12h0l0,.11h0l.1-.25h0v.12c0-.06,0-.13,0-.18h0v.2l.15-.22,0,.26.05-.23h0v.14l.11-.23,0,0,0,.12h0a.93.93,0,0,1,.05-.1l0-.11h0a.41.41,0,0,1,0,.22.22.22,0,0,0,0-.11c0-.09,0-.09,0-.09l0-.07-.11,0v-.25h0l0,.23h0l0-.08s-.06,0-.07-.12l-.06.21,0-.05,0,.09h0a1.46,1.46,0,0,0,0-.55h0l.1.14v-.18h0l0,.16h0l-.07-.3h0l.08.09h0L12,10.1h0l.09.18a1.55,1.55,0,0,0,0-.21.43.43,0,0,0,0-.05h0s0,0,0,.05v.08h0l0-.06h0l0,.14h0l0-.23h0l0,.17,0,0h0l0,.1,0-.07h0a.41.41,0,0,1,0,.11s0,.08,0,.12h0c0-.06,0-.13.05-.17v0s0-.06,0-.1,0,0,0-.06h0l.05.31h0a.38.38,0,0,0,0-.1.19.19,0,0,1,0-.16c.05-.05.05-.09,0-.15a.1.1,0,0,1,0,0l.13,0,0-.13h0l.09.29,0-.24h0l0,.08h0l-.09-.32h0l.07.1V9.44a.1.1,0,0,1-.08-.13l.14.13h0a.29.29,0,0,0,0-.09l-.07-.06a2.39,2.39,0,0,0-.13-.21h0l0,.18h0a.2.2,0,0,1-.08-.14.39.39,0,0,0-.12-.25l.12.26h-.05l.11.2h0s-.07,0-.08,0,0-.13-.05-.2a.19.19,0,0,0,0-.08l-.09-.19-.07-.12h0l.12.28h0c-.08-.12-.11-.28-.24-.36a.76.76,0,0,1,.08.11.56.56,0,0,1,0,.12h0l-.1-.18h0l0,.12h0l-.14-.27h0l0,.1h0L12,8.58l0,.14h0l-.07-.07v.08l-.13-.07,0,.15-.08-.05s0,0,0,0a0,0,0,0,1,0,0c0-.06-.12-.08-.05-.16l-.06,0-.05.21,0-.06c-.06.05-.07,0-.09,0a.28.28,0,0,1-.06-.08v.18h0l-.07-.06,0,.11-.14-.05,0,.09c-.1-.07-.07-.2-.18-.25l.06.09L11,8.8l0-.08c-.05,0,0,.09-.05.08L11,9h0l-.1-.22,0,.05,0,.07h0s0-.06,0-.1l0-.1h-.05l0-.23-.14.11,0,0,.09-.13-.28.18c0-.09,0-.18.08-.22a.22.22,0,0,1-.22,0c-.08,0-.12.07-.15.15l-.05-.11,0,.05h0l0-.09h0L10,8.41V8.34l-.05.06h0V8.32l-.05.09h0l-.06,0-.06-.05.09-.09v0a.32.32,0,0,0-.12.18c0,.11,0,.12-.14.06h0v.08h0l-.06.18c0-.09,0-.13.09-.42,0,0-.09.07-.08.14s0,0,0,0,0,.06-.06.09l-.06.06a.12.12,0,0,1,0,.15V8.74l-.07.09-.06-.06,0,.17c-.07,0-.06-.13-.09-.19V9s0-.11-.08-.1V9H9l0-.26h0l0,.4-.09-.1-.05,0,0,.11,0,0v.09h0l0-.08.08.45c.08.08,0,.17.09.23V9.79h0l0,.11,0-.12H9V10H9L9,9.8h0l0,.15c.09,0,0-.1.06-.14l0,.08s0,.06,0,.09h0V9.86c.08.05,0,.13,0,.16Zm-1-1.77c0-.11.1-.16.19-.22a.74.74,0,0,0,.12-.17h0c0-.07,0-.11.06-.16l.09-.1h0a.12.12,0,0,1-.15,0,.12.12,0,0,1,0-.11.34.34,0,0,1,0-.12s0,0,0-.05a.29.29,0,0,1,0-.09l0,0,0,.06h0V7.23h.08c.09,0,.1,0,.1.07s0,0,0,0a.26.26,0,0,0,0,.09l0,0a1.22,1.22,0,0,1,0-.17A.54.54,0,0,1,9,7.08c.05,0,.1-.12.19-.1h0A.18.18,0,0,0,9,7c-.08.08-.14.09-.2,0L9,6.92a.27.27,0,0,1-.22,0v0l.19,0c-.08,0-.08,0-.06-.09s-.14,0-.17,0-.13.07-.15,0H8.45l0,0H8.41s-.06,0-.08,0a.18.18,0,0,0-.19,0v.12l.06.06s.1,0,.15,0h0c.07,0,.15-.06.22,0l0,.05h0a.09.09,0,0,0-.12,0L8.32,7V6.89c-.05.06-.05.06-.08,0L8.19,7l0,0c0-.06-.05-.08,0-.13a.17.17,0,0,0,0,.17l0,0s.07,0,.1.05a.14.14,0,0,1,.07.14.13.13,0,0,1-.14.07.36.36,0,0,0,0,.25.11.11,0,0,1,0,.08H8.09s-.09,0-.12,0,0-.08,0-.13l-.18.1V7.55l-.08,0h0c0-.06.08-.11,0-.19,0,.08,0,.15,0,.22s0,0,0,0h0l0-.32-.14.17,0,.09-.08,0c.07,0,.09,0,.06.08s0,0-.06.07V7.7l-.2.15v0l.08,0,.11-.08c0,.06,0,.06-.08.14V8l.09,0,0,.11.11,0v0l-.09.09.06,0,.09-.06a.08.08,0,0,1,.12,0,.93.93,0,0,0,0,.13l-.06.06h0l.09-.06s0-.05.06,0,.09,0,.13-.06h0l0,0-.2.16h0l.25-.09-.05.11Zm-.58,2.37a.37.37,0,0,1-.14-.25c0-.06-.08-.12-.12-.17h0a.12.12,0,0,1-.12-.09L7.32,10s0,0,0,0,0,.12,0,.16a.11.11,0,0,1-.11,0,.53.53,0,0,1-.12-.1c0,.06-.06.06-.13,0L7,10l-.06,0s0-.07,0-.1,0-.06,0-.06a.17.17,0,0,1,.1,0,.08.08,0,0,0,.11,0,.46.46,0,0,1-.32-.48.31.31,0,0,0,0,.12,1.1,1.1,0,0,0,0,.16.1.1,0,0,1-.07.14l0-.18a.3.3,0,0,1-.14.19V9.58s0,.1-.09,0,0,.14-.11.14l0,.14-.06,0,0,.1h0l0-.05s0,.05,0,.08,0,.07,0,.09a.17.17,0,0,0,0,.18l.1,0,.08,0s0-.1,0-.11A.13.13,0,0,0,6.45,10c0-.07,0-.1.07-.13h.05a.09.09,0,0,0,0,0,.32.32,0,0,0,0,.09s0,.07,0,.1v.06H6.49l0,.07,0,0s.09,0,.06.07-.06,0-.09,0h0l-.1,0a.24.24,0,0,0,.17,0l0,0a.2.2,0,0,1,.16-.1.09.09,0,0,1,.11.08s0,0,0,.07l-.05,0a.32.32,0,0,0,.27.15s0,0,.06,0,0,0,0,.06,0,0,0,0a.14.14,0,0,1,0,.09s-.05,0-.06,0l0-.05,0,.23-.07,0V11c-.06-.05-.09-.13-.18-.09l.12.09c.07.05.08.05.09.13a.21.21,0,0,0,0,.11s0,0,0,0H6.94l.08.24H7a.12.12,0,0,0,0-.08.89.89,0,0,0,0-.14c.11,0,.08.08.1.13l.09,0v-.12l0,.05h.06v-.11h0l.05.1s.06,0,0-.08a.13.13,0,0,1,0-.06s0-.1.06-.09h.14l0,.07h0l0-.12v-.16a.2.2,0,0,0,0-.08c.11.06,0,.18.14.23v-.26l.08.08Zm4.64,1.11-.05,0,0,0,0,.08h0v-.06l0,.06v-.06h0c-.06,0-.11,0-.17,0l0,0h-.31l-.22,0a.13.13,0,0,0,0,.06l.09.26.08.18c0,.06.05.11.07.16l0,.05a.36.36,0,0,1,0,.11c0,.11-.05.2-.09.31s0,0,0,.06h.05s.06,0,.07,0a.07.07,0,0,1,0,.05h.71s0,0,0-.05a1.37,1.37,0,0,1,0-.19c0-.06,0-.12,0-.17a1.79,1.79,0,0,1,0-.46.65.65,0,0,1,0-.14,1.52,1.52,0,0,1,0-.21c-.06,0-.09,0-.12.05ZM9.07,12.89v0h.07l.63,0a5.36,5.36,0,0,0,1.06,0s.09,0,.1,0,0-.09,0-.12l-.12-.1a2.09,2.09,0,0,0-.22-.2s-.09,0-.11-.09-.12-.11-.18-.18a.54.54,0,0,1-.14-.16s-.07-.08-.12-.14q-.1.16-.21.3c-.05.07-.08.16-.16.2a.18.18,0,0,1-.05.07s0,0,0,0l-.15.15-.23.18Zm4.58,0,0,0,.06-.06,0,.09.1-.1,0,.11s0,0,.08-.06h.09l0-.05c.07.1.07.1.15.08s0,.07.05.07l.09,0,0,0h.09l0,0s.07,0,.09.05h0l.14,0A.19.19,0,0,0,15,13h0l.13.05a1.09,1.09,0,0,0,.44,0,.71.71,0,0,0,.21,0c.08,0,.09-.09,0-.15a.3.3,0,0,0-.27-.09,1.3,1.3,0,0,1-.43-.11.5.5,0,0,1-.19-.1.39.39,0,0,1-.21-.17.23.23,0,0,0-.05-.1.28.28,0,0,1-.09-.17.5.5,0,0,0-.21.12l-.16.13-.1.06s-.05,0-.07.06-.07,0-.08.08,0,.07-.1.05a.06.06,0,0,1,0,0,.69.69,0,0,1-.13.11A.28.28,0,0,0,13.65,12.87Zm1-1.27h0v.21h0l0-.36h0v.13h0v-.11h0a.3.3,0,0,1,0,.1s0,.06,0,.1a.31.31,0,0,0,0,.1h0l0-.36,0,.15h0V11.5l.08.08h0l0-.36h0l0,.21h0a.1.1,0,0,0,0-.07.17.17,0,0,0,0-.1v-.13h0s0,0,0,.06a.28.28,0,0,0,0,.08.5.5,0,0,0,0-.27,1.64,1.64,0,0,1,0-.23.22.22,0,0,1,0-.08s0,0-.07-.09l0,.36h0l0-.13L15,11h0l0-.15h0l0,.3h0l0-.24h0v.26h0l0-.14h0l0,.23h0V11h0a.5.5,0,0,1-.08.27s0-.07,0-.1,0-.06,0-.09h0l0,.28h0V11h0l0,.19h0l0-.16h0c.06.11,0,.2,0,.3l-.06-.18h0l0,.31h0l0-.18h0v.13h0l0-.07h0v.15h0l0-.08v.07h0l0,0h0l0,.18h0l0-.15c0,.05,0,.12,0,.17l0-.08v.1h0l0,0,0,.19h0v-.17a1.06,1.06,0,0,0,0,.5l0-.28h0l0,.14h0v-.28h0l0,.09h0l0-.08.06,0,0,.11a.3.3,0,0,0,.11-.23h0v.15h0v-.17h0l0,.11h0l0-.15h0l0,.23,0-.08,0,0Zm.94.06h0a.36.36,0,0,0,0,.09.14.14,0,0,1,0,.07l0,0s0,0,0,0,0,0,0-.05-.06,0-.07,0a.14.14,0,0,0,0-.06h0a.54.54,0,0,0,0,.1.35.35,0,0,0,0,.08.06.06,0,0,1,0,0h0s-.1-.05-.08-.13-.09,0-.05.09.05.1,0,.19l-.05-.19a.3.3,0,0,0,0,.08s0,0,0,.06a.3.3,0,0,0,0,.1.18.18,0,0,1,0,.12s0,0,0,0,0,0,0,.06v.05h0a.11.11,0,0,1,0-.05s0,0,0-.05,0,0,0,0,0,0,0,0v.09l.15,0,0-.08h0l0,.14,0-.11h0l0,.09,0-.08h0l0,.11s.07,0,.08,0,0,0,.06-.07,0,.06,0,.08,0,.06,0,.1l0-.07h0l0,.11.14,0a.06.06,0,0,0,0,0l-.09-.1s0,0,0-.06l.05,0a.08.08,0,0,1,0,0c0-.05,0-.09-.08-.09s0,0,0-.05l0,0a.74.74,0,0,1-.13-.12,0,0,0,0,1,0-.05l.1-.08L16,11.92c0,.07,0,.1-.07.08l0-.1a.28.28,0,0,1,0-.09l-.06,0,0,0h.07l0,0,0,.06,0,0c0-.08,0-.16-.11-.16s-.05,0-.08,0,0,0-.05,0l-.1-.06c0,.07.05.15,0,.23h0ZM8.4,8.92l-.09.22L8.22,9h0l0,.08c-.09,0-.06.09-.12.1L8,9.15s0,.08-.06.07-.1,0-.08-.1,0,0,0-.07l0,.2v.13l0,0,0,0,0-.12h0v.12l-.07-.05c0,.16,0,.3,0,.43h0l.11,0s0,.06,0,.1l0,.11.05,0v0h0l0-.17h0L8,10l0-.1H8l0,.08a.66.66,0,0,1,0-.24h0l.06.13V9.75c.07,0,.18,0,.17-.11s0-.07.06-.07l.05,0s0-.06,0-.08,0-.08-.07-.1H8.22a0,0,0,0,1,0,0A2.75,2.75,0,0,1,8.4,9S8.44,9,8.4,8.92ZM7.23,7h0c0,.07.11.09.06.19l0,0s0,0,.06,0,.06.07.13,0l.13.09,0,0a.18.18,0,0,1,.05-.07c.06,0,0-.09.06-.13s0,0-.07-.07h0c-.08,0-.1-.07-.1-.14a.08.08,0,0,0,0,0c-.06,0-.06-.06,0-.11l0,0-.43-.18v.05c0,.07.08.1.13.14l0,.06h-.1C7.19,6.79,7.27,6.87,7.23,7Zm-.69,4a.21.21,0,0,1,0-.07c0-.07-.07-.08-.11-.11s-.06,0-.09,0v0c0,.06-.1.06-.17,0h0c0,.05-.08,0-.1,0l0,0-.31.34,0,0,.12,0,.08,0h.06v0c0,.05,0,.05,0,.06h.17a.2.2,0,0,0,.15,0h.06l0,0h0l0,0s0-.05,0-.05.1,0,0-.12ZM11,12s0,0,0,.07v.08l0,0A.09.09,0,0,1,11,12s0,.06,0,.07a.23.23,0,0,1,0,.18s0,0,0,.06l0,.11h0s0,0,0,0l0-.06,0,.07a.11.11,0,0,1,0,.05h.07a.08.08,0,0,1,0,.08s0,.06,0,.09.15,0,.19.12l0,0,.07-.09s0,0,.06,0v.08a.15.15,0,0,0,0-.23.24.24,0,0,1-.1-.1,1.27,1.27,0,0,1-.06-.18s0-.08,0-.09L11.17,12a.22.22,0,0,1,0,.09s0,0,0,0l0,0C11.13,12,11.09,12,11,12Zm4.42-2c-.06.1,0,.2,0,.29h-.1v.35h0l-.07-.44h0a.57.57,0,0,0,0,.13.74.74,0,0,1,0,.36,1,1,0,0,0,0,.17.32.32,0,0,1,0-.21.4.4,0,0,0-.07-.35.83.83,0,0,1,0,.44l0-.12a1.16,1.16,0,0,0,0,.18.29.29,0,0,0,0,.13.74.74,0,0,1,0,.33.15.15,0,0,1,0,.07h0V10.9h0V11a.48.48,0,0,1,0,.12h0v-.25h0v.35h0l0-.16a1,1,0,0,0,0-.17.76.76,0,0,0,0-.15h0l0,.21a.09.09,0,0,0,0-.05c0-.06,0-.13,0-.16s0-.11,0-.17l0,.25h0l0-.23h0l0,.06,0-.35h0l0,.34h0c0-.05,0-.09,0-.13a.17.17,0,0,1,0-.17l0,.15h0l0-.25h0l0,.06h0v-.16a1,1,0,0,0-.1.29ZM9.14,8.15A2.8,2.8,0,0,1,9.78,8l0-.08c-.06,0-.12,0-.09-.07l0,0,.11,0-.28,0-.05,0h0s0,0,0,0l.1-.07h0l-.11,0V7.7l-.2.1H9.08l.1.08s0,0,0,.07L9,8,9,8l.05,0L9,8.11l.19,0v0Zm-1,2.6v-.1c.06,0,.08,0,.09-.05l.09,0,0-.05,0,0,0-.19h0l.05.11c0-.08-.08-.27-.12-.27l0,.05,0-.05-.12.08s-.08,0-.09.07,0,0-.05.06l0-.07H8l.15.35,0-.1ZM13.69,12h0V12l0,.15h0V12h0a.34.34,0,0,1,0,.1s0,.07,0,.1,0,.07-.08,0a.47.47,0,0,0,0,.31l0-.23h0v.2h0v-.2h0l0,.13,0-.22,0,0,0-.12h0v.1h0l0-.2h0v.09h0l0-.13,0,.13a.38.38,0,0,0,0-.33l0,.11-.06-.21c0,.09,0,.17,0,.25l0,0s0-.08,0-.12h0ZM7.26,9.38l-.08-.05c-.06-.09-.12-.16-.25-.09a.09.09,0,0,0,.1.1s0,0,.06.06a.08.08,0,0,0,.07.07h.09Zm2-2,.11,0h0s0-.07,0-.08a.17.17,0,0,0,0-.27c-.07.06-.08.08,0,.18S9.22,7.27,9.25,7.35ZM6.57,10.49a.19.19,0,0,1-.22.14H6.28c-.06,0-.08,0-.07-.07a.08.08,0,0,0,0,0l0,0s0,0,0,0a.13.13,0,0,0,0,.06s0,.05,0,.06a.07.07,0,0,0,.07,0,.21.21,0,0,1,.19,0l0,0A.13.13,0,0,0,6.57,10.49ZM7.74,6.88s0,0,.06,0a.25.25,0,0,0,0,.07V7s.06.07.1.08a.27.27,0,0,0,.12,0c-.14,0-.14,0-.2-.19l0-.05s0-.07,0-.09a.12.12,0,0,0,.05,0l0,0-.11.05s0,0,0,0S7.74,6.84,7.74,6.88ZM6.92,11.1,6.78,11,6.67,11h0l.1.18h.1l0,.07h0ZM6.33,9.62h0l.14-.11-.13-.07ZM8.79,6.54v0l.14.1,0-.15ZM6,10.55H6c0,.06-.07.12-.11.17l-.12.17h0C5.82,10.78,5.94,10.69,6,10.55Zm1.82-4L7.4,6.43h0A.67.67,0,0,0,7.79,6.52Zm.83,1.83-.22.21A.23.23,0,0,0,8.62,8.35Zm-1.85,2.9c-.09.07-.07.14,0,.22s0,0,.08,0v-.07H6.75v-.06S6.76,11.28,6.77,11.25Zm.44-3.69,0,.09,0,0,0-.06.07,0,.1,0A.17.17,0,0,0,7.21,7.56ZM7.1,13.61l.18,0C7.24,13.5,7.15,13.52,7.1,13.61Zm.83-6.72h0L8,7,8,7a.2.2,0,0,0,0-.07H7.93ZM12,13.29s-.05,0-.08,0a.17.17,0,0,0-.12.09ZM6.29,11.68s.07,0,.08-.08a.13.13,0,0,1,0-.06l0-.06h0l-.06.08A1.12,1.12,0,0,0,6.29,11.68Zm9.06,1.69c.11,0,.17,0,.17-.08A.17.17,0,0,0,15.35,13.37Zm-3.43-.14a.1.1,0,0,0-.15.07Zm-4-6.35.1,0v0l-.09,0Zm-.53.81c-.07,0-.11,0-.15.07Zm4.54,5.68v0l.15-.05,0,0A.52.52,0,0,0,11.89,13.37Zm.1.06h.18s0,0,0,0A.17.17,0,0,0,12,13.43ZM6.91,11.54v-.16C6.85,11.43,6.86,11.47,6.91,11.54Zm8.53,1.86v0c.05,0,.11,0,.15-.05v0Zm-8.38.11s-.09,0-.13.06Zm-.36-6v0l.1,0h0Z" transform="translate(-0.55 -1.54)"/><path d="M3.2,7.9l-.55-.4a.91.91,0,0,1-.16-.11.06.06,0,0,0-.08,0l-.65.47-.06,0c0-.08,0-.14.06-.2L2,7.08a.08.08,0,0,0,0-.09l-.63-.45-.07,0H2.1a.07.07,0,0,0,.08-.06l.24-.74a.34.34,0,0,0,0-.08l.21.64a.88.88,0,0,1,0,.15c0,.07,0,.09.12.09h.83l-.37.27L3,7s-.05,0,0,.1c.09.25.17.5.25.75C3.19,7.85,3.19,7.87,3.2,7.9Z" transform="translate(-0.55 -1.54)"/><path d="M9.33,10l-.06-.13c.07,0,.09.1.06.13Z" transform="translate(-0.55 -1.54)"/><path d="M9.51,9.47s.06.1,0,.08,0,0,0,.07,0,.06,0,.08,0-.16,0-.25l-.09.16h0V9.51l0-.1s-.08,0-.08-.07l0,.06h0c0-.1,0-.19,0-.28A.19.19,0,0,0,9.1,9h0l0,.11,0-.1h0l0,.08,0-.11h0l0,.16.06-.23h0a.27.27,0,0,1,0,.09.58.58,0,0,1,0,.14s0,.08,0,.11,0,.08,0,.13l0-.21h0l.07.28Z" transform="translate(-0.55 -1.54)"/><path d="M11.74,10.65l.06-.19c.1.07.08.38,0,.54l0-.25h0l0,.24,0-.05a1.66,1.66,0,0,1-.06-.16.11.11,0,0,1,0-.08l-.05-.16h0l0,.06,0,0Z" transform="translate(-0.55 -1.54)"/><path d="M9.86,9.66c-.12,0,0,.09-.07.12l-.07-.07H9.66a2.53,2.53,0,0,1,0-.28h0l.06.2s0-.06,0-.1l0-.1C9.79,9.44,9.85,9.56,9.86,9.66Z" transform="translate(-0.55 -1.54)"/><path d="M10.43,9.2a.32.32,0,0,1,.23.3l-.05,0c-.08,0-.15,0-.15-.09A1.22,1.22,0,0,0,10.43,9.2Z" transform="translate(-0.55 -1.54)"/><path d="M9.83,9.44l.08,0a.11.11,0,0,1,0,0s0,.08,0,.11,0,.12,0,.18,0-.08-.09-.05,0,0,0-.06,0-.11,0-.16l0-.09Z" transform="translate(-0.55 -1.54)"/><path d="M10.5,9.05,10.55,9a.07.07,0,0,1,.06.08s0,.08,0,.12,0,0,0,.07-.07,0-.09,0a.75.75,0,0,1-.11-.13c.08,0,.08.08.16.08Z" transform="translate(-0.55 -1.54)"/><path d="M10.91,9.31l.12.13c-.12,0-.17,0-.17-.13s0-.05,0-.05H11l0,0Z" transform="translate(-0.55 -1.54)"/><path d="M9.07,9.21l0,0H9V9.07l.06.08a.37.37,0,0,1,.05.11s0,0,0,.06h0Z" transform="translate(-0.55 -1.54)"/><path d="M10.31,8.41h.11l-.15.14s0-.07,0-.1v-.1l.05,0Z" transform="translate(-0.55 -1.54)"/><path d="M10.11,9.91c0,.05-.06.05-.09,0a.23.23,0,0,1,0-.16h0l0,.13,0,0h0v.09Z" transform="translate(-0.55 -1.54)"/><path d="M11.1,8.89l.06.14c-.08,0-.07-.14-.18-.12l0-.06.07,0Z" transform="translate(-0.55 -1.54)"/><path d="M9.8,8.68c-.06-.1,0-.19,0-.21Z" transform="translate(-0.55 -1.54)"/><path d="M12.81,9.57l-.12-.17A.13.13,0,0,1,12.81,9.57Z" transform="translate(-0.55 -1.54)"/><path d="M8.78,9.33a.22.22,0,0,1,0,.22A.34.34,0,0,1,8.78,9.33Z" transform="translate(-0.55 -1.54)"/><path d="M11,10.4a1,1,0,0,1,0-.25h0l0,.24Z" transform="translate(-0.55 -1.54)"/><path d="M9.34,9.21,9.42,9c0,.05,0,.14-.06.21Z" transform="translate(-0.55 -1.54)"/><path d="M10.65,9.63a.25.25,0,0,1-.13-.14A.17.17,0,0,1,10.65,9.63Z" transform="translate(-0.55 -1.54)"/><path d="M9.45,10.18l0-.16c.08,0,.09.06.05.16Z" transform="translate(-0.55 -1.54)"/><path d="M9.76,9.78l0,.2a.17.17,0,0,1,0-.2Z" transform="translate(-0.55 -1.54)"/><path d="M9.52,8.58c.06,0,.05,0,.05.06s0,.08-.06.09V8.58Z" transform="translate(-0.55 -1.54)"/><path d="M11,10.26l0,.2C11,10.43,10.94,10.33,11,10.26Z" transform="translate(-0.55 -1.54)"/><path d="M9.58,9.82l.07.18h0l-.06-.18Z" transform="translate(-0.55 -1.54)"/><path d="M9.86,9.79l.05.19a.16.16,0,0,1-.07-.18Z" transform="translate(-0.55 -1.54)"/><path d="M10.84,10.38l0,.18a.15.15,0,0,1,0-.17Z" transform="translate(-0.55 -1.54)"/><path d="M11.1,10.19,11,10A.14.14,0,0,1,11.1,10.19Z" transform="translate(-0.55 -1.54)"/><path d="M10.93,10.31a.22.22,0,0,1,0,.16h0l0-.16Z" transform="translate(-0.55 -1.54)"/><path d="M10,9.57a.12.12,0,0,1,0,.14h0l-.06-.14Z" transform="translate(-0.55 -1.54)"/><path d="M11.11,9.9l.07.17A.13.13,0,0,1,11.11,9.9Z" transform="translate(-0.55 -1.54)"/><path d="M11.1,8.89h0l0-.09h0l.06.13,0,0Z" transform="translate(-0.55 -1.54)"/><path d="M9.63,8.66l0-.15h0l0,.15Z" transform="translate(-0.55 -1.54)"/><path d="M12.18,9.9V10h0V9.9Z" transform="translate(-0.55 -1.54)"/><path d="M12.36,10.09l0-.15a.11.11,0,0,1,0,.14Z" transform="translate(-0.55 -1.54)"/><path d="M12.61,9.5l-.07-.12h0l.07.11Z" transform="translate(-0.55 -1.54)"/><path d="M9,9.36l0-.13C9,9.26,9,9.3,9,9.36Z" transform="translate(-0.55 -1.54)"/><path d="M8.91,11.12s.08,0,.08.09H9l-.07-.09Z" transform="translate(-0.55 -1.54)"/><path d="M9.52,10l.05.11h0l0-.11Z" transform="translate(-0.55 -1.54)"/><path d="M12.21,10.05V9.93h0v.12Z" transform="translate(-0.55 -1.54)"/><path d="M9.51,9.47h0V9.35h0a.19.19,0,0,1,0,.13Z" transform="translate(-0.55 -1.54)"/><path d="M9.5,9.11v.13h0V9.12Z" transform="translate(-0.55 -1.54)"/><path d="M12.77,9.68l0,.11h0a.12.12,0,0,1,0-.11Z" transform="translate(-0.55 -1.54)"/><path d="M9.5,10l0-.12h0s0,.06,0,.11Z" transform="translate(-0.55 -1.54)"/><path d="M12.62,9.6l-.08-.11,0,0,.07.11Z" transform="translate(-0.55 -1.54)"/><path d="M11.05,9l0,.12h0L11,9Z" transform="translate(-0.55 -1.54)"/><path d="M12.55,10.09V10h0l0,.12Z" transform="translate(-0.55 -1.54)"/><path d="M11.32,11.3l0,.13h0a.14.14,0,0,1,0-.12Z" transform="translate(-0.55 -1.54)"/><path d="M9.7,10.85l0-.08,0,0,.05.09Z" transform="translate(-0.55 -1.54)"/><path d="M9.91,8.45v.07h0l0-.07Z" transform="translate(-0.55 -1.54)"/><path d="M10.09,8.45l0,.09L10,8.45Z" transform="translate(-0.55 -1.54)"/><path d="M12.7,9.61l0-.09h0l0,.1Z" transform="translate(-0.55 -1.54)"/><path d="M9.7,8.71l0-.09h0l0,.09Z" transform="translate(-0.55 -1.54)"/><path d="M11.72,8.89l-.07-.1,0,0,.08.1Z" transform="translate(-0.55 -1.54)"/><path d="M11.12,9.64l-.07-.07,0,0,.07.07Z" transform="translate(-0.55 -1.54)"/><path d="M13.26,10.83l0,.08h0l0-.31h0l.11.19h0l-.06-.29c.11.14.15.5.06.56l-.05-.25h0c0,.06,0,.12,0,.18l0,.18h0l0-.11v0h0l0-.25Z" transform="translate(-0.55 -1.54)"/><path d="M13.59,10.93l-.06-.08h0l0,.15h0l-.05-.07,0,0,0-.13s0,0,0,0h0l-.07-.21h0l.15.35Z" transform="translate(-0.55 -1.54)"/><path d="M14,10.19,14,10h0l0,0s0,.07.06.08a.17.17,0,0,1,0,.17c-.08,0-.07-.09-.1-.14Z" transform="translate(-0.55 -1.54)"/><path d="M14.11,9.46l0-.08c.08,0,.18.23.19.39-.09-.1-.08-.22-.14-.32Z" transform="translate(-0.55 -1.54)"/><path d="M14,10a.88.88,0,0,0,0-.17s0,0,0,0,0-.06-.06-.09S14,9.9,14,10Z" transform="translate(-0.55 -1.54)"/><path d="M14.1,10a.28.28,0,0,1,.08.31Z" transform="translate(-0.55 -1.54)"/><path d="M14.11,9.46h0a2.61,2.61,0,0,0,.06.27.45.45,0,0,1,0,.11h0c0-.12-.07-.24-.1-.35Z" transform="translate(-0.55 -1.54)"/><path d="M14.81,9.91l-.07-.15s0-.1,0-.16.06,0,.06.06,0,.09,0,.13a.45.45,0,0,0,0,.11Z" transform="translate(-0.55 -1.54)"/><path d="M13.94,10.12l-.1-.32a.58.58,0,0,1,.12.32Z" transform="translate(-0.55 -1.54)"/><path d="M14.74,10.11c-.06,0-.1-.21-.05-.26a.07.07,0,0,0,0,.05l0,.14a.15.15,0,0,1,0,.07Z" transform="translate(-0.55 -1.54)"/><path d="M14.06,9.89l-.12-.25A.29.29,0,0,1,14.06,9.89Z" transform="translate(-0.55 -1.54)"/><path d="M12.82,12.52a.25.25,0,0,1,0-.19h0l0,.18Z" transform="translate(-0.55 -1.54)"/><path d="M12.84,12.1l0,.18h0l0-.18Z" transform="translate(-0.55 -1.54)"/><path d="M14.52,9.63l-.09-.15,0,0,.09.15Z" transform="translate(-0.55 -1.54)"/><path d="M14.52,11.38l0,.14h0l0-.13Z" transform="translate(-0.55 -1.54)"/></svg>