<svg xmlns="http://www.w3.org/2000/svg" viewBox="0 0 82.8 98.91"><title>Asset 3@300x</title><g id="Layer_2" data-name="Layer 2"><g id="Layer_1-2" data-name="Layer 1"><path d="M6.86,60.93C1.92,55.39-.72,49.07.24,41.51a15.61,15.61,0,0,0,4.88,7.31,27,27,0,0,1,1.44-20.9,31.52,31.52,0,0,1,8.25-10.34c-6,10.09-6.93,20.5-1.82,31.06s13.9,16.25,25.48,17.83v10a3.38,3.38,0,0,1-.72-.23,7.88,7.88,0,0,1-.85-.57,1,1,0,0,0-1.33.07c-.47.4-1,.79-1.4,1.21a.81.81,0,0,0-.24.51A4.21,4.21,0,0,0,34,79.22c.21.47.8.78,1.24,1.15s.6.67,1.12.56a1.68,1.68,0,0,0,.49-.17,4.48,4.48,0,0,0,.84-.58,2,2,0,0,1,1.78-.39V90.07l-.29,0c-.19,0-.38,0-.58,0a26.45,26.45,0,0,1-9.74-1.5A40.93,40.93,0,0,1,15,81.12l-.24-.21a.08.08,0,0,1,0,0l9.7-1.46v-.15c-6.72-1.7-13.08-4.14-18.53-8.77L12.39,70l0-.1L12,69.75A31.1,31.1,0,0,1,4.8,65.42a15.16,15.16,0,0,1-3.44-3.88A8.9,8.9,0,0,1,0,56.42c0-.21,0-.42.09-.74a8.34,8.34,0,0,0,4.08,4c.85.48,1.74.88,2.62,1.32Z"/><path d="M58.46,79.25a90.87,90.87,0,0,0,9.36,1.48l-.34.31a40.68,40.68,0,0,1-20.27,9,24.1,24.1,0,0,1-3.4.06l-.39,0V79.77c.56,0,1.12-.15,1.62.3a9.84,9.84,0,0,0,.94.65,1,1,0,0,0,1.34-.06c.47-.39,1-.78,1.4-1.2a.87.87,0,0,0,.24-.55,3.84,3.84,0,0,0-.07-1.73c-.21-.48-.81-.78-1.25-1.14s-.55-.65-1-.55a2,2,0,0,0-.56.18c-.3.17-.56.4-.86.57a5.21,5.21,0,0,1-.75.28V66.46c11.5-1.55,20.26-7.19,25.4-17.67S74.09,28,68.25,17.85a30.66,30.66,0,0,1,9.54,14,27.05,27.05,0,0,1-.13,16.9,15.23,15.23,0,0,0,4.89-7.27c1,7.54-1.67,13.86-6.58,19.44,2.63-1.19,5.31-2.31,6.71-5.18a2.46,2.46,0,0,1,.07.33c0,.12,0,.25,0,.37a8.8,8.8,0,0,1-1.28,4.93,15.48,15.48,0,0,1-3.87,4.31,31.74,31.74,0,0,1-6.84,4l-.4.18V70l6.46.45C71.45,75.08,65.13,77.52,58.46,79.25Z"/><path d="M40.32,79.07c-.84,0-1.63,0-2.42,0-.15,0-.31.16-.46.25-.43.29-.85.59-1.32.9a11.63,11.63,0,0,1-1.33-1.49,1.19,1.19,0,0,1,0-1.07,12.08,12.08,0,0,1,1.32-1.48c.4.27.78.5,1.13.78a1.73,1.73,0,0,0,1.32.4c.22,0,.44,0,.73,0v-.61q0-36,0-71.94a2.57,2.57,0,0,1,.25-1c.59-1.25,1.22-2.47,1.87-3.76a2.12,2.12,0,0,1,.18.29c.62,1.23,1.25,2.47,1.85,3.71a1.49,1.49,0,0,1,.13.67v72.6c1.36.51,2.19-.47,3.19-1.08a12.42,12.42,0,0,1,1.33,1.5,1.2,1.2,0,0,1,0,1.06,11.3,11.3,0,0,1-1.32,1.48l-1.44-1a.9.9,0,0,0-.4-.18H42.6c0,.14,0,.26,0,.38V93.39c0,.2,0,.35.22.46a2.55,2.55,0,0,1,1.69,2.71,2.79,2.79,0,0,1-2.34,2.28,3.23,3.23,0,0,1-2.91-.75A2.46,2.46,0,0,1,39.88,94a.69.69,0,0,0,.45-.74c0-4.53,0-9,0-13.58Z"/><path d="M53.8,48.44c-.66-1.18-1.32-2.32-1.94-3.47a.52.52,0,0,0-.64-.32,12.54,12.54,0,0,1-3.72,0,.48.48,0,0,0-.58.29c-.55,1.08-1.13,2.15-1.72,3.22-.06.11-.24.24-.34.22s-.47,0-.47-.39c0-3.74,0-7.49,0-11.23a.9.9,0,0,1,0-.16A8,8,0,0,0,51.33,38a7.75,7.75,0,0,0,4.4-2.89,8,8,0,0,0-.12-10,7.85,7.85,0,0,0-5.32-2.93,8,8,0,0,0-5.87,1.61c0-.2,0-.33,0-.46,0-2.15,0-4.29,0-6.44a.5.5,0,0,1,.44-.59c.45-.1.89-.27,1.35-.35a.53.53,0,0,0,.51-.55c.18-1.19.37-2.37.58-3.56,0-.11.15-.29.23-.29h3.88c.16,1,.32,1.94.47,2.89.08.45,0,1,.27,1.3s.82.27,1.23.42c.9.35,1.81.69,2.7,1.09a.49.49,0,0,0,.63-.1c1-.87,1.93-1.73,2.93-2.62l3.17,2.58c-.68,1.16-1.32,2.3-2,3.43a.51.51,0,0,0,0,.68,13,13,0,0,1,2,3.46.53.53,0,0,0,.61.39c1.2,0,2.4,0,3.6-.07.3,0,.4.09.44.38.2,1.21.42,2.42.63,3.65-1.14.39-2.24.82-3.36,1.14a1.06,1.06,0,0,0-.9,1.13,26.5,26.5,0,0,1-.63,3.29.47.47,0,0,0,.2.55c1,.81,2.07,1.64,3.15,2.5l-.37.67c-.48.86-1,1.71-1.44,2.58-.14.27-.28.29-.55.19l-3.49-1.3a.41.41,0,0,0-.53.12,13.58,13.58,0,0,1-3.12,2.63.39.39,0,0,0-.22.49c.25,1.22.48,2.44.72,3.66,0,.19,0,.33-.18.41C56.2,47.54,55,48,53.8,48.44Z"/><path d="M20.36,26.48c.3.53.59,1,.86,1.53a.5.5,0,0,0,.59.33,7.23,7.23,0,0,1,1.47,0,.5.5,0,0,0,.57-.33c.21-.44.44-.88.69-1.3a.42.42,0,0,1,.37-.15c.54.15,1.06.35,1.65.55-.1.6-.19,1.21-.31,1.8a.46.46,0,0,0,.23.54,13,13,0,0,1,1.29,1.06.42.42,0,0,0,.53.11c.55-.24,1.12-.44,1.7-.67l1,1.72c-.46.39-.91.78-1.38,1.14a.47.47,0,0,0-.18.59,13.14,13.14,0,0,1,.29,1.52.44.44,0,0,0,.37.45c.56.16,1.11.35,1.7.53-.09.61-.16,1.19-.27,1.76,0,.1-.21.22-.33.23-.52,0-1,0-1.56,0a.4.4,0,0,0-.43.28c-.26.52-.55,1-.86,1.53a.39.39,0,0,0,0,.51c.33.51.64,1,1,1.61l-1.52,1.3c-.48-.4-1-.79-1.41-1.2a.43.43,0,0,0-.57-.08,12.7,12.7,0,0,1-1.45.55.43.43,0,0,0-.36.41c-.07.6-.16,1.19-.25,1.88-.6,0-1.2,0-1.8,0-.09,0-.22-.17-.24-.28-.12-.52-.2-1-.32-1.57a.59.59,0,0,0-.3-.34c-.52-.2-1.06-.38-1.59-.53a.47.47,0,0,0-.41.09c-.45.39-.88.81-1.33,1.24l-1.6-1.21c.3-.56.58-1.1.87-1.62A.41.41,0,0,0,17,40a15.53,15.53,0,0,1-1-1.56.47.47,0,0,0-.49-.32c-.59,0-1.17,0-1.81,0-.1-.56-.22-1.15-.31-1.74,0-.09.14-.24.24-.29.47-.19,1-.35,1.43-.51a.41.41,0,0,0,.32-.4,13.17,13.17,0,0,1,.26-1.65.38.38,0,0,0-.16-.48c-.48-.35-1-.73-1.44-1.11l1-1.76c.59.21,1.14.39,1.69.6a.44.44,0,0,0,.56-.12,14.06,14.06,0,0,1,1.31-1.12.45.45,0,0,0,.2-.54c-.13-.57-.23-1.15-.35-1.77Zm2.24,5a4,4,0,1,0,4,4A4,4,0,0,0,22.6,31.5Z"/><path d="M30.56,43c.31.56.62,1.08.9,1.61a.43.43,0,0,0,.48.26c.54,0,1.09,0,1.64,0a.53.53,0,0,0,.4-.22c.31-.52.58-1.07.88-1.64l1.9.64c-.1.62-.19,1.21-.31,1.8a.45.45,0,0,0,.23.54c.44.32.84.69,1.27,1a4.54,4.54,0,0,0,.54.32v.35q0,5.55,0,11.12a.8.8,0,0,1-.5.85c-.47-.39-1-.79-1.42-1.21a.41.41,0,0,0-.51-.06,15.7,15.7,0,0,1-1.49.56.42.42,0,0,0-.34.39c-.06.52-.12,1-.21,1.55,0,.12-.16.3-.25.31-.59,0-1.17,0-1.79,0-.11-.54-.23-1.09-.31-1.64a.58.58,0,0,0-.53-.59,6.72,6.72,0,0,1-1.35-.46.39.39,0,0,0-.5.09L28,59.82,26.4,58.6c.3-.55.58-1.1.88-1.63a.38.38,0,0,0,0-.47c-.35-.53-.69-1.08-1-1.64a.41.41,0,0,0-.44-.26H24l-.36-1.92c.59-.21,1.14-.42,1.69-.6a.43.43,0,0,0,.34-.43c.06-.56.19-1.1.26-1.66a.57.57,0,0,0-.15-.43c-.45-.39-.94-.74-1.44-1.13l1-1.76c.59.21,1.16.39,1.72.61a.44.44,0,0,0,.53-.13c.42-.4.87-.78,1.33-1.14a.4.4,0,0,0,.19-.48c-.11-.49-.2-1-.31-1.48-.05-.24,0-.38.25-.46C29.5,43.42,30,43.22,30.56,43Zm6.2,9a4,4,0,1,0-4,3.94A4,4,0,0,0,36.76,52Z"/><path d="M44.42,5.46V4.25a30.16,30.16,0,0,1,15.86,6.31A30,30,0,0,1,72,31.77a30.66,30.66,0,0,1-27.6,33.67V64.26A29.31,29.31,0,0,0,64.93,52.72a28.54,28.54,0,0,0,6-18.23A28.76,28.76,0,0,0,63.2,14.92,29.29,29.29,0,0,0,44.42,5.46Z"/><path d="M38.47,4.28V5.45A29.37,29.37,0,0,0,17.53,17.58,28.73,28.73,0,0,0,11.94,35.5a29.52,29.52,0,0,0,13.24,24,29.45,29.45,0,0,0,13.31,4.75v1.19a30.72,30.72,0,0,1,0-61.15Z"/><path d="M32.08,37.78l1-.83c.74-.6,1.49-1.2,2.22-1.82a.5.5,0,0,0,.15-.43,14.9,14.9,0,0,1-.68-3.86c0-.26-.14-.32-.34-.38L31,29.31a4.54,4.54,0,0,1-.43-.15l.65-4h1c1,0,2.1,0,3.16,0a.47.47,0,0,0,.48-.32c.59-1.11,1.2-2.2,1.83-3.29a.42.42,0,0,0,0-.54c-.65-1-1.28-2-1.92-2.95l-.22-.37,3-2.67V39.68l-4.35,1.64Z"/></g></g></svg>