<svg xmlns="http://www.w3.org/2000/svg" viewBox="0 0 93.24 98.59"><title>Asset 4@300x</title><g id="Layer_2" data-name="Layer 2"><g id="Layer_1-2" data-name="Layer 1"><path d="M48,0l1.42.09a49.25,49.25,0,0,1,9.27,1.43A44.47,44.47,0,0,1,72,7.28a37,37,0,0,1,5,3.86.78.78,0,0,0,.19.13l-5.4,4.36c-.55-.39-1.07-.77-1.61-1.14A46.54,46.54,0,0,0,56.92,8a38,38,0,0,0-12.4-1.6A37.19,37.19,0,0,0,31.91,9.17,45.51,45.51,0,0,0,21.29,15.3l-.21.17-5-4.12,1.4-1.19A43.71,43.71,0,0,1,30.6,2.71,42.85,42.85,0,0,1,39.86.47c1.6-.2,3.22-.29,4.83-.43L45,0Z"/><path d="M93.24,49.49l-.09,1.34A52.86,52.86,0,0,1,83.88,77.6a42.87,42.87,0,0,1-5.14,6.19,2.1,2.1,0,0,0-.19.27L74.1,80l.21-.25a55.49,55.49,0,0,0,6.88-9.46,42.46,42.46,0,0,0,5-14,43.22,43.22,0,0,0,.47-10.41c-.13-1.83-.38-3.66-.58-5.48,0,0,0-.07,0-.13l6.26-1.45c.1.54.19,1.06.28,1.58a45.33,45.33,0,0,1,.57,5.82c0,.08,0,.16,0,.24Z"/><path d="M54.61,94.71h1.65a.49.49,0,0,1,.24.05c.1.06.25.16.24.22a.46.46,0,0,1-.22.29c-.6.29-1.23.53-1.82.83-1,.49-1.9,1-2.83,1.54A6.43,6.43,0,0,1,48,98.5c-.46,0-.92-.15-1.38-.21a.93.93,0,0,0-.37,0,6.6,6.6,0,0,1-5.15-.52,43.61,43.61,0,0,0-4.87-2.47.39.39,0,0,1-.2-.27c0-.08.15-.22.24-.23a12.81,12.81,0,0,1,1.39-.08c.62,0,1.23,0,1.85,0a.94.94,0,0,0,.55-.17A7.89,7.89,0,0,0,42.67,91a3.86,3.86,0,0,0,0-1.69l-.75-6.36q-.37-3.25-.74-6.51c-.2-1.85-.39-3.69-.58-5.54s-.38-3.74-.53-5.62c-.18-2.14-.33-4.29-.48-6.44-.06-.82-.07-1.65-.11-2.48a18.2,18.2,0,0,1,.43-4.77c.18-.86.34-1.72.46-2.58a2.66,2.66,0,0,0-.08-.88c-.5-3.29-1.07-6.58-1.88-9.82-.28-1.09-.64-2.16-.94-3.24a5.16,5.16,0,0,0-1.54-2.33,30.25,30.25,0,0,0-3.8-3c-2.72-1.83-5.46-3.63-8.18-5.46-1.08-.73-2.14-1.5-3.19-2.28-.48-.36-.89-.84-1.4-1.16-.83-.52-1.72-1-2.57-1.44a12.23,12.23,0,0,1-1.51-.93,6.52,6.52,0,0,1-1-1,.46.46,0,0,1-.06-.39.47.47,0,0,1,.39-.08,4.77,4.77,0,0,1,1,.32c2.57,1.26,5.13,2.56,7.71,3.81a13.66,13.66,0,0,0,1.88.7,21.5,21.5,0,0,1,3.43,1.45,44.72,44.72,0,0,1,6.81,4.15,3,3,0,0,0,1.41.65,7.51,7.51,0,0,0,1.34.05,3.39,3.39,0,0,1,1.63.31A25.52,25.52,0,0,1,43.92,31c.74.55,1.47,1.11,2.2,1.68a.29.29,0,0,0,.43,0c1.36-1,2.71-2,4.1-3,.76-.52,1.6-.94,2.42-1.39a2.28,2.28,0,0,1,1.42-.28,4.48,4.48,0,0,0,3.34-1,34.9,34.9,0,0,1,9-5,78.42,78.42,0,0,0,8.5-3.86c.64-.31,1.27-.68,1.92-1a4.2,4.2,0,0,1,1-.3.38.38,0,0,1,.33.09.4.4,0,0,1,0,.35,4.13,4.13,0,0,1-1.69,1.57c-.84.46-1.69.89-2.53,1.34a11.1,11.1,0,0,0-2,1.51,20.61,20.61,0,0,1-2.18,1.63c-2.5,1.68-5,3.34-7.52,5a48.17,48.17,0,0,0-5.3,3.9c-.3.26-.57.55-.86.83a5.8,5.8,0,0,0-1.32,2.6,60.36,60.36,0,0,0-1.67,7q-.54,2.94-1,5.89a3.17,3.17,0,0,0,.12,1c.23,1.33.52,2.66.69,4a13.25,13.25,0,0,1,.07,2.52c-.17,3-.33,6.07-.58,9.1-.27,3.32-.61,6.63-1,10S51,82,50.65,85.39c-.18,1.53-.38,3.06-.6,4.58a2.18,2.18,0,0,0,.23,1.26,11,11,0,0,0,2.2,3.12,1.11,1.11,0,0,0,.91.37c.4,0,.81,0,1.22,0Z"/><path d="M1,39l5.88,1.52c-.08.64-.17,1.26-.25,1.88a51.11,51.11,0,0,0-.4,9A42.12,42.12,0,0,0,7.92,61.57,44.62,44.62,0,0,0,15,75.51c1.17,1.56,2.46,3,3.69,4.53a1.33,1.33,0,0,0,.14.17l-5,3.9-.53-.51a41.23,41.23,0,0,1-8-11.33A51.17,51.17,0,0,1,.86,58.63,54.09,54.09,0,0,1,0,47.93a54.64,54.64,0,0,1,.91-8.84S1,39,1,39Z"/><path d="M25.39,92.28a59.58,59.58,0,0,1-5.25-2.92,21.9,21.9,0,0,1-3.53-2.61,6.63,6.63,0,0,1-.57-.61c-.18-.2-.14-.35.12-.43a2.13,2.13,0,0,1,.55-.1,16.31,16.31,0,0,1,3.42.23c1.53.21,3.06.48,4.59.71a.36.36,0,0,0,.29-.12,31.62,31.62,0,0,0,3.32-5C30.18,78,31.69,74.49,33.22,71Q35.1,66.6,37,62.26c.31-.69.68-1.36,1-2h.07v.25c0,1.68-.06,3.36,0,5A24.21,24.21,0,0,0,39,72.08a.85.85,0,0,1-.17.89c-2.64,3.43-5.29,6.85-7.89,10.31-1.29,1.7-2.46,3.49-3.68,5.24A4.37,4.37,0,0,0,26.61,90,6.49,6.49,0,0,1,25.39,92.28Z"/><path d="M54.65,60l.18.29C56,62.46,57,64.75,58,67c1.55,3.57,3.08,7.15,4.69,10.7A43.17,43.17,0,0,0,66.83,85c.3.41.62.8.93,1.21a.32.32,0,0,0,.36.13c1.49-.25,3-.52,4.46-.73.94-.13,1.89-.17,2.84-.23a3,3,0,0,1,.73.09c.31.08.38.26.15.49a17.15,17.15,0,0,1-1.46,1.37,37.58,37.58,0,0,1-6,3.8c-.47.26-1,.5-1.47.77-.14-.19-.29-.37-.43-.57a7.26,7.26,0,0,1-.83-1.81,5.61,5.61,0,0,0-.74-1.49C64,86,62.54,84,61.05,82c-2.34-3.11-4.73-6.18-7.11-9.25a.78.78,0,0,1-.15-.78,20.29,20.29,0,0,0,.79-4.65,69.84,69.84,0,0,0,.07-7.09Z"/><path d="M66.82,37l-6.71.22-1.39.05a1.43,1.43,0,0,1-.41,0c-.46-.08-.7-.29-.71-.75a7.84,7.84,0,0,1,.12-1.61,1.53,1.53,0,0,1,1.38-1.25,19.34,19.34,0,0,1,2.63-.25c2.54,0,5.08,0,7.62.06a36.89,36.89,0,0,1,4.91.46c1.18.17,2.39.24,3.59.33,1.81.13,3.63.23,5.45.33,1.09.06,2.19.1,3.28.17a5.28,5.28,0,0,1,1,.23,1.23,1.23,0,0,1,.35.26c-.11.09-.21.24-.34.27a8.47,8.47,0,0,1-1.48.31c-1,.07-1.92,0-2.87.1-1.13.09-2.25.27-3.38.37-1.37.14-2.74.27-4.1.34-3,.16-6,.29-9,.43Z"/><path d="M25.34,37.08c-3.67-.2-7.08-.35-10.47-.58-1.58-.1-3.15-.36-4.73-.5-1-.09-2.06-.11-3.09-.13a6.31,6.31,0,0,1-2-.31.84.84,0,0,1-.14-.06c-.09-.07-.17-.16-.26-.24.09-.08.16-.2.27-.23a5.19,5.19,0,0,1,1.15-.27c2.64-.16,5.28-.28,7.92-.44q2.83-.16,5.64-.56a39.88,39.88,0,0,1,4.51-.32c2.34,0,4.69,0,7,0a15.37,15.37,0,0,1,1.92.15A1.84,1.84,0,0,1,35,35.48a5.14,5.14,0,0,1,0,1c0,.55-.27.82-.82.85s-1.14,0-1.7,0l-5.72-.19Z"/><path d="M42.27,23.66a11.54,11.54,0,0,1,.92-4.51,4.61,4.61,0,0,1,1-1.44,3,3,0,0,1,4.56.51A7.09,7.09,0,0,1,50,21.4c.12.71.18,1.43.25,2.15a5.63,5.63,0,0,1-1.47,4.32,7,7,0,0,1-1.56,1.37,1.52,1.52,0,0,1-1.74,0,6,6,0,0,1-3.25-5.37Z"/><path d="M9.88,18.12l4.17,4.53c-.5.78-1,1.54-1.46,2.31a45.8,45.8,0,0,0-2.9,5.39.33.33,0,0,1-.3.22l-6.23.7H3A38.09,38.09,0,0,1,9.88,18.12Z"/><path d="M79.39,22.49,83.31,18a44.2,44.2,0,0,1,7,13.12l-2.48-.26c-1.2-.13-2.39-.27-3.59-.39a.56.56,0,0,1-.54-.37,52.56,52.56,0,0,0-4.13-7.31C79.49,22.66,79.45,22.58,79.39,22.49Z"/></g></g></svg>