<svg xmlns="http://www.w3.org/2000/svg" viewBox="0 0 62.22 84.61"><title>Asset 5@300x</title><g id="Layer_2" data-name="Layer 2"><g id="Layer_1-2" data-name="Layer 1"><path d="M15.19,14.76h-2c-.31,0-.43-.1-.42-.43,0-.85,0-1.71,0-2.57,0-.41.2-.43.51-.43H23.56c.43-1.51.77-3,1.27-4.4A12.63,12.63,0,0,1,28,1.76,6.12,6.12,0,0,1,30.68.14a4.83,4.83,0,0,1,4.46,1.24,12.21,12.21,0,0,1,3,4.33,20.82,20.82,0,0,1,1.57,5.35,2.43,2.43,0,0,0,.05.28h.54c3.18,0,6.37,0,9.55,0,.48,0,.6.15.59.6,0,.79,0,1.59,0,2.38,0,.34-.11.46-.45.45-.57,0-1.13,0-1.73,0,0,.14,0,.25,0,.37,0,1.82,0,3.64,0,5.46,0,.34.18.41.41.51a16.42,16.42,0,0,1,7.31,6.26,14.57,14.57,0,0,1,1.89,5.56c.65,4.06,1.36,8.11,2,12.16.73,4.26,1.46,8.52,2.16,12.79a13.87,13.87,0,0,1,.18,2.32c0,4,0,8,0,12.08a1.91,1.91,0,0,1-.21.81,11.5,11.5,0,0,1-5.06,4.58,1.92,1.92,0,0,1-.5.24c-.79.2-1,.71-.92,1.49.07,1.54,0,3.09,0,4.63v.54c-.24,0-.43,0-.62,0q-23.45,0-46.87,0c-.6,0-.6,0-.6-.6,0-1.76,0-3.52,0-5.28a.7.7,0,0,0-.33-.64c-1.32-.92-2.63-1.86-3.93-2.8a7.14,7.14,0,0,1-2-2.79,12.91,12.91,0,0,1-.94-8c.66-4,1.27-8.12,1.91-12.18q1.08-6.9,2.18-13.81c.36-2.31.67-4.63,1.14-6.92A12.76,12.76,0,0,1,10.18,24a20,20,0,0,1,2.3-1.42c.81-.49,1.64-1,2.44-1.46a.71.71,0,0,0,.31-.44c0-1.88,0-3.76,0-5.65C15.23,15,15.21,14.89,15.19,14.76Zm2.47,57.07v-.61c0-1.84,0-3.67,0-5.51,0-.87-.09-.77.75-.77H27a6.06,6.06,0,0,1,.18-.71c.36-.93.73-1.85,1.11-2.77A1.53,1.53,0,0,1,28.6,61a4.85,4.85,0,0,1,6.27,0,1.34,1.34,0,0,1,.32.43l1.63,3.53H45c.77,0,.75-.13.75.73v5.6c0,.18,0,.35,0,.56h5.37a1.06,1.06,0,0,0,.35-.09c1.07-.44,2.15-.88,3.22-1.34a1.4,1.4,0,0,0,.55-.44,4.23,4.23,0,0,0,.69-3.2c-.8-5-1.63-10.07-2.46-15.1Q52.44,45,51.34,38.44a29.42,29.42,0,0,0-1.71-7.29c-.12-.28-.23-.4-.55-.4-1.33,0-2.67,0-4,0h-.66v3.13c0,.64,0,.64-.65.64H19.67c-.34,0-.47-.09-.46-.44s0-1,0-1.46V30.82a1.32,1.32,0,0,0-.2-.05H14.2a.43.43,0,0,0-.34.22,14.79,14.79,0,0,0-1.49,4.31c0,.45-.14.9-.22,1.35Q10.92,43.82,9.7,51c-.78,4.55-1.57,9.09-2.34,13.64a9.45,9.45,0,0,0-.24,3.27c.27,1.55,1.93,3.84,4.05,3.89l2.52.06C15,71.84,16.29,71.83,17.66,71.83Z"/><path d="M24.05,51.54c-.61-.65-1.22-1.27-1.79-1.93a5.64,5.64,0,0,1-1.53-3,2.23,2.23,0,0,1,1.64-2.55,6.55,6.55,0,0,1,3.62.16,26.25,26.25,0,0,1,5.58,2.27.76.76,0,0,0,.76,0,23.45,23.45,0,0,1,6.84-2.13,5.39,5.39,0,0,1,2.66.29,2.43,2.43,0,0,1,1.32,2.72A7.28,7.28,0,0,1,41,50.65c-.45.46-1,.88-1.45,1.33.58.61,1.18,1.19,1.71,1.81a5.91,5.91,0,0,1,1.6,3,2.33,2.33,0,0,1-1.74,2.59,6.35,6.35,0,0,1-3.43-.16,24.72,24.72,0,0,1-5-1.94A4.58,4.58,0,0,0,32,57a1.13,1.13,0,0,0-.63,0c-1.67.59-3.31,1.26-5,1.78A7.56,7.56,0,0,1,22.6,59a2.44,2.44,0,0,1-2-1.52,2.77,2.77,0,0,1-.09-1.37,6.83,6.83,0,0,1,2.3-3.45C23.18,52.29,23.62,51.93,24.05,51.54Zm2.23.13C28,52.8,29.69,53.87,31.34,55a.65.65,0,0,0,.76,0c1.2-.69,2.43-1.35,3.63-2,.51-.29,1-.65,1.5-1a36.67,36.67,0,0,0-5.12-3.44.51.51,0,0,0-.42,0A36.83,36.83,0,0,0,26.28,51.67Zm4-4.21c-.93-.4-1.79-.81-2.69-1.16a11,11,0,0,0-4-.95c-1.45,0-1.89.71-1.21,2a11.87,11.87,0,0,0,2.76,3.24Zm-5.25,5c-.83.85-1.71,1.71-2.53,2.63a3.51,3.51,0,0,0-.63,1.25.8.8,0,0,0,.59,1.15,4.66,4.66,0,0,0,1.53.15A19.14,19.14,0,0,0,29.86,56a.53.53,0,0,0,.13-.1ZM38.55,51c.79-.8,1.64-1.6,2.41-2.46a4.16,4.16,0,0,0,.73-1.3.93.93,0,0,0-.76-1.34,5.33,5.33,0,0,0-1.32-.08,19.62,19.62,0,0,0-5.67,1.58,2,2,0,0,0-.3.17ZM33.3,56a21.11,21.11,0,0,0,5.43,2,6.79,6.79,0,0,0,1.91.05A.82.82,0,0,0,41.42,57,2.59,2.59,0,0,0,41,55.81c-.76-1-1.59-1.84-2.39-2.76-.21-.24-.37-.08-.55,0-.63.43-1.25.87-1.9,1.27C35.21,54.91,34.28,55.43,33.3,56Z"/></g></g></svg>