<svg xmlns="http://www.w3.org/2000/svg" viewBox="0 0 89.2 84"><title>Asset 7@300x</title><g id="Layer_2" data-name="Layer 2"><g id="Layer_1-2" data-name="Layer 1"><path d="M80.84,82l-2.15-2.31-31.55-34a9.16,9.16,0,0,0-.84-.81c-.17-.12-.47-.25-.6-.18a.89.89,0,0,0-.32.6,9.14,9.14,0,0,0,0,1.17c0,2.68,0,5.36,0,8a1.54,1.54,0,0,1,0,.48c-.09.26-.18.65-.36.71s-.56-.1-.77-.27a4,4,0,0,1-.79-.85Q31.69,37.81,20,21L9.1,5.48a3,3,0,0,1-.39-.73c-.13-.38.15-.7.52-.54A3.47,3.47,0,0,1,10.38,5c2.42,2.55,4.81,5.12,7.21,7.68Q29.23,25.08,40.88,37.5a5.08,5.08,0,0,0,1.43,1A1.1,1.1,0,0,0,44,37.72a12.07,12.07,0,0,0,.31-2.17c.15-1.92.27-3.86.41-5.78a4.27,4.27,0,0,1,.14-.87c.14-.47.48-.61.85-.29A7.32,7.32,0,0,1,47,30c3.24,5,6.42,10.06,9.68,15.06q10.8,16.56,21.67,33.1c.83,1.26,1.68,2.51,2.52,3.76Z"/><path d="M28.55,49.49c-.53,0-1.06,0-1.59-.11-.15,0-.4-.17-.41-.27,0-1,0-2,0-3.11.45.41.86.84,1.32,1.21a1.35,1.35,0,0,0,.73.24c.44,0,.88-.1,1.31-.11s.57-.16.56-.59a18.39,18.39,0,0,1,.09-2.66c.23.5.48,1,.67,1.51s.37.6.82.45a.49.49,0,0,1,.65.25c.66,1,1.34,2,2,3.05a.5.5,0,0,1,0,.72c-.56.65-1.06,1.35-1.62,2a.46.46,0,0,0,0,.67,4.67,4.67,0,0,1,1.13,4.12,4.42,4.42,0,0,1-5.05,3.67c-.35,0-.45.17-.59.39L21.34,73.14c-1.72,2.89-3.41,5.8-5.18,8.67a11.41,11.41,0,0,1-1.7,1.92,1,1,0,0,1-1.34,0C11.42,82.5,9.74,81.26,8,80l-.21-.21a2.5,2.5,0,0,1-.12-3.7c.74-.86,1.55-1.66,2.33-2.49q7.14-7.47,14.27-15a1.2,1.2,0,0,0,.29-.77,12.62,12.62,0,0,1,1.09-5.07,6.69,6.69,0,0,1,2.65-3l.23-.16ZM32,54h-.22c-.07.09-.12.19-.2.28-.24.28-.51.55-.73.85a.49.49,0,0,0-.07.42,6.32,6.32,0,0,0,.64,1.14,1,1,0,0,0,1.27.4,1,1,0,0,0,.41-1.36A17.55,17.55,0,0,0,32,54Zm0,4.3L30,56.63a5.87,5.87,0,0,0-.8,2.34.4.4,0,0,0,.26.3A2.94,2.94,0,0,0,32.06,58.3Z"/><path d="M80.4.41,81.86,2,80.43,3.31,55.22,26.93a1,1,0,0,0-.36.84c0,.52,0,1,0,1.68a4.93,4.93,0,0,0,.44-.33L66.86,18.35a.53.53,0,0,0,.17-.64c-.13-.36.13-.59.43-.38a4.46,4.46,0,0,1,1.12,1.09c.23.33,0,.52-.38.49a.86.86,0,0,0-.58.19L56,30l-2.43,2.26-2.9-4.05Z"/><path d="M40.9,11.92c.38-1.45.7-2.75,1.07-4a.73.73,0,0,0-.31-.94c-1.18-.86-2.32-1.76-3.57-2.72l.51,0c1.4,0,2.8,0,4.2,0a.76.76,0,0,0,.87-.62c.35-1,.76-2,1.15-3,.06-.15.13-.29.23-.53.51,1.27,1,2.44,1.47,3.63a.75.75,0,0,0,.86.56c1.43,0,2.86,0,4.29,0l.13.15a2,2,0,0,0-.33.15c-1.1.84-2.19,1.69-3.3,2.51a.61.61,0,0,0-.28.77c.34,1.19.64,2.39,1,3.58,0,.16.07.31.12.57L47.55,11c-.76-.49-1.51-1-2.25-1.46a.54.54,0,0,0-.7,0c-1,.67-2,1.31-3,2Z"/><path d="M82.66,35.37l.26.6c.39,1,.81,1.88,1.14,2.85a.94.94,0,0,0,1.09.75c1.15-.06,2.31,0,3.46,0h.53l.06.12a3.23,3.23,0,0,1-.37.37c-1,.78-2,1.57-3.06,2.33a.6.6,0,0,0-.26.74c.38,1.34.72,2.69,1.1,4.13L86.16,47c-1-.68-2.11-1.34-3.15-2a.67.67,0,0,0-.87,0c-1,.69-2.07,1.35-3.1,2l-.51.31c.25-1,.48-1.85.7-2.72.13-.49.24-1,.4-1.46a.55.55,0,0,0-.24-.7c-1.07-.79-2.12-1.61-3.18-2.42l-.47-.38c.28,0,.45,0,.62,0,1.38,0,2.76,0,4.14,0a.66.66,0,0,0,.75-.51C81.61,38,82,37,82.42,36,82.48,35.79,82.55,35.63,82.66,35.37Z"/><path d="M13.53,39.58,13.1,40c-1,.8-2.08,1.61-3.14,2.39a.65.65,0,0,0-.3.81c.38,1.33.71,2.66,1.09,4.1-.21-.12-.34-.18-.47-.27-1-.67-2.11-1.34-3.15-2a.64.64,0,0,0-.83,0c-1,.68-2,1.33-3.07,2l-.54.32c.11-.46.2-.8.28-1.15.26-1,.51-2,.8-3a.56.56,0,0,0-.25-.7C2.46,41.59,1.4,40.77.34,40A1,1,0,0,1,0,39.55H.5c1.4,0,2.8,0,4.2,0a.6.6,0,0,0,.67-.47c.38-1.06.79-2.1,1.19-3.15.06-.16.13-.32.24-.58l.29.66C7.48,37,7.91,38,8.27,39a.8.8,0,0,0,.93.6c1.26,0,2.51,0,3.76,0Z"/></g></g></svg>