<svg xmlns="http://www.w3.org/2000/svg" viewBox="0 0 96.63 96.66"><title>Asset 8@300x</title><g id="Layer_2" data-name="Layer 2"><g id="Layer_1-2" data-name="Layer 1"><path d="M60.84,45.3c0,1.35,0,2.75,0,4.14a.81.81,0,0,1-.49.57,3.1,3.1,0,0,1-1,.05H42.49c-.48,0-1,0-1.52.09a22.06,22.06,0,0,1,.33,2.48q.08,3.61,0,7.25a8.76,8.76,0,0,1-.42,2.25c-.32,1-.07,1.44,1,1.44,5.78,0,11.57,0,17.35,0a2.74,2.74,0,0,0,2.39-1,12.23,12.23,0,0,1,1.26-1.15c.14,1.45.25,2.63.36,3.81.08.91-.32,1.3-1.26,1.3-8,0-15.94,0-23.92,0a7.18,7.18,0,0,1-2-.6V50.27c.54.5,1,.87,1.35,1.27a1,1,0,0,0,1.68,0c.41-.42.86-.79,1.42-1.29l-4.5-.7.06-1H60v-.31H59c-6.83,0-13.66,0-20.49,0a8.45,8.45,0,0,1-2.16-.43c-.16,0-.22-.41-.42-.83H60v-.29H59c-6.33,0-12.67,0-19,0-1.31,0-2.62-.17-4-.27l.06-.94H41c5.94,0,11.89,0,17.84,0A18.39,18.39,0,0,0,60.84,45.3Z"/><path d="M36.08,44.78V30.08a6.46,6.46,0,0,1,.86.77,2.61,2.61,0,0,0,2.39,1c6.53,0,13.06,0,19.59,0a3.32,3.32,0,0,0,3-1.26,11.64,11.64,0,0,1,1-.93c.14,1.47.25,2.67.36,3.86.08.94-.39,1.28-1.29,1.28H50.82c-2.65,0-5.29,0-7.94,0-1.31,0-1.55.24-1.56,1.54,0,2.48,0,5,0,7.44,0,1.2-.18,1.41-1.37,1.36S37.38,44.91,36.08,44.78Z"/><path d="M88.58,33.52c-.77-.53-1.57-1-2.28-1.6a1.58,1.58,0,0,0-2.28,0,7.39,7.39,0,0,1-1.27.91c-.29.15-.68,0-1,.13s-.74.23-1.15.36c.4-1.17.79-2.33,1.2-3.49a1.15,1.15,0,0,0-.51-1.55c-1.09-.74-2.09-1.6-3.12-2.41l.09-.25c.66.19,1.32.36,2,.57,1,.31,1.9.68,2.87.94a4.5,4.5,0,0,0,1.31-.06c-.16-.51-.28-1-.49-1.53-.07-.17-.35-.25-.59-.41l1.32-4.23c.55,1.52,1,2.85,1.48,4.19A1.82,1.82,0,0,1,86,26c-.18.77,0,1,.78.75,1.28-.36,2.56-.75,3.84-1.11a.57.57,0,0,1,.27,0A5.76,5.76,0,0,1,90.57,27a2.52,2.52,0,0,1-.83.79c-2.43,1.78-2.28,1.38-1.35,4.19.15.46.26.93.39,1.39Z"/><path d="M5.35,25.55c1.53.5,3.06,1,4.59,1.5.53.18,1.17.71,1.51-.08a1.12,1.12,0,0,0-.7-1.59,1.68,1.68,0,0,1-.36-.28l1.31-4.21c.55,1.54,1.05,2.88,1.5,4.24.08.24-.09.56-.12.84s-.09.65,0,.72a1.12,1.12,0,0,0,.79,0c1.26-.34,2.5-.72,3.75-1.08a1.71,1.71,0,0,1,.45,0,7.6,7.6,0,0,1-.89,1.78,12.51,12.51,0,0,1-1.86,1.42,1.28,1.28,0,0,0-.4,1.58c.32,1,.62,1.95.94,2.93l-.22.19c-.78-.54-1.6-1-2.33-1.63a1.55,1.55,0,0,0-2.2,0,7,7,0,0,1-1.27.91c-.3.15-.72,0-1.07.12a9.06,9.06,0,0,0-1.12.42l1.17-3.49a1.15,1.15,0,0,0-.49-1.56c-1.09-.73-2.09-1.59-3.13-2.4Z"/><path d="M13.14,69.07,18,67.64l.18.25-.74.56.23.17a4.2,4.2,0,0,1-.57,1,8.08,8.08,0,0,1-1.34,1A1.57,1.57,0,0,0,15,72.77c.34.9.59,1.82.88,2.74l-.2.15c-.84-.59-1.71-1.13-2.5-1.77a1.35,1.35,0,0,0-1.93,0,7.78,7.78,0,0,1-1.1.81c-.45.26-.81.93-1.52.34-.13-.1-.64.26-1,.42.42-1.2.81-2.37,1.24-3.53a1.19,1.19,0,0,0-.5-1.57,20.36,20.36,0,0,1-3-2.58c.39.09.78.15,1.16.27,1.26.42,2.53.84,3.78,1.31.55.21,1.09.31,1.32-.29.08-.21-.4-.66-.67-1a3.17,3.17,0,0,0-.68-.43l1.48-4.56C12.31,65.14,13.66,66.79,13.14,69.07Z"/><path d="M91,67.64c-.2.6-.79.81-.48,1.52.06.13-.65.64-1,.92-1.91,1.4-1.91,1.4-1.16,3.66a5.75,5.75,0,0,1,.35,1.91c-.82-.57-1.69-1.09-2.46-1.73a1.39,1.39,0,0,0-2,0,11.39,11.39,0,0,1-1.27.92c-.37.23-.69.72-1.28.23-.13-.11-.66.24-1.06.4q.61-1.71,1.23-3.39a1.32,1.32,0,0,0-.6-1.8c-1-.68-2-1.52-3.11-2.4a2.34,2.34,0,0,1,.63,0c1.49.48,3,.94,4.44,1.48.54.19,1.07.36,1.37-.21s-.31-.8-.7-1.05l-.64-.4,1.49-4.6c.56,2.06,2,3.69,1.42,6Z"/><path d="M46.68,4.54,48.16,0c.66,2,1.92,3.66,1.49,5.9l4.84-1.4.09.22-.67.62.2.14c-.19.35-.29.8-.58,1C50.61,8.63,51,8.05,52,11.31a6.63,6.63,0,0,1,.16.89l-.24.16c-.67-.48-1.38-.92-2-1.45a1.63,1.63,0,0,0-2.43,0,5.55,5.55,0,0,1-1.28.89,4.11,4.11,0,0,1-1,.12c-.37.08-.73.22-1.08.33.38-1.16.84-2.37,1.17-3.62A1.47,1.47,0,0,0,45,7.38c-1-.9-2.17-1.7-3.2-2.75.69.17,1.39.31,2.06.53,1,.32,1.94.78,2.94,1,.38.1.85-.15,1.28-.24a8.66,8.66,0,0,0-.68-1A2.9,2.9,0,0,0,46.68,4.54Z"/><path d="M87.14,53.88l-1,.67c.48-1.35.83-2.46,1.28-3.54a1.28,1.28,0,0,0-.59-1.78c-1-.71-2-1.51-3-2.27l.1-.26,4.31,1.38c.12,0,.23.11.35.16.49.21,1,.5,1.38-.12s0-1-.63-1.29a4.07,4.07,0,0,1-.53-.33l1.44-4.4c.76,2,2,3.73,1.32,6l5-1.45c-.2.58-1,.75-.58,1.51,0,.08-.39.47-.66.64-2.75,1.86-2.06,1.85-1.39,4.12q.16.57.3,1.14a2.57,2.57,0,0,1-.09.54c-.71-.5-1.33-.91-1.92-1.36-1.43-1.08-1.5-1.09-3,0a6.11,6.11,0,0,1-1,.72,4.38,4.38,0,0,1-1.1.21Z"/><path d="M33.32,10.2a8.78,8.78,0,0,1-.39,1.37,2,2,0,0,1-.65.69c-2.61,2-2.36,1.42-1.36,4.54A2.79,2.79,0,0,1,31,18.12c-.83-.59-1.68-1.15-2.48-1.78a1.35,1.35,0,0,0-1.86,0c-.44.34-.89.67-1.35,1s-.7.77-1.25.17c-.09-.09-.62.22-1,.35.41-1.26.79-2.46,1.21-3.66A1,1,0,0,0,23.92,13c-1.09-.79-2.14-1.62-3.21-2.44l.11-.26c1.46.46,2.93.92,4.38,1.4.59.19,1.28.8,1.69-.08s-.45-1.07-1-1.39c0,0-.09-.1-.17-.18l1.36-4.46c.59,2.08,2,3.73,1.32,6.08Z"/><path d="M23.12,90.78c.4-1.23.79-2.39,1.18-3.56a1.06,1.06,0,0,0-.45-1.39,19.32,19.32,0,0,1-3.05-2.58c.7.18,1.4.33,2.09.54.9.29,1.79.62,2.67,1,.51.2,1.05.42,1.34-.23s-.11-1-.65-1.21a3.93,3.93,0,0,1-.53-.32l1.37-4.51c.59,2.08,2,3.73,1.32,6.08l4.94-1.43a8.55,8.55,0,0,1-.42,1.37,2,2,0,0,1-.64.7c-2.62,2-2.37,1.42-1.37,4.53A2.83,2.83,0,0,1,31,91.06c-.83-.58-1.68-1.15-2.48-1.77a1.34,1.34,0,0,0-1.86,0c-.43.34-.89.67-1.35,1s-.69.77-1.25.18C24,90.34,23.48,90.65,23.12,90.78Z"/><path d="M48.16,84c.66,2.16,2,3.86,1.46,6.16l5.14-1.47c-.5.61-1.2.77-.85,1.54.05.11-.37.49-.63.67-2.73,1.9-2.12,1.57-1.37,4.17a4.31,4.31,0,0,1,.22,1.57,27,27,0,0,1-2.24-1.55,1.64,1.64,0,0,0-2.43,0,12.87,12.87,0,0,1-1.28.91,1.37,1.37,0,0,1-.62.23c-.43,0-.87,0-1.34,0a29.41,29.41,0,0,1,1-3.06,1.41,1.41,0,0,0-.66-2,16.54,16.54,0,0,1-2.86-2.42c1.59.5,3.17,1,4.75,1.52.52.18,1.11.62,1.43-.11a1.13,1.13,0,0,0-.58-1.64,2.38,2.38,0,0,1-.42-.3Z"/><path d="M10,54.59c-.79-.56-1.6-1.1-2.36-1.69a1.46,1.46,0,0,0-2,0c-.43.35-.89.67-1.35,1s-.65.61-1.2.2c-.17-.13-.71.23-1,.34.4-1.19.83-2.47,1.25-3.76a.83.83,0,0,0-.36-1.13A17.31,17.31,0,0,1,0,47a2.35,2.35,0,0,1,.65,0c1.3.41,2.6.84,3.89,1.29.51.17,1.08.46,1.35-.2a1,1,0,0,0-.63-1.41,2.83,2.83,0,0,1-.54-.35L6,42.09c.53,2,2.14,3.63,1.43,6l5-1.43a9.1,9.1,0,0,1-1,1.93c-.51.57-1.32.87-1.82,1.45a2,2,0,0,0-.27,1.49,28.53,28.53,0,0,0,.92,2.94Z"/><path d="M73.13,18.11c-.82-.59-1.65-1.15-2.44-1.76a1.36,1.36,0,0,0-1.87,0,7.23,7.23,0,0,1-1,.73c-.51.26-.87,1.07-1.68.45-.13-.1-.63.29-1,.46.42-1.2.79-2.42,1.26-3.59.31-.74.11-1.14-.54-1.57a18.14,18.14,0,0,1-2.91-2.49,13.27,13.27,0,0,1,1.42.31c1.17.39,2.32.85,3.51,1.19.35.09.79-.14,1.19-.23-.14-.43-.15-1.12-.42-1.24-.84-.37-.74-.83-.47-1.51.39-1,.69-2.11,1.08-3.31.6,2,1.92,3.72,1.33,6.06l5.28-1.54c-.51.66-1.25.87-.86,1.63,0,.08-.42.45-.68.64-2.69,1.91-2.1,1.5-1.4,4.1.14.52.29,1,.43,1.56Z"/><path d="M69.26,78.46c.58,2,1.88,3.77,1.34,6.08L75.87,83c-.52.66-1.25.87-.87,1.64,0,.08-.42.44-.68.63-2.69,1.91-2.1,1.5-1.4,4.1a5.21,5.21,0,0,1,.26,1.69c-.83-.59-1.68-1.16-2.5-1.78a1.37,1.37,0,0,0-1.87,0,15.75,15.75,0,0,1-1.35,1c-.38.23-.67.75-1.28.25-.14-.12-.69.26-1,.39.38-1.13.71-2.33,1.19-3.46a1.13,1.13,0,0,0-.5-1.66,16.86,16.86,0,0,1-2.91-2.49,13.29,13.29,0,0,1,1.42.32c1.18.38,2.33.85,3.52,1.18.34.1.78-.14,1.18-.23-.13-.43-.15-1.12-.42-1.24-.85-.38-.73-.83-.47-1.51C68.56,80.76,68.86,79.69,69.26,78.46Z"/></g></g></svg>