<svg xmlns="http://www.w3.org/2000/svg" viewBox="0 0 68.76 59.87"><title>Asset 6@300x</title><g id="Layer_2" data-name="Layer 2"><g id="Layer_1-2" data-name="Layer 1"><path d="M10.58,42.17c-.54.32-1.05.57-1.52.9a15.2,15.2,0,0,0-3.32,3.47,17.08,17.08,0,0,0-2,3.34,4.76,4.76,0,0,0-.49,1.74,5.46,5.46,0,0,0,.09.79c.1.58.22,1.15.32,1.74a2.49,2.49,0,0,0,1.06,1.76,1.67,1.67,0,0,1,.8,1,3.58,3.58,0,0,1,0,1.66.46.46,0,0,1-.24.3c-.07,0-.22-.11-.31-.2a3.73,3.73,0,0,0-.26-.3.33.33,0,0,0-.25-.09.29.29,0,0,0-.15.24,1.65,1.65,0,0,0,0,.44c.06.21.13.41.2.62s0,.2-.14.22a3.19,3.19,0,0,1-2.82-1.29,4.35,4.35,0,0,1-.48-1.74C1,56.45,1,56.09.9,55.73s-.15-.26-.33-.07-.42.18-.47-.13A3.84,3.84,0,0,1,0,54.46,14.88,14.88,0,0,1,1,50.35a13.57,13.57,0,0,0,.84-4.17c.07-1.26.14-2.51.2-3.76a.57.57,0,0,1,.38-.57c.66-.28,1.31-.61,2-.93.3-.15.6-.32.64-.71a3.15,3.15,0,0,0,0-.52c-.07-.68-.18-1.37-.22-2-.09-1.55-.13-3.1-.22-4.64A20.8,20.8,0,0,0,4,29.4,11.46,11.46,0,0,1,3.88,26c0-.42.09-.84.16-1.26A2.63,2.63,0,0,1,5.26,23c.41-.28.85-.52,1.28-.77l.33-.2-.44-.51a14.53,14.53,0,0,1-2.23-3.1A5.68,5.68,0,0,1,3.55,16a3.76,3.76,0,0,1,1.63-3.26,6.27,6.27,0,0,1,3.28-1.22,12.61,12.61,0,0,1,3.62.29A69.27,69.27,0,0,1,19,13.75a25.88,25.88,0,0,0,4.61,1.05,4.1,4.1,0,0,0,3-.53A3.1,3.1,0,0,0,27.67,13a2.05,2.05,0,0,0,0-1.63c-.1-.23-.21-.45-.3-.69s-.08-.31-.13-.53a2.08,2.08,0,0,1,.32.1,4.66,4.66,0,0,1,1.49,1.3,2.23,2.23,0,0,1-.15,2.76c-.27.34-.58.64-.87,1s-.17.28.11.38A3.26,3.26,0,0,0,32,14.32a1.31,1.31,0,0,1,.13-.16,1.76,1.76,0,0,1-.09,1,4.51,4.51,0,0,1-.88,1.55,2.22,2.22,0,0,1-1.69.72c-.35,0-.71,0-1.07,0l0,.07.2.15a12.51,12.51,0,0,1,1.31.95,2,2,0,0,1,.64,1.67,1.32,1.32,0,0,1-.37.8,1.1,1.1,0,0,1-.13-.21,2.12,2.12,0,0,0-1.23-1.38c-.59-.28-1.23-.49-1.85-.73-.05,0-.12,0-.27,0a3.8,3.8,0,0,0,.21.41,3.29,3.29,0,0,1,.63,2.16,1.4,1.4,0,0,1-.19.46c-.12-.1-.31-.18-.37-.31a4,4,0,0,0-1.82-1.79,3,3,0,0,0-.71-.31c-.3-.1-.44,0-.44.34s.05.51.06.77a1.87,1.87,0,0,1,0,.58c-.06.27-.23.31-.44.13a.87.87,0,0,1-.2-.23,6,6,0,0,0-2.28-2.29l-.4-.26-.1,0c-.05.12-.12.24-.17.37a4.08,4.08,0,0,1-.84,1.49,2.79,2.79,0,0,1-.47.36,1.15,1.15,0,0,1-.28.06,1.28,1.28,0,0,1-.06-.33c0-.36.06-.73.09-1.09a3.42,3.42,0,0,0-.6-2.1.38.38,0,0,1,0-.1l-.08,0-.18.5a4.16,4.16,0,0,1-.82,1.64c-.25.26-.55.47-.82.71l-.08-.06.06-.19c.22-.59.44-1.17.64-1.76a1.5,1.5,0,0,0-.07-1,4.58,4.58,0,0,0-2.38-2.55,8.87,8.87,0,0,0-3.35-.89,10.51,10.51,0,0,0-3.31.15,3.42,3.42,0,0,0-1.7.89A2.49,2.49,0,0,0,6.53,18a15.92,15.92,0,0,0,4.33,2.29,9,9,0,0,0,2,.34,47.25,47.25,0,0,1,7,.95,9.28,9.28,0,0,1,2.23.8,8.91,8.91,0,0,0,3.3,1,32.53,32.53,0,0,0,3.27.28,18.34,18.34,0,0,0,5.93-.83A2,2,0,0,0,36,21.72c.54-1.2,1.12-2.39,1.7-3.59a23.5,23.5,0,0,1,3.68-5.62A19.75,19.75,0,0,1,45,9.33,25.8,25.8,0,0,1,48.7,7.18c.46-.21,1-.3,1.44-.53a4.75,4.75,0,0,0,1-.74c.47-.41.88-.89,1.37-1.27a4.68,4.68,0,0,1,2.73-.91c1,0,1.93-.06,2.9,0,1.15,0,2.31.07,3.47.08a5,5,0,0,0,2-.35,3.08,3.08,0,0,0,1.6-1.74c.21-.47.37-1,.56-1.44L65.89,0c0,.9,0,1.79,0,2.69a3.63,3.63,0,0,1-.44,1.57A3.6,3.6,0,0,1,63.21,6a14,14,0,0,1-3,.52c-.92.09-1.84.22-2.76.35-.14,0-.25.16-.38.24.13.08.24.22.38.24a14.33,14.33,0,0,0,1.72.28c1.17.12,2.34.22,3.51.29a19.83,19.83,0,0,0,2,0,2.17,2.17,0,0,0,1.4-.7l1.12-1.11.19-.17a3.36,3.36,0,0,1-2.23,3.93,8.6,8.6,0,0,1-2.79.51c-.69,0-1.39.09-2.08.15-.31,0-.35.15-.18.4q1.26,1.84,2.53,3.66c.84,1.22,1.71,2.43,2.52,3.66a6.06,6.06,0,0,1,.57,1.33.85.85,0,0,1-.33,1,1.83,1.83,0,0,1-.45.32A13.91,13.91,0,0,1,62,22a5.34,5.34,0,0,1-2-.08,16.41,16.41,0,0,0-1.83-.25,2.3,2.3,0,0,0-1.07.17,15.82,15.82,0,0,0-1.84,1,2.11,2.11,0,0,0-.93,1.87,10.7,10.7,0,0,0,.12,1.79c.25,1.8.57,3.59.79,5.4a13.71,13.71,0,0,1,.09,2.79,23.52,23.52,0,0,1-.54,2.73c-.16.71-.34,1.41-.49,2.11a1.49,1.49,0,0,0,.75,1.75c.52.3,1.07.57,1.6.86,1,.53,2.05,1,3.05,1.6A4.32,4.32,0,0,1,61.08,45a16.36,16.36,0,0,0,2.6,2.66,29.71,29.71,0,0,1,3.86,3.91,14.3,14.3,0,0,1,1.09,1.58c.24.38.15.56-.28.71a2.72,2.72,0,0,1-1.76-.07,4.84,4.84,0,0,1-2.34-1.5,1.81,1.81,0,0,1-.41-1.08c0-.45-.18-.62-.63-.63a1.15,1.15,0,0,1-1.15-.78,7.08,7.08,0,0,0-1.9-2.38,3.27,3.27,0,0,0-1.45-.89c-.6-.12-1.21-.23-1.82-.29-1-.09-2-.13-3-.21-.39,0-.77-.12-1.16-.18a1.2,1.2,0,0,0-1.12.35,3.3,3.3,0,0,1-1.57.87c-.42.12-.43.21-.2.57a11.64,11.64,0,0,1,.91,1.51,13.12,13.12,0,0,0,1.91,3A15,15,0,0,0,55.6,55a5.15,5.15,0,0,0,1.28.65,2.94,2.94,0,0,1,2,2.08,7.68,7.68,0,0,1,.19.83c.06.32,0,.4-.34.33L58,58.72l-.41,0a2.61,2.61,0,0,0,.18.29c.17.21.36.42.54.63s.11.23-.1.24a3.85,3.85,0,0,1-3-.88,1.85,1.85,0,0,1-.66-1.27c0-.23,0-.51-.3-.57s-.41.16-.55.35l-.26.34a5.15,5.15,0,0,1-.26-.55,8.46,8.46,0,0,0-3.57-4.33,2.53,2.53,0,0,0-.8-.32,1.42,1.42,0,0,1-.94-.8c-.11-.24-.21-.49-.32-.73a1.84,1.84,0,0,0-1-1,25.22,25.22,0,0,1-4.1-2.34c-.32-.2-.65-.4-1-.57a1.06,1.06,0,0,0-1,0,10.56,10.56,0,0,1-3.74.89,23.1,23.1,0,0,1-3.72-.1l-3.88-.31c-1-.09-1.94-.18-2.9-.29-.21,0-.27.05-.27.25,0,.41,0,.83,0,1.25a2.78,2.78,0,0,1-.08.49c-.1.3-.29.37-.55.19a3.1,3.1,0,0,1-.5-.46,19.31,19.31,0,0,1-1.92-3A16.44,16.44,0,0,0,20.86,43a5.08,5.08,0,0,0-1.44-1.21l-.09,0c-.45-.21-.6-.14-.66.34a7.25,7.25,0,0,0,0,1.47c.09.92.22,1.84.39,2.74a5.74,5.74,0,0,0,1.36,2.59c.88,1.06,1.82,2.07,2.71,3.13.41.48.75,1,1.15,1.51a2,2,0,0,0,.56.52A7.14,7.14,0,0,1,27.36,57l.19.35a.11.11,0,0,1,0,.05l0,0a15.58,15.58,0,0,1-3.41-.18,2.08,2.08,0,0,1-1.27-.81,7.69,7.69,0,0,1-1.28-2.33,6.38,6.38,0,0,1-.12-.63c0-.1,0-.19-.08-.33-.46.31-.66.79-1,1.15-.07-.17-.13-.32-.18-.48a13.29,13.29,0,0,0-3-5.05,15,15,0,0,0-1.41-1.23,2.77,2.77,0,0,1-1-1.45.24.24,0,0,1,0-.08c-.17-.55-.3-.6-.86-.41a5.91,5.91,0,0,1-1.3.33,1.72,1.72,0,0,1-1.92-1.82c0-.51,0-1,0-1.52C10.61,42.44,10.6,42.34,10.58,42.17Z"/></g></g></svg>