<svg id="Layer_1" data-name="Layer 1" xmlns="http://www.w3.org/2000/svg" viewBox="0 0 100 100"><title>1</title><path d="M87.43,67.13c-.28.69.5.64.51,1.11l.15,0,.15-1,.31.42.36-.39.46,1.32c.28-.14.55-.29.83-.42.06,0,.19,0,.21,0a.59.59,0,0,1,.09.32,2.66,2.66,0,0,1-.07.39l.1.07.4-.36.18.25.34-.37c.16.23.07.67.54.51l0,.37a1.41,1.41,0,0,0,.32.09.38.38,0,0,0,.3,0,.41.41,0,0,1,.57,0s.08.08.11.08c.56-.11.74.42,1.1.62a.81.81,0,0,0,.57.06c.27-.07.43-.05.51.24a.6.6,0,0,0,.16.23c.21.18.44.35.67.51s.4.2.6.32.46.31.7.45a5.21,5.21,0,0,0,.8.44c.23.1.35.23.31.48a.46.46,0,0,1-.46.45c-.5,0-1,0-1.48,0-1,0-2,0-3,0-2.13.07-4.26.17-6.4.25-.75,0-1.51.13-2.26.11-2.18,0-4.35-.15-6.52-.23L72,73.17c-.85,0-1.7-.11-2.55-.1-1.68,0-3.37.1-5.06.16-1.07,0-2.14.09-3.22.16q-2.9.18-5.79.39L51,74.1c-1.24.09-2.47.22-3.71.26-1.42,0-2.84.07-4.25,0-1.91-.09-3.82-.3-5.73-.41-1.74-.1-3.49-.14-5.24-.21-.55,0-1.11-.1-1.66-.1s-1.3,0-2,0L25,74c-.86.06-1.72.14-2.58.13-.67,0-1.33-.15-2-.19s-1.19,0-1.78,0l-5.31-.14c-.39,0-.78,0-1.16-.08-.09,0-.23-.13-.22-.17s.1-.23.19-.26a22.38,22.38,0,0,1,2.38-.71c.47-.09.91-.28,1.36-.37a9.4,9.4,0,0,0,1.16-.49c.52-.2.53-.18.75-.53l.16.22c.54-.19.54-.19.71-.53l.09,0c.2.37.52.38.76,0a3.78,3.78,0,0,0,.17-.35c.05-.11.11-.22.19-.37l.34.54.23-.85h.08l.21.51.36-.42.14.35.28-.18c.11.14.21.35.27.34a.73.73,0,0,0,.41-.25c.11-.14.22-.24.33-.09.3.37.65.17,1,.12a2.61,2.61,0,0,0,.67-.21,1.54,1.54,0,0,0,.58-.38c.07-.09,0-.32-.07-.58.28.21.64-.29.86.22,0,0,.17,0,.26,0s.24-.09.33-.06c.49.23.55.21.8-.26a.73.73,0,0,1,.09-.11c.31.24.5,0,.69-.2s.27-.28.46,0c0,0,.23,0,.32-.07a3,3,0,0,0,.34-.39l.08.47,1.47-.24a2.24,2.24,0,0,0,2.54.07,3.2,3.2,0,0,1,.88-.58,3.45,3.45,0,0,1,1.42-.35,2,2,0,0,0,2-1.34,12,12,0,0,1,2-2.53,7.12,7.12,0,0,0,1.42-2.15c.29-.82.52-1.64.73-2.47.15-.6.35-1.18.51-1.77a2.88,2.88,0,0,0,.15-.66.35.35,0,0,0-.2-.27,1.71,1.71,0,0,0-.55,0c-.33,0-.67.11-1,.17l-.19.08c-.16.05-.33.16-.48.13a1.61,1.61,0,0,0-.85.17,7.67,7.67,0,0,0-1.16.63,1.66,1.66,0,0,0-.28.26l-.12-.25-.14.5L37,57.83h-.08l0,.29-.47.27-.28-.53-.22.67-.23-.16v.5h0l-.1-.3h-.12l.06.5-.28-.4-.09,0,.15.54-.18-.06-.13.45-.1,0v-.23l-.38.09-.19.75L34,60c.18.62-.44.3-.56.58l0-.34a3.39,3.39,0,0,0-.71-.5,3.24,3.24,0,0,0-.94-.15,2.64,2.64,0,0,0-1.56.59,2.06,2.06,0,0,1-1.66.35,2.21,2.21,0,0,0-.35,0,.73.73,0,0,1-.69-1c0-.12-.06-.27-.1-.43l.28.13.09-.29a1.48,1.48,0,0,0,.21.26,2,2,0,0,0,.3.1c0-.12-.05-.19-.09-.22-.27-.21-.19-.41,0-.62s.3-.36.43-.55a1,1,0,0,0,.12-.35l-.08-.07-1.67,1,.06.32-.07,0c-.44-.55-1.12-.39-1.68-.6-.36-.13-.76-.19-.88-.65,0-.07-.19-.08-.26-.14s-.33-.24-.37-.39.17-.28.31-.36a6.49,6.49,0,0,0,1.33-1.39c.38-.4.71-.85,1.07-1.27a1.7,1.7,0,0,0,.51-1.38.45.45,0,0,0-.14-.26.44.44,0,0,1-.12-.62c.42-.72.81-1.44,1.25-2.14.19-.31.48-.55.7-.84a.58.58,0,0,0,.12-.4,2.54,2.54,0,0,1,.58-2,.48.48,0,0,1,.67-.12,1.52,1.52,0,0,1,.46.32,1,1,0,0,0,1.19.22.84.84,0,0,0,.4-.41,2.42,2.42,0,0,1,.79-1,1,1,0,0,1,1.3.25c.23.32.44.33.74.07a13.41,13.41,0,0,1,1.29-1.08c.56-.36,1.19-.62,1.78-1a3.49,3.49,0,0,0,.49-.45l-1.61-1.64-.28.08,0-.07.26-.09-.06-.09h-.43l0,0,.25-.07-.09-.14-.27.07-.47-.39.29-.1,0-.28H35.5l.09-.28-.5.21,0-.05.27-.23,0-.09-.44.21.27-.42,0-.06-.47.35,0-.2-.5,0,0-.1.24-.11,0-.09-.42.13.31-.37-.9.12.13-.22c-.19,0-.51.18-.49-.25l-.59.16A3,3,0,0,0,31,37.51a1.79,1.79,0,0,1-.73-1.2c0-.18-.1-.36-.13-.55a.71.71,0,0,1,.7-.9c.14,0,.26-.17.4-.27l-.05.34.32-.07,0,.07.34.12.8.25a.56.56,0,0,0,.7-.19c.29-.38.59-.75.88-1.14a.37.37,0,0,0-.09-.53c-.1-.1-.21-.19-.32-.28L32.44,32.1l-.25.16,0,0c.31-.66-.08-1.28-.07-1.93,0-.31-.07-.66.3-.87,0,0,0-.14,0-.22a2.7,2.7,0,0,1,.07-.41c.08-.25.24-.33.45-.16a7.16,7.16,0,0,0,2.25,1c.54.21,1.09.38,1.63.57A1.64,1.64,0,0,0,38,30a.22.22,0,0,0,.09-.12c.08-.38.32-.44.66-.37.8.15,1.61.25,2.41.41.32.07.63.25,1,.35a.66.66,0,0,0,.42,0,2.49,2.49,0,0,1,2.08-.12.48.48,0,0,1,.32.57,1.86,1.86,0,0,1-.16.57,1,1,0,0,0,.28,1.21c.13.14.4.14.61.21a4.59,4.59,0,0,1,1.12.36A.89.89,0,0,1,47,34.35c-.21.32-.16.51.19.69a14.25,14.25,0,0,1,1.43.81c.55.41,1,.9,1.56,1.35l1,1,.2.22c.31.31.61.64.92.95a8.22,8.22,0,0,0,1.64,1,.88.88,0,0,0,.29.09c.05.1.07.23.14.25a7.81,7.81,0,0,0,1.53.56,16.21,16.21,0,0,0,2.09.17,6,6,0,0,0,.74,0,32.68,32.68,0,0,0,4.53-.75,17.88,17.88,0,0,1,2.9-.39c.58,0,1.16-.06,1.73-.06a6,6,0,0,1,.84.07,17.32,17.32,0,0,1,2.16.33c.87.23,1.7.59,2.56.89.28.1.56.18.84.29s.34.21.53.29a16.07,16.07,0,0,1,2.75,1.53,8.17,8.17,0,0,1,1,.91c.09.09.2.17.28.26.27.27.53.54.78.82.63.71,1.27,1.43,1.88,2.16a5.8,5.8,0,0,1,.66,1c.24.41.45.83.66,1.25a1,1,0,0,1-.17,1.37,13.07,13.07,0,0,0,.62,2.15c.36.75.32,1.58.63,2.32a7.27,7.27,0,0,1,.27,2.07c.09.69.15,1.39.27,2.07s.31,1.57.52,2.34a3.74,3.74,0,0,0,.47.85c.27.46.56.9.8,1.37a4.52,4.52,0,0,1,.44,1.1c.12.57.15,1.17.23,1.8ZM32.72,69.2l-.3.24,0,.07.72-.22,0-.11-.45,0,.17-.22c-.1,0-.21,0-.28,0a3.39,3.39,0,0,0-.39.27l0,.07Zm-2.78-16c.08.05.17.14.23.13a.47.47,0,0,0,.32-.66l-.56.54-.09-1c-.42.17-.66.47-.55.69A.51.51,0,0,0,29.94,53.22Zm45.27-.68L75.26,54h.1a2.43,2.43,0,0,0-.15-1.48c.22-.18.18-.39.12-.63a5,5,0,0,1-.09-.56l.11,0,.23.48.19-1.32h.11l.11.22.12-.16c.16.43.12.89.52,1.17a1.67,1.67,0,0,0-.06-.39l-.18-.74h0a.46.46,0,0,0,.08-.66,1.58,1.58,0,0,1-.09-.63l.13,0c.48.66.25,1.48.48,2.26a1,1,0,0,0-.08-1l.22,0-.32-1.7.07,0,.25.35L77,48.43a5.74,5.74,0,0,1,.85,1.09,10.54,10.54,0,0,1,.48,1.24,2.11,2.11,0,0,0-.27-1.12,10.5,10.5,0,0,1-.53-1.53,1.74,1.74,0,0,1,.63,1.45c.25-.26.12-.45.07-.65-.1-.41-.18-.82-.27-1.23l.15,0,.8,1.72c-.22-.7-.46-1.39-.66-2.08l.13-.05L79,48.69l.09,0-.65-2.11.09,0,.13.12.06-.2.85,1.65a5.38,5.38,0,0,0-1.38-2.77v.3l-.09,0-.33-.92-.1.23-.37-.67-.05,0,.14.52-.11,0-.44-1.12-.11,0,.18.56-.05,0L76.48,44l0,0,.18.63-.11,0L76,43.75l0,0,.39,1-.12.08a1.6,1.6,0,0,0-1-1.1l.35.72-1.37-.75,0,.07a3.39,3.39,0,0,0,.53.38,1.09,1.09,0,0,1,.67,1.17l-.48-.86-.08.05.68,1.28-.12.07A4.51,4.51,0,0,0,73.78,44a1.28,1.28,0,0,0,.34.45,2,2,0,0,1,.77,1.09l-.1.07-.57-.84-.08,0,.55,1-.07,0-.54-.59-.07.07c.23.26.46.51.68.78a1.75,1.75,0,0,1,.51.92,1.1,1.1,0,0,1-.45-.25c-.12-.12-.22-.25-.33-.38l0,0,.19.41-.21,0c.12.4.24.8.35,1.2a1.66,1.66,0,0,1,0,.22c-.46-.64-.59-1.47-1.27-2a7.79,7.79,0,0,1,.52,1,7.27,7.27,0,0,1,.29,1l-.1,0-.31-.54-.06,0v.32l-1.14-2.31.57.51L73,45.59l.69.29,0-.07-.41-.67.24.12.15.06c0-.43,0-.54-.38-.66l.17.36a.88.88,0,0,1-.49-.9l.29.08-.67-1,0,0,.12.43-.07,0-.26-.32-.06,0,.19.79-.11,0L72,43.3V44l-.08,0-.38-.8-.15.06.28.88-.11,0c-.14-.27-.26-.55-.41-.81s-.33-.46-.49-.69l0,0,1,2.07-.16.13-.33-.5,0,.06.35.62-.1.06-.83-1.12c.2.56.69.94.83,1.64l-.46-.28,0,0,.46.75-.07.05-.32-.35,0,0,.72,1.13a1,1,0,0,1-.39-.18,1.19,1.19,0,0,0-.2-.08,1.09,1.09,0,0,0,0,.25c.12.33.26.66.38,1,0,.06,0,.15,0,.26-.3-.17-.08-.55-.43-.69-.15-.07-.15-.5-.21-.77l-.11,0c.08.34.06.8.27,1s.22.5.2.78c0,.08,0,.16,0,.26l.23-.17c.2.8.4,1.55.59,2.3a.53.53,0,0,1,0,.2c0,.1,0,.2-.07.3h.1l.28-.64.22.16h0c0,.16-.06.36,0,.49a.86.86,0,0,1-.21,1,1.19,1.19,0,0,1,0-.46c0-.13.21-.29,0-.37l-.29.49-.37-.87-.1,0c0,.46.52.8.26,1.37l-.25-.8-.13,0a4.51,4.51,0,0,0,.1.53c.13.43.14.43-.18.67-.19-.25-.08-.69-.51-.83,0,.07,0,.12,0,.16.14.3.31.61.45.92a1,1,0,0,1,.08.31s-.11,0-.12,0a1.69,1.69,0,0,1-.17-.29c-.06-.17-.11-.35-.17-.52l-.07,0,.15.85-.1,0-.32-.77-.11,0,.29,1-.06,0L70,53.63l-.06,0,.35.77-.08,0-.3-.39,0,0,.22.59-.13,0c-.1-.23-.21-.45-.3-.68a3.63,3.63,0,0,0-.31-.78,3,3,0,0,1-.55-1.94,2.47,2.47,0,0,0,0-.38h-.11l0,1-.09,0-.27-.66-.09,0,.2,1.09-.27-.31-.07.71H68l-.18-1-.15,0,.28,1.72-.11,0-.4-1.23h-.06l.33,1.61-.12,0-.41-1.26-.09,0,.33,1.51-.13,0-.39-1h-.08a2.86,2.86,0,0,1-.22,2.16l-.06-1.17c-.22,1.07-.22,1.07-.41,1l.49,1.42.09-.67h.06l.2,1H67c0-.27,0-.54,0-.82s0-.4.3-.39l-.27-1,.15,0,.77,1.77,0,0-.49-2,.15-.05.84,1.94c-.6.11-.32.55-.41.87l-.32-.39,0,0,.2.59-.1,0-.57-1.14-.09.05c.11.24.21.49.33.72s.26.45.39.68l-.11.07-.32-.42.08.59-.17.1-.16-.33,0,.05.21.5-.44.22-.17-.58-.07,0,.27,1-.11,0-.2-.4.13.79-.1,0-.19-.32-.07,0,.09.8c-.46-.28-.4-.69-.43-1.07S66,58.45,65.93,58a18.84,18.84,0,0,0,.12,3,5.94,5.94,0,0,1-.37-2.21h-.12l.1,2.07-.12,0L65.27,60,65,61.13c-.23-.09-.58.46-.57.88l.29-.42-.31,1.65.41-.14-.22.62.06,0,.24-.21c.32.69-.14,1.3-.06,1.94l.28-.89h.09l-.08,1.17h0l.25-1.24.09,0v.57l.12-.51.11,0-.27,2.62h.14l.06-.79h.07l.1.25h.07L66,65.47h0l-.09.4-.11,0a1.31,1.31,0,0,1,.22-1,1.27,1.27,0,0,1,.15.49c0,.15,0,.31,0,.47h.15A31.34,31.34,0,0,1,66,62h.12l.23,1.22h.09v-.92h.09l.15.35.09,0a1.09,1.09,0,0,1,0-.26,2.46,2.46,0,0,1,.09-.29c.07.06.18.12.2.2.11.33.19.67.28,1h.07l.14-1c-.09,0-.18,0-.19,0a1.32,1.32,0,0,1,0-1l.52.66.06,0-.53-1.32.09,0c.5.64.79,1.93.49,2.34l-.15-.58V64h.07l.12-.73h.08l.1.81h0v-.42a2.18,2.18,0,0,1,0-.81.67.67,0,0,0,0-.5,2.19,2.19,0,0,1-.09-1.15,1.41,1.41,0,0,0,0-1.09c0-.09-.06-.19-.09-.28l.1-.06c.09.13.22.24.24.38.06.41.09.82.12,1.23s0,.61,0,.91A3.49,3.49,0,0,1,68.62,64a1.23,1.23,0,0,0,0,.46c.34-1.06-.08-2.09,0-3.15l.14.26h0l-.34-1.64.13,0,.32.36c.14-.31-.11-.81.47-.83l0-.3h.11l.05.85h.13V58.1l.25.49.06,0L70,57.63l.16,0,.26,1,.08,0-.29-1.43a3.24,3.24,0,0,1,.65,2.06V56.53l.07,0,.4,1.43h.06v-2h.08l.31.61c.61-.34.11-.89.27-1.37.56.77.12,1.64.34,2.4h.11v-2.1h.16l.06,1.2h.11a4.7,4.7,0,0,0,0-.84,3.71,3.71,0,0,1,0-1.59h.1l.18,2.35h.1V56c0-.77,0-1.54-.06-2.31a1.63,1.63,0,0,1,.09-.48h.16a1.67,1.67,0,0,0,0,.32,2.5,2.5,0,0,0,.06.38l.1,0,.09-.67h.09l.1,1.14h.11l-.14-1.21.11,0,.16.52.36-1,.11,0,.11-.61.08,0,0,.69h.1l.16-1H75C75.1,52.08,75.15,52.31,75.21,52.54ZM46.27,50.12h0c.42.7.84,1.39,1.25,2.1a2.05,2.05,0,0,1,.14.5l-.14,0-1.22-2.19-.11.07a5.39,5.39,0,0,0,.65,1.21c.42.46.1,1,.29,1.41l-.12.05-.31-.55,0,0,.22.94-.14.05-.42-1A2.54,2.54,0,0,1,46.38,54l-.28-.47-.05.7-.1,0-1.12-1.41a6.86,6.86,0,0,1,.66,1.59l-.08,0L45,54l-.07.05.3.91c-.75.08-.59.68-.74,1.1-.2-.3-.44-.57-.34-.79l-.34-.63a3.94,3.94,0,0,1,.36,1.51l-.55-.36.34,1.3-.11,0-.25-.29,0,.7-.1,0-.25-.22.17,1-.12,0L43,57.56l-.11.06a1.87,1.87,0,0,1,.26,1.24l-.1,0L42.72,58c0,.34.11.67.1,1a4.25,4.25,0,0,1-.22.85h-.14L42.09,59c0,.38.25.72.1,1.14l-.33-.24.12,1-.38-.22-.46,3.58-.14,0-.39-1.08,0,0,.14.58-.13.06-.35-.45.13.91-.24,0-.26.41h-.08l-.17-.78c.1.89.09.91-.48.88a2.3,2.3,0,0,1,0,.28c0,.13-.06.3-.15.36s-.23-.06-.34-.11a1.12,1.12,0,0,1-.21-.17l0,0,.61,1,.2-.78.12,0,0,.46.39-.52.34.89V65.5l.41-.18a5.11,5.11,0,0,1,.24.55,5.23,5.23,0,0,1,.12.57H41v-.78a1.27,1.27,0,0,1,.15,1.19h.1v-1.5h.12l.16.27.06-.48.28.16.08-.57H42l.11.61-.07,0,.79-1.4.08,0,0,.35.16-.35.14.35.19-.69.24.17c0-.24-.06-.53,0-.62.32-.27.08-.49,0-.74,0,0,0,0-.09-.06l.06.23L43.1,63l0,.36-.34,0-.15.53h-.11l-.1-.55-.48.8c-.43-.31-.47-.53-.13-.9,0,0,0-.18-.08-.18-.28-.05-.17-.2-.08-.32a.23.23,0,0,1,.11-.08l.07-1.29H42l.23,1.3.08-1.06h.16l.13,1.41a1.1,1.1,0,0,0,.07-.36c0-.4,0-.8,0-1.21,0-.2,0-.43.29-.51l.24.39.06-.86h.1l.21.43.25-.45.35.2c0-.18,0-.31-.06-.43s0-.24,0-.35l.1,0,.53.67L44.6,60l.46-.29L44.73,59l.14-.09.53.56c0-.27-.17-.6.15-.84l.39.26.11-1.17h.07l1,2.42c-.67-.25-.38.36-.64.57l-.39-1.5a4.28,4.28,0,0,0,.12.73,1.3,1.3,0,0,1-.06.65c-.08.16-.3.27-.45.4l-.29-.42-.13,0,.22.71c-.1.13-.22.21-.22.29,0,.32-.11.44-.4.35v.7c.18-.15.15-.53.46-.3l.11-.67h.12l.17.61h.07v-.61h.07l.17.3-.11-.77.13,0,.14.27,0-.27.09,0,.37.65c0-.28-.2-.56.1-.85l.15.81H47V60.44l.46.2-.07-.41c.44-.24.46.18.53.29l.17-1h.1l.15.36,0-.86.37.27V58.4l.08,0,.27.44c0-.24-.12-.45-.12-.66a2.07,2.07,0,0,1,.22-.61l.4.42a1.7,1.7,0,0,0-.06-.46c0-.11,0-.3,0-.35.29-.24.19-.48.11-.7l-.28.64L49,56.93c-.08.35-.55.53-.36,1l-.22-.14L47.9,59l-.3-.35.12,1-.14,0c-.07-.23-.13-.46-.21-.68s-.2-.46-.3-.69l-.08,0a2.3,2.3,0,0,1,.34,1.6,4.65,4.65,0,0,1-.76-1.23,9.26,9.26,0,0,1-.28-1.41l.13,0a3.75,3.75,0,0,0,.16.43c.07.14.16.27.24.4L47,58l-.07-1.34.13,0,.52,1.26.06,0L47,56.24l.13-.07.33.38,0-.49c.44.13.17.56.35.72l.46-.21-.61-.77.1-.08a2.45,2.45,0,0,0,.37.26,1,1,0,0,0,.3,0,2.85,2.85,0,0,1,0-.29,3.06,3.06,0,0,1,0-.32,1,1,0,0,1,.32.19,5.28,5.28,0,0,1,.42.63l-.45-1.35.12,0,.24.22.07,0-.53-1.13.14-.07.67,1L49,53.46l.1-.08.48.6.05,0-.21-.55.06,0,.49.3c-.29-.43-.67-.72-.48-1.21l.33-.07v-.65l.11,0,.54.58c0-.58-.75-.63-.95-1.08l.08-.11.87.58L50,50.94l.14-.2-.49-.36c.22-.1.58.14.5-.27-.1,0-.21.08-.26,0a1.5,1.5,0,0,1-.21-1l.95,1.06V49.5h0l.43.68-.09-1,.18-.06c0,.7.56,1,.89,1.51a2.09,2.09,0,0,0-.29-.6c-.12-.16-.24-.3,0-.43a2.62,2.62,0,0,1-.5-1.25l.24.25.07-.22.12,0,.31,1a.9.9,0,0,0,0-.54c-.08-.23-.22-.44-.32-.67,0-.06-.06-.19,0-.21a.32.32,0,0,1,.25-.06.84.84,0,0,1,.49.75.71.71,0,0,0,.54.61l-.41-.75.09-.07.28.16.06-.06-.85-1,.6-.21a2.61,2.61,0,0,1,.89,1.44c-.18.14-.38.24-.37.29a4.06,4.06,0,0,0,.25.66l.11,0-.2-.53.09-.06.32.28c0-.58.1-.76.41-.91L54,47.87l.1,0a7.58,7.58,0,0,1,1,1.87l.11,0-.74-1.79.07,0,.31.28c-.08-.48-.8-.35-.65-.86.16-.11.3-.28.44-.28s.29.18.44.28l.08-.24.1,0a3.62,3.62,0,0,1,.44,1,1,1,0,0,0,.67.9c.1,0,.17.2.3.37-1-.13-1,0-1.14-.79a5.74,5.74,0,0,0-.3-.74l-.14.07c.17.4.34.81.5,1.22.06.14.13.28.18.42a.5.5,0,0,1,0,.24c0,.2,0,.39,0,.59s0,.19,0,.36l-.25-.2,0,.62-.09,0-.31-.67a1.1,1.1,0,0,1-.27,1.34l-.12-1.24-.1,0c0,.2,0,.4,0,.6a1.16,1.16,0,0,1-.08.32c-.06.17-.15.32-.21.48a2.07,2.07,0,0,0-.08.42l-.39-.15L53.94,51h-.09l-.06.57c-.17-.08-.37-.12-.38-.19,0-.25-.12-.62,0-.74.32-.32,0-.48-.08-.7l-.15,1.46h-.11l-.58-1.4-.12,0a4.77,4.77,0,0,1,.51,2.15L52.25,51l-.1,0,.27,1.3-.12,0-.61-1.28c.09.4.21.78.32,1.17s.05.49-.25.56l.35,1.28-.09,0-.26-.32-.1.07a4.11,4.11,0,0,1,.34.51c0,.11.08.32,0,.39-.31.39-.32.38,0,.76a.76.76,0,0,1,.21.92,1.77,1.77,0,0,0,0,.73h.07l.24-.4.08,0v.9h0l.22-1H53v1.41l.14,0A.91.91,0,0,1,53.61,57l-.09,1h.09l.12-.41c0-.14.08-.28.12-.42H54l.1,1.12.09,0a2,2,0,0,1,.16-1.3c.21.4-.22.85.23,1.17A2,2,0,0,1,54.79,57l.12,0-.1.91h0l.17-.84h.14a2.31,2.31,0,0,1,0,.37c0,.14-.07.28-.09.42a2.36,2.36,0,0,0,0,.38h0l.42-1.18.16,0-.27,1.15.16,0,.45-1.08.12,0c0,.19,0,.39-.08.57-.08.38-.08.38.1.44l.07-.95h.12c.25.39.1.83.08,1.25.35-.45,0-1,.31-1.51.29.36,0,.87.42,1.18l.47-1.09h.11l.09,1L58.21,57l.15,0-.11.63.41-.65.14.07-.24.6.09,0,.58-1.38h.06l.06.71c.07-.35,0-.72.2-1h.1v1.1l.82-1.2.14,1.45L60.92,56l.14,0-.05.76.61-1.24.15.06-.23.7.1,0,.24-.58.21-.59.13,0a2.2,2.2,0,0,1,0,1.22,2.09,2.09,0,0,0,.13-.65c0-.5,0-.5.27-.47l.07-.43-.58.23V53.79H62l-.21,1.29h-.12l-.09-.48c-.24.13-.36-.05-.41-.65l-.31,1.19-.17-.29-.18.49h-.12c0-1,.32-2-.15-3l.14,0,.5.78v-1H61l.18.89.13,0-.42-1.64,0,0,.43.5.11,0-.3-1.16.14,0,.51,1c-.06-.38-.16-.76-.23-1.14a.59.59,0,0,1,0-.29s.15,0,.16,0a1.24,1.24,0,0,1,.1.31,3.08,3.08,0,0,1,0,.43l.1,0,.11-.3h.13l.2.78h0L62.55,50h.14l.18,1,.09-.27H63l.18.52.11-.41h.15a4.7,4.7,0,0,1,0,.65,5,5,0,0,1-.1.66l.13,0c.06-.32,0-.69.29-.91,0,0,0-.09,0-.14a4.75,4.75,0,0,1,0-.53,1.88,1.88,0,0,1,0-.33h.13l.27,1.72h.09a4.89,4.89,0,0,0,0-.54,1,1,0,0,1,.23-.92c.26-.3.22-.5-.06-.8a.76.76,0,0,1-.1-.25l.73.09L65,48.77l.17,0,.46,1.61L65.53,49l.07,0,.29.45.06,0-.5-1.8.09-.05.36.54V46.88a.6.6,0,0,1-.46-.73l.82.73.11-.05a2,2,0,0,0-.14-.49c-.08-.14-.26-.21-.35-.34-.26-.38-.5-.77-.75-1.16l0,0,.32,1-.13,0a1,1,0,0,1-.42-.79,2.32,2.32,0,0,0-.7-1.4l.71,1.49-.3-.08.6,1.12-.09.06c-.15-.05-.41-.07-.44-.17A7.46,7.46,0,0,1,64.37,45a2,2,0,0,0-.08-.43c-.16-.36-.34-.71-.51-1l-.36-.68-.08,0L64,44.47l-.13.06c-.5-.63-.63-1.53-1.35-2,.13.21.3.4.41.62a4.19,4.19,0,0,1,.23.68L63,43.9l-.57-1-.08,0,.19.64-.14.06-.82-1.5,0,0,.17.57-.12.05-.41-.68.07.77-.08,0-.38-.41V43l-.72-.39.1.85-.45-.28a.41.41,0,0,1,0,.15.84.84,0,0,1-.06.14c-.07-.32-.66-.45-.31-.88l-.31-.19-.29,1.14-.21-.34c-.34.3-.38,0-.51-.2l-.34-.45.08,1-.1,0-.41-.34.1.61-.77-.31.1.54c-.54-.39-.38-1.11-1-1.43l.29.54-.38.22-.3-.48c-.23.09.21.5-.24.44l.31,1.07-.14.05-.6-1.23-.09.32c0,.11-.06.23-.1.35H54.4a2.69,2.69,0,0,1,0-.56,2.86,2.86,0,0,1,.18-.57l-.28,0,.16-1.33-.76.63-.1-.1.51-.73-1.55,1c-.06-.47-.25-1,.43-1.22a1.16,1.16,0,0,1-1.21-.24c-.46,0-.69.36-.87.84l-.29-.61-.27.26-.08,0,.21-.52-.11-.07-.49.62-.09-.38-.24.32-.07,0,0-.42-.29.54,0-.08-.38.13-.28-.32.48-.5-.09-.07a1.67,1.67,0,0,0-.64,1c-.12.6-.29.65-.77.33h-.06l-.06.44h0l-.35,1c-.15-.47-.09-.72.51-2.29-.25.21-.49.39-.42.74a.26.26,0,0,1,0,.17c-.32,0-.25.35-.36.53a1.92,1.92,0,0,1-.32.32.66.66,0,0,1-.23.84l0-.38-.38.49-.36-.32.15.9c-.41-.27-.34-.7-.53-1v1.39c-.29-.09,0-.61-.41-.54l0,.68h-.17l-.12-1.46h-.11l.17,2.2-.5-.52-.32.18-.09.63-.19-.19.07.55-.11,0-.25-.46.41,2.54c.46.4.23.92.49,1.24l.1-.46H44l.12.6.17-.69.16,0v1.06h.1l.12-1h.12l.1.83c.51-.09,0-.54.3-.78a4.11,4.11,0,0,1,.17.49,4.26,4.26,0,0,1,.1.49h.12l.1-.69c.42.31,0,.74.13.92Zm-5.43-9.87c.07-.58.54-.87,1-1.21.3-.2.46-.62.69-.94v0c-.14-.4.08-.66.35-.91s.28-.34.45-.54c-.1,0-.17,0-.2.06a.65.65,0,0,1-.83.13.72.72,0,0,1-.31-.57,2.24,2.24,0,0,1,.27-.71c-.15-.13-.29-.19-.28-.25a2.36,2.36,0,0,1,.1-.53l.1-.07.17.29,0,0,0-.32a1.26,1.26,0,0,0,.44,0c.5-.21.56-.19.58.36,0,.09-.07.2,0,.27a3.14,3.14,0,0,0,.33.48s.13-.05.14-.09a7.26,7.26,0,0,1,.19-.95,2.14,2.14,0,0,1,.52-.89c.31-.27.58-.69,1.1-.6v0a.9.9,0,0,0-1.19.19c-.45.42-.79.45-1.15.08l.85-.55a1.71,1.71,0,0,1-1.22-.27v-.11l1-.31c-.43-.18-.43-.18-.32-.46-.34,0-.75.22-.91-.27-.31-.06-.75.34-.85-.28l-.49.06,0-.1.17-.17a1.18,1.18,0,0,0-.38.09c-.16,0-.36.15-.47.09a.94.94,0,0,0-1,.14l0,.65.33.35c.23-.1.52-.31.8,0,0,0,.13,0,.2,0,.39,0,.79-.3,1.18,0a.85.85,0,0,1,.17.25c-.09,0-.2.08-.27.05a.6.6,0,0,0-.65.12,5,5,0,0,1-.71.41v-.41c-.27.36-.27.36-.44.25l-.28.35c-.08-.08-.24-.19-.23-.23.13-.34-.3-.45-.24-.75a1.13,1.13,0,0,0,.07,1,.5.5,0,0,0,.14.15,2.14,2.14,0,0,1,.57.27c.23.19.48.43.39.78a.7.7,0,0,1-.77.42,1.68,1.68,0,0,0-.09,1.37.74.74,0,0,1-.1.43c0,.06-.22,0-.34.05s-.45.31-.61.24c-.54-.22.13-.46,0-.72l-1,.57.07-.46-.46.24-.07-.07c.13-.32.47-.62.05-1.08-.11.46-.19.86-.29,1.25,0,.09-.14.15-.21.23l-.11-.08.21-1.79-.77,1,.19.5-.41.28c.35,0,.45.21.32.45a2.26,2.26,0,0,1-.35.36l0-.47-1.14.87,0,.14a1.44,1.44,0,0,0,.42-.11,7.27,7.27,0,0,0,.63-.44c.1.35.1.35-.44.78l0,.43.48-.13.1.6.64-.15.06.11-.49.46.32.24a3.64,3.64,0,0,1,.48-.35c.25-.16.59-.07.65.14s.15.44.24.74l-.31.33.06.07c.15-.13.3-.26.46-.38s.25-.24.34-.22c.35.09.52-.15.74-.32a.62.62,0,0,1,.19-.07l.07.1-1.08.9,0,.06,1.38-.49-.26.59ZM37.62,53.47a1.87,1.87,0,0,1-.77-1.4c-.08-.36-.45-.65-.69-1h0a.68.68,0,0,1-.65-.54,4.3,4.3,0,0,0-.4-.69c0,.12,0,.18,0,.22.21.36,0,.63-.22.86s-.44.11-.6,0a3.85,3.85,0,0,1-.66-.57c-.11.35-.33.31-.73-.11l.4-.11-.36-.1A2.73,2.73,0,0,1,33,49.5c0-.13.14-.35.21-.35a1.14,1.14,0,0,1,.53.17c.26.15.47.09.62-.21a2.57,2.57,0,0,1-1.77-2.66,1.35,1.35,0,0,0-.28.63,3.51,3.51,0,0,0,.18.9.59.59,0,0,1-.42.78l-.22-1a1.45,1.45,0,0,1-.77,1l.07-1.13c-.17.16-.26.53-.54.18-.12.33-.08.77-.6.75l-.19.77-.33-.13-.15.54-.1,0-.09-.25a2.32,2.32,0,0,0-.06.44c0,.17,0,.41-.08.5a.94.94,0,0,0-.21,1l.57.26.41-.18c.05-.22,0-.54.14-.6a.72.72,0,0,0,.31-.75c-.06-.39.21-.52.38-.74,0-.05.18,0,.28,0a2.21,2.21,0,0,1,0,.25,2.08,2.08,0,0,0-.18.51,3.2,3.2,0,0,0,.13.58,1.5,1.5,0,0,1,0,.3l-.33,0,.24.37-.31.11c.19.12.53.11.34.41,0,.09-.32.05-.48.07l0-.06-.53.07a1.15,1.15,0,0,0,.91.25c.08,0,.18,0,.21-.09a1.1,1.1,0,0,1,.85-.58.5.5,0,0,1,.66.46c0,.11,0,.22,0,.37l-.3-.14a1.75,1.75,0,0,0,1.5.81c.13,0,.27.16.35.27s-.07.2-.12.32.14.17.12.25a.74.74,0,0,1-.19.47c-.18.14-.28,0-.35-.2s-.11-.14-.23-.28l.21,1.27-.4-.22.07.61c-.36-.25-.5-.7-1-.49a7.18,7.18,0,0,0,.67.52c.41.26.44.25.52.72a.85.85,0,0,0,.2.57s0,.15,0,.26L33,57l.42,1.39h.14a1.48,1.48,0,0,0,0-.41,5.91,5.91,0,0,0-.21-.77c.62,0,.47.43.57.7l.49.09v-.62l.31.28.3-.1.07-.59h.12l.25.57c.26-.06.36-.19.26-.44a1.07,1.07,0,0,1-.09-.34c0-.25.19-.54.37-.53s.47,0,.76,0l.22.42.09,0c-.08-.21-.17-.41-.23-.62a1.84,1.84,0,0,1,0-.41,4.17,4.17,0,0,0,0-.5,3.2,3.2,0,0,0-.13-.47c.56.33.28,1,.74,1.32V54.52l.46.44ZM63.38,59.6l-.28.31-.21-.31-.14.47h-.06l0-.33-.25.34v-.31c-.06,0-.1.06-.14.06-.31,0-.58-.28-.92-.11,0,0-.09-.06-.15-.08a.88.88,0,0,0-.29-.09c-.48,0-1,.07-1.42.06a11.27,11.27,0,0,1-1.24-.12,2.38,2.38,0,0,0,.06.37c.17.48.36.95.55,1.43s.27.69.41,1,.26.58.39.87l.11.26a2.45,2.45,0,0,1,.25.61,3.15,3.15,0,0,1-.54,1.72,1.75,1.75,0,0,0-.06.33.74.74,0,0,0,.3,0c.24-.12.35,0,.4.2a2.48,2.48,0,0,1,0,.27l.05,0,3.9,0c.23,0,.21-.13.18-.31-.06-.35-.09-.7-.12-1a5.94,5.94,0,0,0-.06-.94,9.25,9.25,0,0,1-.21-2.57c0-.25,0-.51,0-.76s.13-.76.2-1.15a.46.46,0,0,0-.71.24ZM44.83,66.09l0,.07h.39c1.17,0,2.33-.07,3.5-.07,2,0,4,.42,6,0,.19,0,.46-.06.55-.19s0-.48-.16-.66-.43-.36-.63-.55l-1.21-1.12c-.19-.17-.52-.27-.61-.48-.22-.49-.7-.65-1-1s-.63-.5-.78-.92c-.09-.26-.37-.45-.64-.75-.43.61-.81,1.13-1.17,1.67a3.11,3.11,0,0,1-.93,1.1,1,1,0,0,1-.24.39c-.09.09-.22.13-.31.21-.28.28-.53.59-.83.84s-.86.66-1.29,1ZM70.3,66l.24.23.31-.33.09.46.59-.54.13.63c.16-.14.26-.28.4-.33a1.61,1.61,0,0,1,.5,0l.25-.31c.38.57.38.57.85.48.09.14.18.37.24.37a1.63,1.63,0,0,0,.54-.24c.08,0,.13-.14.2-.16a3.11,3.11,0,0,1,.5-.06s.11.15.17.14c.26-.06.39.09.52.27s.08.07.12.06l.8-.19a1,1,0,0,0,1,.28.33.33,0,0,1,.14,0,4.06,4.06,0,0,0,.73.28,6.07,6.07,0,0,0,2.44.13,7.57,7.57,0,0,0,1.17-.23c.44-.15.48-.49.2-.84A1.65,1.65,0,0,0,81,65.56,7.61,7.61,0,0,1,78.59,65a4.06,4.06,0,0,1-1.07-.56c-.44-.25-.93-.44-1.16-1a1.28,1.28,0,0,0-.28-.53,1.76,1.76,0,0,1-.49-1,3,3,0,0,0-1.16.71c-.3.24-.61.49-.93.72-.16.12-.37.19-.54.31a2.67,2.67,0,0,0-.36.32c-.16.15-.39.27-.46.46-.14.36-.19.42-.53.27,0,.08,0,.21-.08.25a3.51,3.51,0,0,1-.74.58C70.61,65.62,70.49,65.8,70.3,66Zm5.51-7.09,0,0,.08,1.16H76l.15-2h.1l.08.73h.08l.07-.6h.14a4.86,4.86,0,0,1,.07.55,3.64,3.64,0,0,1-.05.56c0,.18,0,.37-.07.55h.15l.18-2,.18.82h.05l.06-.27.44.42.12,0,.1-2h.1l.1,1.16.18,0a1.54,1.54,0,0,0,.21-.4,2.78,2.78,0,0,0,0-.57c0-.24,0-.49,0-.73h.09c0,.12,0,.23.06.35s0,.25,0,.42a2.59,2.59,0,0,0,.09-1.47,8.82,8.82,0,0,1-.13-1.26,2.72,2.72,0,0,1,0-.49c-.21,0-.21,0-.4-.47l.13,2h-.13L78,54.57l-.11.79h-.1l-.16-.86h0l-.19,1.65H77.3l-.12-1.31H77.1v1.43H77l-.16-.76H76.8l-.1,1.25h-.15V55.65h-.11A3,3,0,0,1,76,57.12a3.12,3.12,0,0,1,0-.54,2.33,2.33,0,0,0-.11-.51l-.08,0-.19,1.58h-.14V55.77h-.11l-.13,1.07h-.11L75,56h-.13c.31.59-.11,1.08-.19,1.64l-.31-1h0l-.17,1.75-.08,0-.12-1h-.08v.76h-.09l-.09-.4-.07,0,.07.78-.1,0-.15-.41,0,.38h-.07l-.14-.32-.07,0,.18,1-.13,0L73,58.46c-.16.29.26.66-.17.94l-.19-.47-.07.58h-.08l-.14-.22-.13,1.07h-.14v-1a5.34,5.34,0,0,0,0,2.75l.14-1.51h.14l.16.78h.06l.07-1.56h.11l.09.48.1,0,.18-.49.35-.09.11.62a1.53,1.53,0,0,0,.58-1.28l.11,0V60h.07l.06-1h.13l.13.64h.09l.1-.81H75l.21,1.23.14-.42.19.3Zm5.21.34-.09,0c.07.16.13.33.2.5s.15.23.15.35-.11.17-.17.26a2.09,2.09,0,0,1-.08-.23c0-.08,0-.17-.08-.26-.31.18-.34.16-.4-.15a1.51,1.51,0,0,0-.13-.33l-.13,0a3.2,3.2,0,0,0,.17.55c.08.17.21.31.29.48a.21.21,0,0,1,0,.21s-.17,0-.18,0c-.14-.24-.57-.3-.43-.72-.17.15-.5.19-.31.5.31.51.31.58-.2,1l-.29-1a1.52,1.52,0,0,0-.2.44,1,1,0,0,0-.1.37,1.66,1.66,0,0,0,.18.53.8.8,0,0,1,.16.7s.07.2.12.2c.24,0,.22.18.22.33a2.85,2.85,0,0,0,0,.29h.09a1.35,1.35,0,0,0,0-.28,1.67,1.67,0,0,1,0-.32c0-.07.12-.12.18-.18a1,1,0,0,1,.06.23c0,.17,0,.35,0,.49l.83.19.16-.41h.1l.16.76.15-.63h.13l.15.51.14-.44H82l.17.64c.24.06.4,0,.44-.26,0-.14.21-.24.32-.36,0,.14.06.29.08.44s0,.3,0,.54l.24-.38h.11l.1.59.78-.22s0-.15-.06-.21-.34-.35-.48-.55a.88.88,0,0,1,0-.37,1.45,1.45,0,0,1,.29.11,1.41,1.41,0,0,1,.18.23c-.06-.26-.12-.51-.45-.5,0,0-.07-.17-.06-.25s.11-.08.14-.1c-.26-.24-.51-.44-.73-.67a.35.35,0,0,1,0-.33,6,6,0,0,1,.57-.42l-.31-.5c0,.38-.17.53-.39.44a2.63,2.63,0,0,1-.25-.56,1.79,1.79,0,0,1,0-.51l-.32-.14c0-.07.07-.2.13-.22a.73.73,0,0,1,.36,0c.06,0,.11.11.15.18s.12.23.18.34l.12-.12c0-.43,0-.85-.63-.87-.13.24-.28.2-.45,0A.76.76,0,0,0,82,59c-.17-.11-.35-.2-.56-.32-.15.42.26.82.24,1.27l-.12.06ZM41.09,44l-.49,1.23-.48-.73-.11.05-.16.41c-.5-.11-.31.52-.66.58l-.25-.27c-.13.16-.27.42-.36.41-.27,0-.52-.2-.43-.58a1.94,1.94,0,0,0,0-.4A9.14,9.14,0,0,0,38,45.85c0,.22,0,.45,0,.68a1.67,1.67,0,0,1-.08.3c-.07-.07-.17-.13-.19-.21a5.63,5.63,0,0,1-.17-.68h-.08v.67l-.35-.28c0,.86.24,1.67-.28,2.4a.22.22,0,0,0,.13-.06l.61-.3c0,.18.1.36.14.54s.11.4.16.61l.29-.12,0,.27h.06l.18-.94h.13l.31,1.42.17-.55h.08l.18.44a4.57,4.57,0,0,1-.14-1.32l.13,0,.37.7-.09-.79c.43.18,1-.22,1-.58s0-.41.3-.41a.91.91,0,0,0,.3-.11c-.09-.16-.24-.31-.23-.45,0-.32-.2-.41-.4-.52a1.25,1.25,0,0,0-.41-.07,1.31,1.31,0,0,1,.07-.19l.94-1.61C41.19,44.46,41.34,44.27,41.09,44Zm-6.5-10.87.2,0c0,.38.66.52.38,1a.9.9,0,0,0,.16-.21c.11-.15.22-.17.33,0,.28.42.32.42.71,0l.7.5-.22.12c.1-.13.16-.32.29-.38.36-.15.32-.49.34-.75s-.23-.25-.36-.37a.24.24,0,0,0-.1,0c-.45-.08-.51-.42-.54-.79,0-.09,0-.24-.09-.27-.35-.17-.33-.36-.06-.6a.53.53,0,0,0,.11-.15l-2.41-1c0,.16,0,.21,0,.25.07.41.45.55.71.79a1.38,1.38,0,0,1,.17.32l-.33.08h-.2C34.38,32.14,34.84,32.59,34.59,33.14Zm-3.83,22c-.07-.12-.2-.24-.2-.36,0-.41-.37-.47-.6-.62-.07,0-.31.14-.47.22a.27.27,0,0,0-.07.08c-.24.38-.57.33-.93.22-.09,0-.24-.06-.29,0-.28.28-.45.19-.57-.15a1.11,1.11,0,0,0-.11-.16l-1.73,1.9.1.15a5.17,5.17,0,0,0,.7-.21c.16-.06.29-.2.45-.27a1.22,1.22,0,0,1,.33,0,.8.8,0,0,1,0,.28c-.16.26,0,.31.19.31a3.51,3.51,0,0,1,.92.05,1.16,1.16,0,0,0,.86-.09.51.51,0,0,1,.32,0,.77.77,0,0,1,.24.12l.07-.1c-.08-.06-.2-.1-.22-.17s.05-.24.11-.26c.51-.15.52-.16.28-.64Zm25,5.76a2.25,2.25,0,0,1,.09.39,2.69,2.69,0,0,1,0,.4,2.31,2.31,0,0,1-.29-.24,3.12,3.12,0,0,1-.22-.35c-.09.18-.24.35-.2.42a1,1,0,0,1,0,1,1.8,1.8,0,0,0-.06.32l-.12.61.09,0s0-.09,0-.12l.24-.29a2.16,2.16,0,0,1,.17.34c0,.11,0,.23.06.29s.36,0,.4.08a.89.89,0,0,1,.06.44,3.44,3.44,0,0,1-.1.48c.68-.23.88-.11,1.09.67a1,1,0,0,0,.2-.14,6.42,6.42,0,0,1,.38-.53,1.15,1.15,0,0,1,.35-.18l-.06.35a.44.44,0,0,1,0,.1.77.77,0,0,0,0-1.24,1.58,1.58,0,0,1-.55-.57,8.11,8.11,0,0,1-.33-1c-.09-.25-.1-.44.26-.5L56.5,61a3.68,3.68,0,0,1,0,.53c0,.08-.12.14-.19.2s-.16-.19-.14-.23C56.3,61.08,56.06,61,55.71,60.92Zm24.62-11c-.33.59.06,1.12.07,1.66h-.56V53.5h0l-.35-2.45h-.13a2.84,2.84,0,0,0,.07.72,4,4,0,0,1,.22,2,5.9,5.9,0,0,0,0,.94,1.68,1.68,0,0,1-.2-1.18A2.63,2.63,0,0,0,79,51.6a4.82,4.82,0,0,1,.13,2.46l-.23-.66a4.5,4.5,0,0,0-.18,1,2,2,0,0,0,0,.74A3.52,3.52,0,0,1,78.82,57a2.33,2.33,0,0,0,0,.37h.13V55h.15c0,.22,0,.44,0,.67s0,.43,0,.65h.12V55h.13v1.89h.12c.05-.3.1-.6.16-.89s.15-.61.19-.91a8,8,0,0,0,0-.85H80l.1,1.15a.44.44,0,0,0,.14-.27c0-.31.14-.74,0-.9-.33-.35-.18-.57.06-.94l.24,1.4h.09l-.08-1.28h.09l.18.33.11-2H81l.2,1.93.15,0c0-.24-.07-.48-.12-.72a1,1,0,0,1,.26-.94l.12.82.1,0-.29-1.39h-.08l-.1.34h-.08v-.92a4.16,4.16,0,0,0-.56,1.59ZM45.24,39.69a17.61,17.61,0,0,1,3.54-.7l.24-.45c-.35,0-.7.1-.53-.39a.55.55,0,0,1,.2-.27,3.46,3.46,0,0,1,.56-.23,14.4,14.4,0,0,0-1.51.29c-.1,0-.18.12-.27.15a1.65,1.65,0,0,1-.32.06c.05-.1.07-.23.15-.3a5.35,5.35,0,0,1,.56-.36l0-.08-.59.25.05-.43a5.35,5.35,0,0,1-1.13.52,5.49,5.49,0,0,1-1.23,0l.56.45c.19.16.12.28-.06.37l-.78.42a.18.18,0,0,0-.05.07l.24.19-.3.23,1-.21.05.13ZM39.92,54.15l-.05-.51c.36.18.44-.06.52-.31l.51.21.14-.27.27.21-.18-1,.14-.05.27.59c0-.45-.44-1.5-.66-1.48l-.18.27-.21-.27a6.26,6.26,0,0,1-.68.42c-.21.1-.41.14-.48.41,0,.12-.17.22-.29.36l-.19-.4-.12.05.79,1.93.12-.55Zm30.6,7.2h-.08l-.08-.44-.16.82h-.1l0-.5H70a2.33,2.33,0,0,1,0,.58c0,.19-.2.36-.25.55s-.2.4-.46.23a2.39,2.39,0,0,0-.18,1.69L69.19,63h.17v1.09h.13V63l.11,0,.23.77L70,62.51l.19.21.15-.66.1,0,.07.52h.12l.14-1.1.11,0,.05.51H71l.23-.71.1.72a2.07,2.07,0,0,0,.15-1.84l-.15.63L71,59.7c-.08.46.11.92-.12,1.38-.06-.06-.11-.08-.11-.1l-.06-.71h.05ZM34.77,46.53c-.2-.11-.37-.15-.44-.26-.35-.52-.7-.89-1.4-.49a.54.54,0,0,0,.54.58c.27,0,.31.11.35.31a.4.4,0,0,0,.4.37h.5ZM45.83,35.29l.63-.17-.11,0c0-.15,0-.35.11-.44a1,1,0,0,0-.07-1.46c-.4.3-.43.41-.28,1C45.48,34.35,45.68,34.82,45.83,35.29ZM30.93,52.71a1.08,1.08,0,0,1-1.24.82,1.7,1.7,0,0,0-.39,0c-.31.05-.41-.06-.39-.36a.38.38,0,0,0-.08-.26.89.89,0,0,0-.26-.12,2,2,0,0,0,0,.24,1,1,0,0,0,.05.34.84.84,0,0,0,.25.36.43.43,0,0,0,.37.09,1.11,1.11,0,0,1,1,.1c.07-.07.12-.18.2-.19A.79.79,0,0,0,30.93,52.71Zm6.48-20.07c.25-.17.31,0,.35.16s.07.25.09.38a1.49,1.49,0,0,1,0,.3c.19.16.35.38.56.44a2,2,0,0,0,.71-.08c-.79-.3-.79-.3-1.13-1.07a1.87,1.87,0,0,0-.17-.31c-.13-.23,0-.39.2-.48a.75.75,0,0,0,.3-.26.62.62,0,0,0-.12-.19,3.1,3.1,0,0,0-.58.28.51.51,0,0,0-.12.29A5,5,0,0,0,37.41,32.64ZM32.89,56.1l-.8-.43-.62-.32v.07l.6,1h.52l.13.4h.1Zm-3.31-8.23.12.07.78-.59-.7-.43Zm13.7-17.12,0,.14.81.52.17-.8ZM27.6,53.06l-.09,0-.6.94-.66.93.13.09C26.77,54.32,27.41,53.84,27.6,53.06ZM37.72,30.65l-2.19-.52,0,.08A3.6,3.6,0,0,0,37.72,30.65Zm4.63,10.19L41.1,42A1.35,1.35,0,0,0,42.35,40.84ZM32,57c-.49.36-.39.75-.14,1.23.11-.37.26-.1.45-.06l-.09-.4-.35.07c0-.12,0-.24,0-.36Zm2.48-20.54.17.5.27-.19-.16-.34.36-.06.53-.12A.84.84,0,0,0,34.51,36.43Zm-.66,33.66,1-.25C34.66,69.48,34.16,69.59,33.85,70.09Zm4.63-37.41-.08.06a6.54,6.54,0,0,0,.51.41s.19-.07.21-.13a1.27,1.27,0,0,0,0-.39l-.08.1ZM61,68.32c-.07-.26-.25-.19-.42-.14a.9.9,0,0,0-.66.5Zm-31.64-9c.14-.07.39-.11.42-.43a2,2,0,0,1,.08-.37,3.13,3.13,0,0,1,.2-.3L30,58.19a4.6,4.6,0,0,0-.32.45C29.54,58.88,29.45,59.13,29.36,59.34Zm50.39,9.38c.61,0,1-.2,1-.44A1.08,1.08,0,0,0,79.75,68.72ZM60.66,68a.54.54,0,0,0-.84.38ZM38.23,32.66l.51-.28,0-.1-.49-.16Zm-3,4.52a.65.65,0,0,0-.85.36ZM60.51,68.74l.07.13.8-.3c-.08-.09-.15-.19-.17-.19C61,68.49,60.74,68.62,60.51,68.74Zm.58.32H62c0-.07,0-.19-.06-.2A1,1,0,0,0,61.09,69.06ZM32.82,58.55l-.06-.89C32.49,58,32.55,58.2,32.82,58.55ZM80.23,68.89l0,.13c.27-.11.61,0,.82-.28L81,68.59Zm-46.57.66c-.2-.28-.49-.16-.72.3Zm-2-33.16-.06.09.57.31.06-.11Z"/><path d="M12.17,38.32,9.09,36.11c-.28-.21-.58-.4-.86-.62a.31.31,0,0,0-.46,0c-1.19.87-2.4,1.73-3.6,2.59l-.33.22.35-1.1c.37-1.14.74-2.29,1.13-3.43a.37.37,0,0,0-.16-.5C4,32.44,2.82,31.59,1.64,30.75l-.38-.28.4,0h4.4c.26,0,.38-.07.45-.32.44-1.37.9-2.74,1.35-4.11L8,25.6c.41,1.23.79,2.4,1.17,3.56a5.87,5.87,0,0,1,.26.81c.07.41.3.49.69.49,1.39,0,2.79,0,4.19,0l.43,0L12.67,32c-.59.43-1.18.86-1.79,1.28a.39.39,0,0,0-.19.54c.47,1.39.92,2.78,1.38,4.17C12.1,38.06,12.13,38.16,12.17,38.32Z"/><path d="M46.27,50.12l-.34-.74c.41.13.53.55.32.73Z"/><path d="M47.26,47.08c0,.16.34.52-.22.43,0,0-.14.25-.17.39a2.56,2.56,0,0,1-.11.46c-.3-.48,0-.93.07-1.45l-.5.91-.14,0,.07-.51L46,46.71c-.27.11-.45,0-.42-.39l-.22.34-.09-.06c.2-.56-.15-1-.24-1.54,0-.16,0-.32,0-.48l.14,0,.12.59.14-.55h.09l.13.46.12-.63h.13l.08.86L46.3,44h.14a2.27,2.27,0,0,1,0,.52c0,.26-.12.52-.17.79s-.11.42.17.61.1.41.16.71l.13-1.16h.11L47.27,47Z"/><path d="M59.7,53.63,60,52.56c.58.37.45,2.09,0,3l-.2-1.41h0l-.17,1.35a3.33,3.33,0,0,1-.16-.3c-.11-.29-.23-.58-.32-.88a.78.78,0,0,1,0-.45l-.23-.9.13,0,.22.36.25-.13Z"/><path d="M49.2,48.11c-.65-.06-.12.48-.37.65l-.37-.4a1.25,1.25,0,0,1-.33-.06c0-.5,0-1,0-1.51l.2,0,.31,1.12c.22-.17.14-.35.07-.53s-.14-.37-.23-.59C48.81,46.87,49.15,47.58,49.2,48.11Z"/><path d="M52.39,45.54a1.83,1.83,0,0,1,1.29,1.68l-.3-.23c-.46.17-.83.08-.84-.47A6,6,0,0,0,52.39,45.54Z"/><path d="M49.06,46.88a2.92,2.92,0,0,1,.44.19c.06,0,.12.2.09.24-.18.24-.07.44.06.64.25.37,0,.67-.1,1-.23,0-.22-.43-.52-.24,0-.12-.07-.32,0-.34.46-.25.22-.61.16-.93A3,3,0,0,0,49,47Z"/><path d="M52.76,44.74l.29-.4c.24,0,.36.14.36.43a5.19,5.19,0,0,0,.11.65,1.36,1.36,0,0,1,0,.4c-.16,0-.38,0-.48-.09a5.35,5.35,0,0,1-.62-.71c.47-.25.48.42.92.39Z"/><path d="M55.08,46.16l.62.73c-.64-.06-.91-.31-.93-.73,0-.19,0-.29.26-.28s.26,0,.39,0a.49.49,0,0,1,.19.07c0,.06-.1.15-.17.17A1.63,1.63,0,0,1,55.08,46.16Z"/><path d="M44.83,45.62l-.13.24h-.09v-.94l.06-.06a2.94,2.94,0,0,1,.31.41,2,2,0,0,1,.27.6c0,.11-.09.25-.14.38l-.11,0Z"/><path d="M51.72,41.18l.6,0-.83.8c0-.19-.07-.38-.09-.57s0-.21,0-.32a2,2,0,0,0,0-.25,1.34,1.34,0,0,1,.23.16S51.7,41.13,51.72,41.18Z"/><path d="M50.62,49.5c-.21.25-.36.26-.49,0A1.18,1.18,0,0,1,50,48.6l.14,0,.22.73.2-.32.1,0c0,.17,0,.34,0,.51Z"/><path d="M56.09,43.81l.38.79c-.48-.07-.39-.78-1-.66a2,2,0,0,1,.17-.34,4.28,4.28,0,0,1,.44.2Z"/><path d="M48.86,42.68c-.33-.57-.22-1.08.2-1.17Z"/><path d="M65.66,47.59l-.7-.93A.73.73,0,0,1,65.66,47.59Z"/><path d="M43.24,46.26a1.17,1.17,0,0,1,.12,1.23A1.82,1.82,0,0,1,43.24,46.26Z"/><path d="M55.75,52.21a3.64,3.64,0,0,1-.14-1.35l.17,0,.13,1.36Z"/><path d="M46.32,45.59l.47-1.12c.22.27.06.77-.36,1.16Z"/><path d="M53.63,47.94a1.4,1.4,0,0,1-.76-.77A.92.92,0,0,1,53.63,47.94Z"/><path d="M46.92,51l-.21-.89c.46.18.51.32.31.87Z"/><path d="M48.65,48.78l.17,1.09a.91.91,0,0,1-.29-1.07Z"/><path d="M47.33,42.09c.33-.07.26.23.3.37s0,.43-.34.49c0-.31,0-.59.05-.87Z"/><path d="M55.42,51.43l.19,1.13A.89.89,0,0,1,55.42,51.43Z"/><path d="M47.69,49,48,50l-.2.07-.33-1Z"/><path d="M49.2,48.86l.29,1a1,1,0,0,1-.39-1Z"/><path d="M54.67,52.13l.13,1a.78.78,0,0,1-.25-1Z"/><path d="M56.12,51l-.35-1A.77.77,0,0,1,56.12,51Z"/><path d="M55.15,51.73a1.14,1.14,0,0,1-.13.9H54.9l.1-.91Z"/><path d="M49.85,47.6a.77.77,0,0,1,.28.77l-.12.05-.32-.76Z"/><path d="M56.17,49.47l.41.9A.68.68,0,0,1,56.17,49.47Z"/><path d="M56.09,43.81h0L56,43.34l.15-.05.32.7-.16.14Z"/><path d="M47.92,42.55l.21-.82.17,0-.2.82Z"/><path d="M62.14,49.45l0,.73H62L62,49.46Z"/><path d="M63.1,50.48l-.14-.8a.62.62,0,0,1,.24.79Z"/><path d="M64.51,47.2l-.38-.63.16-.09.39.62Z"/><path d="M44.31,46.43l-.14-.74C44.5,45.9,44.55,46.13,44.31,46.43Z"/><path d="M44,56.22c.22.11.43.22.43.5l-.1.08-.43-.5Z"/><path d="M47.31,50.11l.29.59-.18.08-.27-.59Z"/><path d="M62.29,50.3v-.7h.12v.7Z"/><path d="M47.26,47.08V47l-.05-.57h.15a.89.89,0,0,1,0,.7Z"/><path d="M47.24,45.07l0,.68-.18,0L47,45.09Z"/><path d="M65.4,48.24l.2.6-.12,0a.54.54,0,0,1-.22-.59Z"/><path d="M47.22,50,47,49.35l.13-.05c.26.14.25.39.22.65Z"/><path d="M64.57,47.78l-.43-.62.14-.1.43.61Z"/><path d="M55.84,44.3l.29.68-.16.07-.3-.68Z"/><path d="M64.2,50.49v-.64h.12l.06.64Z"/><path d="M57.35,57.26l-.16.68-.11,0a.76.76,0,0,1,.13-.7Z"/><path d="M48.35,54.75,48,54.3l.15-.11.33.46Z"/><path d="M49.5,41.38l-.07.42-.24-.07.15-.39Z"/><path d="M50.53,41.36l-.18.53L50,41.36Z"/><path d="M65,47.85l-.13-.55.17,0,.14.55Z"/><path d="M48.33,42.85l.1-.53.18,0-.1.52Z"/><path d="M59.55,43.8l-.36-.54.12-.09.4.52Z"/><path d="M56.23,48l-.38-.42.13-.12.39.41Z"/><path d="M68.13,54.6l.16.49h.07l-.24-1.76.08,0,.59,1,.07,0-.35-1.62c.63.77.85,2.77.33,3.13l-.27-1.42H68.5c0,.34.06.68.1,1s.09.66.14,1l-.11,0-.22-.59-.07.15-.09,0L68,54.64Z"/><path d="M70,55.15l-.32-.42,0,0,.21.82-.1,0-.23-.4-.16.12c0-.24-.1-.49-.13-.74,0-.06.09-.13.14-.2l.12,0-.36-1.2.12,0,.84,1.93Z"/><path d="M72.34,51.08l-.19-.84.09,0a2.53,2.53,0,0,1,.12.23c.06.2.08.39.34.47s.34.66.23,1c-.44-.08-.38-.54-.6-.79Z"/><path d="M72.87,47l-.28-.42c.42,0,1,1.27,1,2.15-.48-.53-.45-1.22-.77-1.75Z"/><path d="M72,49.82c0-.33-.08-.64-.12-.94,0-.06-.07-.17-.1-.17-.45,0-.18-.31-.34-.51A1.16,1.16,0,0,1,72,49.82Z"/><path d="M72.79,50.06a1.65,1.65,0,0,1,.47,1.75Z"/><path d="M72.87,47v0c.1.5.19,1,.31,1.48a4,4,0,0,1,.19.64s-.11,0-.12-.08q-.3-1-.57-2Z"/><path d="M76.77,49.5a6.73,6.73,0,0,1-.38-.82,5.36,5.36,0,0,1-.14-.92c.22,0,.32.13.35.37a5.35,5.35,0,0,0,.08.7c0,.21.11.42.17.63Z"/><path d="M71.93,50.68l-.55-1.8A3.09,3.09,0,0,1,72,50.66Z"/><path d="M76.39,50.6c-.37-.28-.59-1.16-.31-1.45,0,.13,0,.22,0,.31.07.25.15.49.21.74a2.71,2.71,0,0,1,0,.41Z"/><path d="M72.56,49.37,71.9,48C72.23,48.09,72.59,48.79,72.56,49.37Z"/><path d="M65.66,64a1.4,1.4,0,0,1,.15-1h.1l-.11,1Z"/><path d="M65.78,61.7l-.13,1-.15,0,.13-1Z"/><path d="M75.16,47.93l-.5-.83.12-.08.51.82Z"/><path d="M75.13,57.7l-.1.73-.15,0,.1-.73Z"/></svg>